SplineFontDB: 3.2
FontName: ES-Build-Thin
FullName: ES Build Thin
FamilyName: ES Build
Weight: Thin
Copyright: Copyright (c) 2020 by Xavier Erni. All rights reserved.
Version: 1.000
ItalicAngle: 0
UnderlinePosition: -180
UnderlineWidth: 70
Ascent: 800
Descent: 200
InvalidEm: 0
sfntRevision: 0x00010000
LayerCount: 2
Layer: 0 1 "Back" 1
Layer: 1 1 "Fore" 0
XUID: [1021 555 248131730 12254722]
StyleMap: 0x0040
FSType: 4
OS2Version: 4
OS2_WeightWidthSlopeOnly: 0
OS2_UseTypoMetrics: 1
CreationTime: 1605801944
ModificationTime: 1695203368
PfmFamily: 81
TTFWeight: 400
TTFWidth: 5
LineGap: 440
VLineGap: 0
Panose: 0 0 5 0 0 0 0 0 0 0
OS2TypoAscent: 680
OS2TypoAOffset: 0
OS2TypoDescent: -196
OS2TypoDOffset: 0
OS2TypoLinegap: 440
OS2WinAscent: 1166
OS2WinAOffset: 0
OS2WinDescent: 274
OS2WinDOffset: 0
HheadAscent: 680
HheadAOffset: 0
HheadDescent: -196
HheadDOffset: 0
OS2SubXSize: 650
OS2SubYSize: 600
OS2SubXOff: 0
OS2SubYOff: 75
OS2SupXSize: 650
OS2SupYSize: 600
OS2SupXOff: 0
OS2SupYOff: 350
OS2StrikeYSize: 60
OS2StrikeYPos: 260
OS2CapHeight: 680
OS2XHeight: 468
OS2Vendor: 'ESTF'
OS2CodePages: 20000093.00000000
OS2UnicodeRanges: 00000007.00000000.00000000.00000000
Lookup: 1 0 0 "'aalt' Access All Alternates in Latin lookup 0" { "'aalt' Access All Alternates in Latin lookup 0 subtable"  } ['aalt' ('DFLT' <'dflt' > 'latn' <'AZE ' 'CRT ' 'KAZ ' 'MOL ' 'ROM ' 'TAT ' 'TRK ' 'dflt' > ) ]
Lookup: 3 0 0 "'aalt' Access All Alternates in Latin lookup 1" { "'aalt' Access All Alternates in Latin lookup 1 subtable"  } ['aalt' ('DFLT' <'dflt' > 'latn' <'AZE ' 'CRT ' 'KAZ ' 'MOL ' 'ROM ' 'TAT ' 'TRK ' 'dflt' > ) ]
Lookup: 6 0 0 "'ccmp' Glyph Composition/Decomposition in Latin lookup 2" { "'ccmp' Glyph Composition/Decomposition in Latin lookup 2 contextual 0"  "'ccmp' Glyph Composition/Decomposition in Latin lookup 2 contextual 1"  } ['ccmp' ('DFLT' <'dflt' > 'latn' <'AZE ' 'CRT ' 'KAZ ' 'MOL ' 'ROM ' 'TAT ' 'TRK ' 'dflt' > ) ]

StartChar: .notdef
Encoding: 65536 -1 0
Width: 819
GlyphClass: 1
Flags: W
LayerCount: 2
Fore
SplineSet
571 0 m 1,0,-1
 248 0 l 1,1,-1
 248 640 l 1,2,-1
 571 640 l 1,3,-1
 571 0 l 1,0,-1
324 528 m 1,4,-1
 324 112 l 1,5,-1
 495 112 l 1,6,-1
 495 528 l 1,7,-1
 324 528 l 1,4,-1
EndSplineSet
EndChar

StartChar: A
Encoding: 65 65 3
Width: 647
GlyphClass: 2
Flags: W
AnchorPoint: "Anchor-4" 324 680 basechar 0
AnchorPoint: "Anchor-3" 581 0 basechar 0
AnchorPoint: "Anchor-2" 323 0 basechar 0
LayerCount: 2
Fore
SplineSet
633 0 m 1,0,-1
 532 0 l 1,1,-1
 466 172 l 1,2,-1
 180 172 l 1,3,-1
 114 0 l 1,4,-1
 14 0 l 1,5,-1
 282 680 l 1,6,-1
 365 680 l 1,7,-1
 633 0 l 1,0,-1
209 254 m 1,8,-1
 437 254 l 1,9,-1
 335 528 l 2,10,11
 327 548 327 548 324 563 c 1,12,-1
 322 563 l 1,13,14
 319 548 319 548 311 528 c 2,15,-1
 209 254 l 1,8,-1
EndSplineSet
Substitution2: "Single Substitution lookup 38 subtable" ordfeminine
Substitution2: "'aalt' Access All Alternates in Latin lookup 0 subtable" ordfeminine
EndChar

StartChar: Aogonek
Encoding: 260 260 12
Width: 647
GlyphClass: 1
Flags: W
LayerCount: 2
Fore
SplineSet
536.5 -123 m 128,-1,1
 553 -136 553 -136 576 -136 c 0,2,3
 605 -136 605 -136 626 -129 c 1,4,-1
 626 -183 l 1,5,6
 594 -198 594 -198 555 -198 c 0,7,8
 515 -198 515 -198 484.5 -176 c 128,-1,9
 454 -154 454 -154 454 -116 c 0,10,11
 454 -81 454 -81 476.5 -50.5 c 128,-1,12
 499 -20 499 -20 532 0 c 1,13,-1
 466 172 l 1,14,-1
 180 172 l 1,15,-1
 114 0 l 1,16,-1
 14 0 l 1,17,-1
 282 680 l 1,18,-1
 365 680 l 1,19,-1
 633 0 l 1,20,-1
 619 -2 l 2,21,22
 576 -8 576 -8 548 -32.5 c 128,-1,23
 520 -57 520 -57 520 -85 c 0,24,0
 520 -110 520 -110 536.5 -123 c 128,-1,1
209 254 m 1,25,-1
 437 254 l 1,26,-1
 335 528 l 2,27,28
 327 548 327 548 324 563 c 1,29,-1
 322 563 l 1,30,31
 319 548 319 548 311 528 c 2,32,-1
 209 254 l 1,25,-1
EndSplineSet
EndChar

StartChar: AE
Encoding: 198 198 15
Width: 933
GlyphClass: 1
Flags: W
LayerCount: 2
Fore
SplineSet
601 86 m 1,0,-1
 885 86 l 1,1,-1
 919 0 l 1,2,-1
 533 0 l 1,3,-1
 467 172 l 1,4,-1
 181 172 l 1,5,-1
 115 0 l 1,6,-1
 14 0 l 1,7,-1
 282 680 l 1,8,-1
 651 680 l 1,9,-1
 685 594 l 1,10,-1
 401 594 l 1,11,-1
 482 387 l 1,12,-1
 752 387 l 1,13,-1
 786 301 l 1,14,-1
 516 301 l 1,15,-1
 601 86 l 1,0,-1
210 254 m 1,16,-1
 438 254 l 1,17,-1
 336 528 l 2,18,19
 328 548 328 548 325 563 c 1,20,-1
 323 563 l 1,21,22
 320 548 320 548 312 528 c 2,23,-1
 210 254 l 1,16,-1
EndSplineSet
EndChar

StartChar: B
Encoding: 66 66 16
Width: 579
GlyphClass: 2
Flags: W
AnchorPoint: "Anchor-4" 290 680 basechar 0
AnchorPoint: "Anchor-2" 284 0 basechar 0
LayerCount: 2
Fore
SplineSet
401 350 m 1,0,1
 464 342 464 342 505.5 302 c 128,-1,2
 547 262 547 262 547 196 c 0,3,4
 547 105 547 105 486 52.5 c 128,-1,5
 425 0 425 0 309 0 c 2,6,-1
 75 0 l 1,7,-1
 75 680 l 1,8,-1
 287 680 l 2,9,10
 402 680 402 680 457.5 630 c 128,-1,11
 513 580 513 580 513 493 c 0,12,13
 513 436 513 436 479.5 398 c 128,-1,14
 446 360 446 360 401 352 c 1,15,-1
 401 350 l 1,0,1
169 594 m 1,16,-1
 169 392 l 1,17,-1
 280 392 l 2,18,19
 352 392 352 392 384.5 416 c 128,-1,20
 417 440 417 440 417 493 c 0,21,22
 417 545 417 545 383 569.5 c 128,-1,23
 349 594 349 594 280 594 c 2,24,-1
 169 594 l 1,16,-1
302 86 m 2,25,26
 451 86 451 86 451 196 c 0,27,28
 451 252 451 252 409.5 279 c 128,-1,29
 368 306 368 306 280 306 c 2,30,-1
 169 306 l 1,31,-1
 169 86 l 1,32,-1
 302 86 l 2,25,26
EndSplineSet
EndChar

StartChar: C
Encoding: 67 67 18
Width: 729
GlyphClass: 2
Flags: W
AnchorPoint: "Anchor-4" 382 680 basechar 0
AnchorPoint: "Anchor-2" 382 0 basechar 0
LayerCount: 2
Fore
SplineSet
208 36.5 m 128,-1,1
 130 83 130 83 85 163 c 128,-1,2
 40 243 40 243 40 340 c 256,3,4
 40 437 40 437 85 517 c 128,-1,5
 130 597 130 597 208 643.5 c 128,-1,6
 286 690 286 690 382 690 c 0,7,8
 455 690 455 690 518.5 662 c 128,-1,9
 582 634 582 634 626.5 583 c 128,-1,10
 671 532 671 532 689 466 c 1,11,-1
 590 466 l 1,12,13
 564 528 564 528 508 565 c 128,-1,14
 452 602 452 602 382 602 c 0,15,16
 313 602 313 602 256.5 567.5 c 128,-1,17
 200 533 200 533 168 473 c 128,-1,18
 136 413 136 413 136 340 c 256,19,20
 136 267 136 267 168 207 c 128,-1,21
 200 147 200 147 256.5 112.5 c 128,-1,22
 313 78 313 78 382 78 c 0,23,24
 452 78 452 78 508 115 c 128,-1,25
 564 152 564 152 590 214 c 1,26,-1
 689 214 l 1,27,28
 671 148 671 148 626.5 97 c 128,-1,29
 582 46 582 46 518.5 18 c 128,-1,30
 455 -10 455 -10 382 -10 c 0,31,0
 286 -10 286 -10 208 36.5 c 128,-1,1
EndSplineSet
EndChar

StartChar: D
Encoding: 68 68 23
Width: 671
GlyphClass: 2
Flags: W
AnchorPoint: "Anchor-4" 307 680 basechar 0
AnchorPoint: "Anchor-2" 307 0 basechar 0
LayerCount: 2
Fore
SplineSet
461.5 635 m 128,-1,1
 541 590 541 590 586 512.5 c 128,-1,2
 631 435 631 435 631 340 c 256,3,4
 631 245 631 245 586 167.5 c 128,-1,5
 541 90 541 90 461.5 45 c 128,-1,6
 382 0 382 0 281 0 c 2,7,-1
 75 0 l 1,8,-1
 75 680 l 1,9,-1
 281 680 l 2,10,0
 382 680 382 680 461.5 635 c 128,-1,1
281 86 m 2,11,12
 352 85 352 85 410 119 c 128,-1,13
 468 153 468 153 501.5 211.5 c 128,-1,14
 535 270 535 270 535 340 c 256,15,16
 535 410 535 410 501.5 468.5 c 128,-1,17
 468 527 468 527 410 560.5 c 128,-1,18
 352 594 352 594 281 594 c 2,19,-1
 169 594 l 1,20,-1
 169 87 l 1,21,-1
 281 86 l 2,11,12
EndSplineSet
EndChar

StartChar: Eth
Encoding: 208 208 24
Width: 672
GlyphClass: 2
Flags: W
AnchorPoint: "Anchor-4" 308 680 basechar 0
AnchorPoint: "Anchor-2" 308 0 basechar 0
LayerCount: 2
Fore
SplineSet
462.5 635 m 128,-1,1
 542 590 542 590 587 512.5 c 128,-1,2
 632 435 632 435 632 340 c 256,3,4
 632 245 632 245 587 167.5 c 128,-1,5
 542 90 542 90 462.5 45 c 128,-1,6
 383 0 383 0 282 0 c 2,7,-1
 76 0 l 1,8,-1
 76 293 l 1,9,-1
 10 293 l 1,10,-1
 10 383 l 1,11,-1
 76 383 l 1,12,-1
 76 680 l 1,13,-1
 282 680 l 2,14,0
 383 680 383 680 462.5 635 c 128,-1,1
282 86 m 2,15,16
 353 85 353 85 411 119 c 128,-1,17
 469 153 469 153 502.5 211.5 c 128,-1,18
 536 270 536 270 536 340 c 256,19,20
 536 410 536 410 502.5 468.5 c 128,-1,21
 469 527 469 527 411 560.5 c 128,-1,22
 353 594 353 594 282 594 c 2,23,-1
 170 594 l 1,24,-1
 170 383 l 1,25,-1
 237 383 l 1,26,-1
 237 293 l 1,27,-1
 170 293 l 1,28,-1
 170 87 l 1,29,-1
 282 86 l 2,15,16
EndSplineSet
EndChar

StartChar: E
Encoding: 69 69 28
Width: 538
GlyphClass: 2
Flags: W
AnchorPoint: "Anchor-4" 284 680 basechar 0
AnchorPoint: "Anchor-3" 486 0 basechar 0
AnchorPoint: "Anchor-2" 284 0 basechar 0
LayerCount: 2
Fore
SplineSet
486 680 m 1,0,-1
 486 594 l 1,1,-1
 169 594 l 1,2,-1
 169 387 l 1,3,-1
 472 387 l 1,4,-1
 472 301 l 1,5,-1
 169 301 l 1,6,-1
 169 86 l 1,7,-1
 486 86 l 1,8,-1
 486 0 l 1,9,-1
 75 0 l 1,10,-1
 75 680 l 1,11,-1
 486 680 l 1,0,-1
EndSplineSet
EndChar

StartChar: Eogonek
Encoding: 280 280 37
Width: 538
GlyphClass: 1
Flags: W
LayerCount: 2
Fore
SplineSet
486 594 m 1,0,-1
 169 594 l 1,1,-1
 169 387 l 1,2,-1
 472 387 l 1,3,-1
 472 301 l 1,4,-1
 169 301 l 1,5,-1
 169 86 l 1,6,-1
 486 86 l 1,7,-1
 486 0 l 1,8,-1
 472 -2 l 2,9,10
 429 -8 429 -8 401 -32.5 c 128,-1,11
 373 -57 373 -57 373 -85 c 0,12,13
 373 -110 373 -110 389.5 -123 c 128,-1,14
 406 -136 406 -136 429 -136 c 0,15,16
 458 -136 458 -136 479 -129 c 1,17,-1
 479 -183 l 1,18,19
 447 -198 447 -198 408 -198 c 0,20,21
 368 -198 368 -198 337.5 -176 c 128,-1,22
 307 -154 307 -154 307 -116 c 0,23,24
 307 -81 307 -81 329.5 -50.5 c 128,-1,25
 352 -20 352 -20 385 0 c 1,26,-1
 75 0 l 1,27,-1
 75 680 l 1,28,-1
 486 680 l 1,29,-1
 486 594 l 1,0,-1
EndSplineSet
EndChar

StartChar: F
Encoding: 70 70 38
Width: 528
GlyphClass: 1
Flags: W
LayerCount: 2
Fore
SplineSet
480 680 m 1,0,-1
 480 594 l 1,1,-1
 169 594 l 1,2,-1
 169 380 l 1,3,-1
 466 380 l 1,4,-1
 466 294 l 1,5,-1
 169 294 l 1,6,-1
 169 0 l 1,7,-1
 75 0 l 1,8,-1
 75 680 l 1,9,-1
 480 680 l 1,0,-1
EndSplineSet
EndChar

StartChar: G
Encoding: 71 71 39
Width: 759
GlyphClass: 2
Flags: W
AnchorPoint: "Anchor-4" 386 680 basechar 0
AnchorPoint: "Anchor-2" 394 0 basechar 0
LayerCount: 2
Fore
SplineSet
718 336 m 1,0,1
 719 323 719 323 718 305 c 0,2,3
 713 207 713 207 668.5 135.5 c 128,-1,4
 624 64 624 64 552 27 c 128,-1,5
 480 -10 480 -10 394 -10 c 0,6,7
 291 -10 291 -10 210.5 34.5 c 128,-1,8
 130 79 130 79 85 159 c 128,-1,9
 40 239 40 239 40 340 c 0,10,11
 40 437 40 437 85.5 517 c 128,-1,12
 131 597 131 597 210.5 643.5 c 128,-1,13
 290 690 290 690 386 690 c 0,14,15
 459 690 459 690 522 663.5 c 128,-1,16
 585 637 585 637 630 588.5 c 128,-1,17
 675 540 675 540 694 477 c 1,18,-1
 585 477 l 1,19,20
 559 534 559 534 505.5 568 c 128,-1,21
 452 602 452 602 386 602 c 0,22,23
 317 602 317 602 259.5 567.5 c 128,-1,24
 202 533 202 533 169 473 c 128,-1,25
 136 413 136 413 136 340 c 0,26,27
 136 263 136 263 168 203.5 c 128,-1,28
 200 144 200 144 258.5 111 c 128,-1,29
 317 78 317 78 394 78 c 0,30,31
 460 78 460 78 507.5 103.5 c 128,-1,32
 555 129 555 129 581.5 168 c 128,-1,33
 608 207 608 207 617 250 c 1,34,-1
 297 250 l 1,35,-1
 297 336 l 1,36,-1
 718 336 l 1,0,1
EndSplineSet
EndChar

StartChar: H
Encoding: 72 72 44
Width: 700
GlyphClass: 2
Flags: W
AnchorPoint: "Anchor-4" 350 680 basechar 0
AnchorPoint: "Anchor-2" 350 0 basechar 0
LayerCount: 2
Fore
SplineSet
531 391 m 1,0,-1
 531 680 l 1,1,-1
 625 680 l 1,2,-1
 625 0 l 1,3,-1
 531 0 l 1,4,-1
 531 305 l 1,5,-1
 169 305 l 1,6,-1
 169 0 l 1,7,-1
 75 0 l 1,8,-1
 75 680 l 1,9,-1
 169 680 l 1,10,-1
 169 391 l 1,11,-1
 531 391 l 1,0,-1
EndSplineSet
EndChar

StartChar: Hbar
Encoding: 294 294 45
Width: 700
GlyphClass: 2
Flags: W
AnchorPoint: "Anchor-4" 350 680 basechar 0
AnchorPoint: "Anchor-2" 350 0 basechar 0
LayerCount: 2
Fore
SplineSet
625 591 m 1,0,-1
 683 591 l 1,1,-1
 683 513 l 1,2,-1
 625 513 l 1,3,-1
 625 0 l 1,4,-1
 531 0 l 1,5,-1
 531 305 l 1,6,-1
 169 305 l 1,7,-1
 169 0 l 1,8,-1
 75 0 l 1,9,-1
 75 513 l 1,10,-1
 17 513 l 1,11,-1
 17 591 l 1,12,-1
 75 591 l 1,13,-1
 75 680 l 1,14,-1
 169 680 l 1,15,-1
 169 591 l 1,16,-1
 531 591 l 1,17,-1
 531 680 l 1,18,-1
 625 680 l 1,19,-1
 625 591 l 1,0,-1
169 391 m 1,20,-1
 531 391 l 1,21,-1
 531 513 l 1,22,-1
 169 513 l 1,23,-1
 169 391 l 1,20,-1
EndSplineSet
EndChar

StartChar: I
Encoding: 73 73 47
Width: 260
GlyphClass: 2
Flags: W
AnchorPoint: "Anchor-4" 130 680 basechar 0
AnchorPoint: "Anchor-3" 132 0 basechar 0
AnchorPoint: "Anchor-2" 130 0 basechar 0
LayerCount: 2
Fore
SplineSet
177 0 m 1,0,-1
 83 0 l 1,1,-1
 83 680 l 1,2,-1
 177 680 l 1,3,-1
 177 0 l 1,0,-1
EndSplineSet
EndChar

StartChar: Iogonek
Encoding: 302 302 55
Width: 260
GlyphClass: 1
Flags: W
LayerCount: 2
Fore
SplineSet
35.5 -176 m 128,-1,1
 5 -154 5 -154 5 -116 c 0,2,3
 5 -81 5 -81 27.5 -50.5 c 128,-1,4
 50 -20 50 -20 83 0 c 1,5,-1
 83 680 l 1,6,-1
 177 680 l 1,7,-1
 177 0 l 1,8,-1
 164 -2 l 2,9,10
 125 -8 125 -8 98 -31.5 c 128,-1,11
 71 -55 71 -55 71 -85 c 0,12,13
 71 -110 71 -110 87.5 -123 c 128,-1,14
 104 -136 104 -136 127 -136 c 0,15,16
 156 -136 156 -136 177 -129 c 1,17,-1
 177 -183 l 1,18,19
 144 -198 144 -198 106 -198 c 0,20,0
 66 -198 66 -198 35.5 -176 c 128,-1,1
EndSplineSet
EndChar

StartChar: J
Encoding: 74 74 56
Width: 309
GlyphClass: 1
Flags: W
LayerCount: 2
Fore
SplineSet
243 154 m 2,0,1
 243 81 243 81 197.5 37.5 c 128,-1,2
 152 -6 152 -6 79 -6 c 0,3,4
 49 -6 49 -6 26 0 c 1,5,-1
 26 79 l 1,6,7
 41 78 41 78 60 78 c 0,8,9
 149 78 149 78 149 168 c 2,10,-1
 149 680 l 1,11,-1
 243 680 l 1,12,-1
 243 154 l 2,0,1
EndSplineSet
EndChar

StartChar: K
Encoding: 75 75 57
Width: 609
GlyphClass: 2
Flags: W
AnchorPoint: "Anchor-4" 305 680 basechar 0
AnchorPoint: "Anchor-2" 305 0 basechar 0
LayerCount: 2
Fore
SplineSet
467 680 m 1,0,-1
 593 680 l 1,1,-1
 277 356 l 1,2,-1
 589 0 l 1,3,-1
 468 0 l 1,4,-1
 169 346 l 1,5,-1
 169 0 l 1,6,-1
 75 0 l 1,7,-1
 75 680 l 1,8,-1
 169 680 l 1,9,-1
 169 368 l 1,10,-1
 467 680 l 1,0,-1
EndSplineSet
EndChar

StartChar: L
Encoding: 76 76 59
Width: 500
GlyphClass: 2
Flags: W
AnchorPoint: "Anchor-4" 122 680 basechar 0
AnchorPoint: "Anchor-2" 282 0 basechar 0
LayerCount: 2
Fore
SplineSet
169 680 m 1,0,-1
 169 86 l 1,1,-1
 482 86 l 1,2,-1
 482 0 l 1,3,-1
 75 0 l 1,4,-1
 75 680 l 1,5,-1
 169 680 l 1,0,-1
EndSplineSet
EndChar

StartChar: Lcaron
Encoding: 317 317 61
Width: 500
GlyphClass: 1
Flags: W
LayerCount: 2
Fore
SplineSet
169 680 m 1,0,-1
 169 86 l 1,1,-1
 482 86 l 1,2,-1
 482 0 l 1,3,-1
 75 0 l 1,4,-1
 75 680 l 1,5,-1
 169 680 l 1,0,-1
272 680 m 1,6,-1
 366 680 l 1,7,-1
 303 483 l 1,8,-1
 258 483 l 1,9,-1
 272 680 l 1,6,-1
EndSplineSet
EndChar

StartChar: Lslash
Encoding: 321 321 64
Width: 508
GlyphClass: 2
Flags: W
AnchorPoint: "Anchor-4" 130 680 basechar 0
AnchorPoint: "Anchor-2" 290 0 basechar 0
LayerCount: 2
Fore
SplineSet
177 368 m 1,0,-1
 177 86 l 1,1,-1
 490 86 l 1,2,-1
 490 0 l 1,3,-1
 83 0 l 1,4,-1
 83 313 l 1,5,-1
 2 259 l 1,6,-1
 2 352 l 1,7,-1
 83 406 l 1,8,-1
 83 680 l 1,9,-1
 177 680 l 1,10,-1
 177 463 l 1,11,-1
 293 540 l 1,12,-1
 293 446 l 1,13,-1
 177 368 l 1,0,-1
EndSplineSet
EndChar

StartChar: M
Encoding: 77 77 65
Width: 890
GlyphClass: 2
Flags: W
AnchorPoint: "Anchor-4" 445 680 basechar 0
AnchorPoint: "Anchor-2" 445 0 basechar 0
LayerCount: 2
Fore
SplineSet
75 0 m 1,0,-1
 75 680 l 1,1,-1
 225 680 l 1,2,-1
 409 216 l 2,3,4
 435 151 435 151 444 118 c 1,5,-1
 446 118 l 1,6,7
 455 151 455 151 481 216 c 2,8,-1
 665 680 l 1,9,-1
 815 680 l 1,10,-1
 815 0 l 1,11,-1
 721 0 l 1,12,-1
 721 534 l 2,13,14
 721 565 721 565 723 587 c 1,15,-1
 721 587 l 1,16,17
 716 571 716 571 704 539 c 2,18,-1
 491 8 l 1,19,-1
 399 8 l 1,20,-1
 186 539 l 2,21,22
 174 571 174 571 169 587 c 1,23,-1
 167 587 l 1,24,25
 169 565 169 565 169 534 c 2,26,-1
 169 0 l 1,27,-1
 75 0 l 1,0,-1
EndSplineSet
EndChar

StartChar: N
Encoding: 78 78 67
Width: 724
GlyphClass: 2
Flags: W
AnchorPoint: "Anchor-4" 359 680 basechar 0
AnchorPoint: "Anchor-2" 359 0 basechar 0
LayerCount: 2
Fore
SplineSet
75 0 m 1,0,-1
 75 680 l 1,1,-1
 175 680 l 1,2,-1
 532 173 l 2,3,4
 550 146 550 146 556 133 c 1,5,-1
 558 134 l 1,6,7
 555 157 555 157 555 192 c 2,8,-1
 555 680 l 1,9,-1
 649 680 l 1,10,-1
 649 0 l 1,11,-1
 549 0 l 1,12,-1
 192 507 l 2,13,14
 174 534 174 534 168 547 c 1,15,-1
 166 546 l 1,16,17
 169 524 169 524 169 488 c 2,18,-1
 169 0 l 1,19,-1
 75 0 l 1,0,-1
EndSplineSet
EndChar

StartChar: Eng
Encoding: 330 330 73
Width: 724
GlyphClass: 1
Flags: W
LayerCount: 2
Fore
SplineSet
555 680 m 1,0,-1
 649 680 l 1,1,-1
 649 -42 l 2,2,3
 649 -115 649 -115 603.5 -158.5 c 128,-1,4
 558 -202 558 -202 485 -202 c 0,5,6
 455 -202 455 -202 432 -196 c 1,7,-1
 432 -117 l 1,8,9
 447 -118 447 -118 466 -118 c 0,10,11
 555 -118 555 -118 555 -28 c 2,12,-1
 555 -7 l 1,13,-1
 192 507 l 2,14,15
 174 534 174 534 168 547 c 1,16,-1
 166 546 l 1,17,18
 169 524 169 524 169 488 c 2,19,-1
 169 0 l 1,20,-1
 75 0 l 1,21,-1
 75 680 l 1,22,-1
 175 680 l 1,23,-1
 532 173 l 2,24,25
 550 146 550 146 556 133 c 1,26,-1
 558 134 l 1,27,28
 555 157 555 157 555 192 c 2,29,-1
 555 680 l 1,0,-1
EndSplineSet
EndChar

StartChar: O
Encoding: 79 79 75
Width: 772
GlyphClass: 2
Flags: W
AnchorPoint: "Anchor-4" 386 680 basechar 0
AnchorPoint: "Anchor-3" 429 0 basechar 0
AnchorPoint: "Anchor-2" 386 0 basechar 0
LayerCount: 2
Fore
SplineSet
210.5 36.5 m 128,-1,1
 131 83 131 83 85.5 163 c 128,-1,2
 40 243 40 243 40 340 c 256,3,4
 40 437 40 437 85.5 517 c 128,-1,5
 131 597 131 597 210.5 643.5 c 128,-1,6
 290 690 290 690 386 690 c 256,7,8
 482 690 482 690 561.5 643.5 c 128,-1,9
 641 597 641 597 686.5 517 c 128,-1,10
 732 437 732 437 732 340 c 256,11,12
 732 243 732 243 686.5 163 c 128,-1,13
 641 83 641 83 561.5 36.5 c 128,-1,14
 482 -10 482 -10 386 -10 c 256,15,0
 290 -10 290 -10 210.5 36.5 c 128,-1,1
512.5 112.5 m 128,-1,17
 570 147 570 147 603 207 c 128,-1,18
 636 267 636 267 636 340 c 256,19,20
 636 413 636 413 603 473 c 128,-1,21
 570 533 570 533 512.5 567.5 c 128,-1,22
 455 602 455 602 386 602 c 256,23,24
 317 602 317 602 259.5 567.5 c 128,-1,25
 202 533 202 533 169 473 c 128,-1,26
 136 413 136 413 136 340 c 256,27,28
 136 267 136 267 169 207 c 128,-1,29
 202 147 202 147 259.5 112.5 c 128,-1,30
 317 78 317 78 386 78 c 256,31,16
 455 78 455 78 512.5 112.5 c 128,-1,17
EndSplineSet
Substitution2: "Single Substitution lookup 38 subtable" ordmasculine
Substitution2: "'aalt' Access All Alternates in Latin lookup 0 subtable" ordmasculine
EndChar

StartChar: uni01EA
Encoding: 490 490 86
Width: 772
GlyphClass: 2
Flags: W
AnchorPoint: "Anchor-4" 386 680 basechar 0
AnchorPoint: "Anchor-3" 429 0 basechar 0
AnchorPoint: "Anchor-2" 386 0 basechar 0
LayerCount: 2
Fore
SplineSet
382.5 -46 m 128,-1,1
 368 -67 368 -67 368 -89 c 0,2,3
 368 -114 368 -114 383.5 -125 c 128,-1,4
 399 -136 399 -136 424 -136 c 0,5,6
 453 -136 453 -136 474 -129 c 1,7,-1
 474 -183 l 1,8,9
 442 -198 442 -198 403 -198 c 0,10,11
 363 -198 363 -198 332.5 -176 c 128,-1,12
 302 -154 302 -154 302 -116 c 0,13,14
 302 -85 302 -85 320 -57.5 c 128,-1,15
 338 -30 338 -30 366 -9 c 1,16,17
 275 -4 275 -4 200.5 43 c 128,-1,18
 126 90 126 90 83 168 c 128,-1,19
 40 246 40 246 40 340 c 0,20,21
 40 437 40 437 85.5 517 c 128,-1,22
 131 597 131 597 210.5 643.5 c 128,-1,23
 290 690 290 690 386 690 c 256,24,25
 482 690 482 690 561.5 643.5 c 128,-1,26
 641 597 641 597 686.5 517 c 128,-1,27
 732 437 732 437 732 340 c 0,28,29
 732 248 732 248 691 171.5 c 128,-1,30
 650 95 650 95 578 47 c 128,-1,31
 506 -1 506 -1 418 -9 c 1,32,0
 397 -25 397 -25 382.5 -46 c 128,-1,1
169 207 m 128,-1,34
 202 147 202 147 259.5 112.5 c 128,-1,35
 317 78 317 78 386 78 c 256,36,37
 455 78 455 78 512.5 112.5 c 128,-1,38
 570 147 570 147 603 207 c 128,-1,39
 636 267 636 267 636 340 c 256,40,41
 636 413 636 413 603 473 c 128,-1,42
 570 533 570 533 512.5 567.5 c 128,-1,43
 455 602 455 602 386 602 c 256,44,45
 317 602 317 602 259.5 567.5 c 128,-1,46
 202 533 202 533 169 473 c 128,-1,47
 136 413 136 413 136 340 c 256,48,33
 136 267 136 267 169 207 c 128,-1,34
EndSplineSet
EndChar

StartChar: Oslash
Encoding: 216 216 87
Width: 772
GlyphClass: 2
Flags: W
AnchorPoint: "Anchor-4" 386 680 basechar 0
AnchorPoint: "Anchor-3" 429 0 basechar 0
AnchorPoint: "Anchor-2" 386 0 basechar 0
LayerCount: 2
Fore
SplineSet
650 570 m 1,0,1
 689 523 689 523 710.5 464 c 128,-1,2
 732 405 732 405 732 340 c 0,3,4
 732 243 732 243 686.5 163 c 128,-1,5
 641 83 641 83 561.5 36.5 c 128,-1,6
 482 -10 482 -10 386 -10 c 0,7,8
 270 -10 270 -10 178 58 c 1,9,-1
 116 -10 l 1,10,-1
 60 40 l 1,11,-1
 123 109 l 1,12,13
 83 155 83 155 61.5 214.5 c 128,-1,14
 40 274 40 274 40 340 c 0,15,16
 40 437 40 437 85.5 517 c 128,-1,17
 131 597 131 597 210.5 643.5 c 128,-1,18
 290 690 290 690 386 690 c 0,19,20
 445 690 445 690 498 672 c 128,-1,21
 551 654 551 654 595 621 c 1,22,-1
 658 690 l 1,23,-1
 714 640 l 1,24,-1
 650 570 l 1,0,1
187 178 m 1,26,-1
 533 554 l 1,27,28
 467 602 467 602 386 602 c 0,29,30
 317 602 317 602 259.5 567.5 c 128,-1,31
 202 533 202 533 169 473 c 128,-1,32
 136 413 136 413 136 340 c 0,33,25
 136 248 136 248 187 178 c 1,26,-1
512.5 112.5 m 128,-1,35
 570 147 570 147 603 207 c 128,-1,36
 636 267 636 267 636 340 c 0,37,38
 636 385 636 385 623 426 c 128,-1,39
 610 467 610 467 586 500 c 1,40,-1
 240 125 l 1,41,42
 304 78 304 78 386 78 c 0,43,34
 455 78 455 78 512.5 112.5 c 128,-1,35
EndSplineSet
EndChar

StartChar: OE
Encoding: 338 338 91
Width: 1099
GlyphClass: 1
Flags: W
LayerCount: 2
Fore
SplineSet
1047 594 m 1,0,-1
 730 594 l 1,1,-1
 730 387 l 1,2,-1
 1033 387 l 1,3,-1
 1033 301 l 1,4,-1
 730 301 l 1,5,-1
 730 86 l 1,6,-1
 1047 86 l 1,7,-1
 1047 0 l 1,8,-1
 636 0 l 1,9,-1
 636 119 l 1,10,-1
 634 120 l 1,11,12
 594 56 594 56 526 23 c 128,-1,13
 458 -10 458 -10 378 -10 c 0,14,15
 286 -10 286 -10 208.5 36.5 c 128,-1,16
 131 83 131 83 85.5 163 c 128,-1,17
 40 243 40 243 40 340 c 256,18,19
 40 437 40 437 85.5 517 c 128,-1,20
 131 597 131 597 208.5 643.5 c 128,-1,21
 286 690 286 690 378 690 c 0,22,23
 458 690 458 690 526 657 c 128,-1,24
 594 624 594 624 634 560 c 1,25,-1
 636 561 l 1,26,-1
 636 680 l 1,27,-1
 1047 680 l 1,28,-1
 1047 594 l 1,0,-1
512.5 112.5 m 128,-1,30
 570 147 570 147 603 207 c 128,-1,31
 636 267 636 267 636 340 c 256,32,33
 636 413 636 413 603 473 c 128,-1,34
 570 533 570 533 512.5 567.5 c 128,-1,35
 455 602 455 602 386 602 c 256,36,37
 317 602 317 602 259.5 567.5 c 128,-1,38
 202 533 202 533 169 473 c 128,-1,39
 136 413 136 413 136 340 c 256,40,41
 136 267 136 267 169 207 c 128,-1,42
 202 147 202 147 259.5 112.5 c 128,-1,43
 317 78 317 78 386 78 c 256,44,29
 455 78 455 78 512.5 112.5 c 128,-1,30
EndSplineSet
EndChar

StartChar: P
Encoding: 80 80 92
Width: 577
GlyphClass: 1
Flags: W
LayerCount: 2
Fore
SplineSet
451.5 653.5 m 128,-1,1
 500 627 500 627 527.5 581 c 128,-1,2
 555 535 555 535 555 480 c 0,3,4
 555 426 555 426 527 379.5 c 128,-1,5
 499 333 499 333 451 306 c 128,-1,6
 403 279 403 279 344 279 c 2,7,-1
 169 279 l 1,8,-1
 169 0 l 1,9,-1
 75 0 l 1,10,-1
 75 680 l 1,11,-1
 344 680 l 2,12,0
 403 680 403 680 451.5 653.5 c 128,-1,1
324 365 m 2,13,14
 392 365 392 365 425.5 398.5 c 128,-1,15
 459 432 459 432 459 480 c 256,16,17
 459 528 459 528 426.5 561 c 128,-1,18
 394 594 394 594 327 594 c 2,19,-1
 169 594 l 1,20,-1
 169 365 l 1,21,-1
 324 365 l 2,13,14
EndSplineSet
EndChar

StartChar: Thorn
Encoding: 222 222 93
Width: 547
GlyphClass: 1
Flags: W
LayerCount: 2
Fore
SplineSet
324 555 m 2,0,1
 378 555 378 555 424 528.5 c 128,-1,2
 470 502 470 502 497.5 457 c 128,-1,3
 525 412 525 412 525 359 c 256,4,5
 525 306 525 306 498 260.5 c 128,-1,6
 471 215 471 215 424.5 188.5 c 128,-1,7
 378 162 378 162 324 162 c 2,8,-1
 169 162 l 1,9,-1
 169 0 l 1,10,-1
 75 0 l 1,11,-1
 75 680 l 1,12,-1
 169 680 l 1,13,-1
 169 555 l 1,14,-1
 324 555 l 2,0,1
304 248 m 2,15,16
 366 248 366 248 397.5 280.5 c 128,-1,17
 429 313 429 313 429 359 c 0,18,19
 429 404 429 404 398 436.5 c 128,-1,20
 367 469 367 469 307 469 c 2,21,-1
 169 469 l 1,22,-1
 169 248 l 1,23,-1
 304 248 l 2,15,16
EndSplineSet
EndChar

StartChar: Q
Encoding: 81 81 94
Width: 772
GlyphClass: 2
Flags: W
AnchorPoint: "Anchor-4" 386 680 basechar 0
AnchorPoint: "Anchor-3" 429 0 basechar 0
AnchorPoint: "Anchor-2" 386 0 basechar 0
LayerCount: 2
Fore
SplineSet
705.5 202.5 m 128,-1,1
 679 138 679 138 632 91 c 1,2,-1
 723 0 l 1,3,-1
 608 0 l 1,4,-1
 568 40 l 1,5,6
 485 -10 485 -10 386 -10 c 0,7,8
 290 -10 290 -10 210.5 36.5 c 128,-1,9
 131 83 131 83 85.5 163 c 128,-1,10
 40 243 40 243 40 340 c 256,11,12
 40 437 40 437 85.5 517 c 128,-1,13
 131 597 131 597 210.5 643.5 c 128,-1,14
 290 690 290 690 386 690 c 256,15,16
 482 690 482 690 561.5 643.5 c 128,-1,17
 641 597 641 597 686.5 517 c 128,-1,18
 732 437 732 437 732 340 c 0,19,0
 732 267 732 267 705.5 202.5 c 128,-1,1
169 207 m 128,-1,21
 202 147 202 147 259.5 112.5 c 128,-1,22
 317 78 317 78 386 78 c 0,23,24
 444 78 444 78 496 103 c 1,25,-1
 328 268 l 1,26,-1
 443 268 l 1,27,-1
 562 151 l 1,28,29
 597 187 597 187 616.5 236 c 128,-1,30
 636 285 636 285 636 340 c 0,31,32
 636 413 636 413 603 473 c 128,-1,33
 570 533 570 533 512.5 567.5 c 128,-1,34
 455 602 455 602 386 602 c 256,35,36
 317 602 317 602 259.5 567.5 c 128,-1,37
 202 533 202 533 169 473 c 128,-1,38
 136 413 136 413 136 340 c 256,39,20
 136 267 136 267 169 207 c 128,-1,21
EndSplineSet
EndChar

StartChar: R
Encoding: 82 82 95
Width: 595
GlyphClass: 2
Flags: W
AnchorPoint: "Anchor-4" 276 680 basechar 0
AnchorPoint: "Anchor-2" 288 0 basechar 0
LayerCount: 2
Fore
SplineSet
451 0 m 1,0,-1
 170 291 l 1,1,-1
 169 291 l 1,2,-1
 169 0 l 1,3,-1
 75 0 l 1,4,-1
 75 680 l 1,5,-1
 344 680 l 2,6,7
 403 680 403 680 451 653.5 c 128,-1,8
 499 627 499 627 527 582 c 128,-1,9
 555 537 555 537 555 484 c 0,10,11
 555 432 555 432 527 387.5 c 128,-1,12
 499 343 499 343 451 317 c 128,-1,13
 403 291 403 291 344 291 c 2,14,-1
 284 291 l 1,15,-1
 284 289 l 1,16,17
 296 283 296 283 304 275 c 2,18,-1
 581 0 l 1,19,-1
 451 0 l 1,0,-1
169 594 m 1,20,-1
 169 373 l 1,21,-1
 324 373 l 2,22,23
 392 373 392 373 425.5 405.5 c 128,-1,24
 459 438 459 438 459 484 c 0,25,26
 459 529 459 529 426 561.5 c 128,-1,27
 393 594 393 594 327 594 c 2,28,-1
 169 594 l 1,20,-1
EndSplineSet
EndChar

StartChar: S
Encoding: 83 83 99
Width: 553
GlyphClass: 2
Flags: W
AnchorPoint: "Anchor-4" 279 680 basechar 0
AnchorPoint: "Anchor-2" 287 0 basechar 0
LayerCount: 2
Fore
SplineSet
158 21 m 128,-1,1
 102 52 102 52 73 102 c 128,-1,2
 44 152 44 152 42 207 c 1,3,-1
 139 207 l 1,4,5
 146 143 146 143 186.5 109.5 c 128,-1,6
 227 76 227 76 292 76 c 0,7,8
 354 76 354 76 390 103.5 c 128,-1,9
 426 131 426 131 426 176 c 0,10,11
 426 209 426 209 405 231.5 c 128,-1,12
 384 254 384 254 352.5 268 c 128,-1,13
 321 282 321 282 266 301 c 0,14,15
 196 325 196 325 154 345.5 c 128,-1,16
 112 366 112 366 82 404 c 128,-1,17
 52 442 52 442 52 501 c 0,18,19
 52 557 52 557 81 600 c 128,-1,20
 110 643 110 643 161.5 666.5 c 128,-1,21
 213 690 213 690 278 690 c 0,22,23
 350 690 350 690 402 659 c 128,-1,24
 454 628 454 628 481.5 578.5 c 128,-1,25
 509 529 509 529 512 473 c 1,26,-1
 415 473 l 1,27,28
 411 532 411 532 373.5 568 c 128,-1,29
 336 604 336 604 278 604 c 0,30,31
 218 604 218 604 182.5 575 c 128,-1,32
 147 546 147 546 147 501 c 0,33,34
 147 469 147 469 167.5 447.5 c 128,-1,35
 188 426 188 426 218 413 c 128,-1,36
 248 400 248 400 302 382 c 0,37,38
 372 359 372 359 415.5 338 c 128,-1,39
 459 317 459 317 490 277.5 c 128,-1,40
 521 238 521 238 521 176 c 0,41,42
 521 122 521 122 492 79.5 c 128,-1,43
 463 37 463 37 411 13.5 c 128,-1,44
 359 -10 359 -10 292 -10 c 0,45,0
 214 -10 214 -10 158 21 c 128,-1,1
EndSplineSet
EndChar

StartChar: T
Encoding: 84 84 106
Width: 540
GlyphClass: 2
Flags: W
AnchorPoint: "Anchor-4" 270 680 basechar 0
AnchorPoint: "Anchor-2" 270 0 basechar 0
LayerCount: 2
Fore
SplineSet
13 680 m 1,0,-1
 527 680 l 1,1,-1
 527 594 l 1,2,-1
 317 594 l 1,3,-1
 317 0 l 1,4,-1
 223 0 l 1,5,-1
 223 594 l 1,6,-1
 13 594 l 1,7,-1
 13 680 l 1,0,-1
EndSplineSet
EndChar

StartChar: Tbar
Encoding: 358 358 107
Width: 540
GlyphClass: 2
Flags: W
AnchorPoint: "Anchor-4" 270 680 basechar 0
AnchorPoint: "Anchor-2" 270 0 basechar 0
LayerCount: 2
Fore
SplineSet
527 680 m 1,0,-1
 527 594 l 1,1,-1
 317 594 l 1,2,-1
 317 400 l 1,3,-1
 519 400 l 1,4,-1
 519 316 l 1,5,-1
 317 316 l 1,6,-1
 317 0 l 1,7,-1
 223 0 l 1,8,-1
 223 316 l 1,9,-1
 21 316 l 1,10,-1
 21 400 l 1,11,-1
 223 400 l 1,12,-1
 223 594 l 1,13,-1
 13 594 l 1,14,-1
 13 680 l 1,15,-1
 527 680 l 1,0,-1
EndSplineSet
EndChar

StartChar: U
Encoding: 85 85 112
Width: 652
GlyphClass: 2
Flags: W
AnchorPoint: "Anchor-4" 326 680 basechar 0
AnchorPoint: "Anchor-3" 364 0 basechar 0
AnchorPoint: "Anchor-2" 326 0 basechar 0
LayerCount: 2
Fore
SplineSet
191 26.5 m 128,-1,1
 131 63 131 63 97.5 125.5 c 128,-1,2
 64 188 64 188 64 263 c 2,3,-1
 64 680 l 1,4,-1
 158 680 l 1,5,-1
 158 274 l 2,6,7
 158 179 158 179 204 128 c 128,-1,8
 250 77 250 77 326 77 c 256,9,10
 402 77 402 77 448 128 c 128,-1,11
 494 179 494 179 494 274 c 2,12,-1
 494 680 l 1,13,-1
 588 680 l 1,14,-1
 588 263 l 2,15,16
 588 188 588 188 554.5 125.5 c 128,-1,17
 521 63 521 63 461 26.5 c 128,-1,18
 401 -10 401 -10 326 -10 c 256,19,0
 251 -10 251 -10 191 26.5 c 128,-1,1
EndSplineSet
EndChar

StartChar: Uogonek
Encoding: 370 370 124
Width: 652
GlyphClass: 2
Flags: W
AnchorPoint: "Anchor-4" 326 680 basechar 0
AnchorPoint: "Anchor-3" 364 0 basechar 0
AnchorPoint: "Anchor-2" 326 0 basechar 0
LayerCount: 2
Fore
SplineSet
494 680 m 1,0,-1
 588 680 l 1,1,-1
 588 263 l 2,2,3
 588 192 588 192 558 132.5 c 128,-1,4
 528 73 528 73 474.5 35 c 128,-1,5
 421 -3 421 -3 352 -9 c 1,6,7
 303 -50 303 -50 303 -89 c 0,8,9
 303 -114 303 -114 318.5 -125 c 128,-1,10
 334 -136 334 -136 359 -136 c 0,11,12
 388 -136 388 -136 409 -129 c 1,13,-1
 409 -183 l 1,14,15
 377 -198 377 -198 338 -198 c 0,16,17
 298 -198 298 -198 267.5 -176 c 128,-1,18
 237 -154 237 -154 237 -116 c 0,19,20
 237 -85 237 -85 255 -57 c 128,-1,21
 273 -29 273 -29 302 -9 c 1,22,23
 233 -3 233 -3 178.5 34.5 c 128,-1,24
 124 72 124 72 94 132 c 128,-1,25
 64 192 64 192 64 263 c 2,26,-1
 64 680 l 1,27,-1
 158 680 l 1,28,-1
 158 274 l 2,29,30
 158 179 158 179 204 128 c 128,-1,31
 250 77 250 77 326 77 c 256,32,33
 402 77 402 77 448 128 c 128,-1,34
 494 179 494 179 494 274 c 2,35,-1
 494 680 l 1,0,-1
EndSplineSet
EndChar

StartChar: V
Encoding: 86 86 126
Width: 640
GlyphClass: 1
Flags: W
LayerCount: 2
Fore
SplineSet
272 0 m 1,0,-1
 12 680 l 1,1,-1
 117 680 l 1,2,-1
 308 152 l 2,3,4
 316 130 316 130 319 113 c 1,5,-1
 321 113 l 1,6,7
 324 130 324 130 332 152 c 2,8,-1
 523 680 l 1,9,-1
 628 680 l 1,10,-1
 368 0 l 1,11,-1
 272 0 l 1,0,-1
EndSplineSet
EndChar

StartChar: W
Encoding: 87 87 127
Width: 926
GlyphClass: 2
Flags: W
AnchorPoint: "Anchor-4" 463 680 basechar 0
AnchorPoint: "Anchor-2" 463 0 basechar 0
LayerCount: 2
Fore
SplineSet
225 0 m 1,0,-1
 12 680 l 1,1,-1
 112 680 l 1,2,-1
 250 203 l 2,3,4
 260 167 260 167 269 115 c 1,5,-1
 271 115 l 1,6,7
 278 160 278 160 289 203 c 2,8,-1
 412 680 l 1,9,-1
 514 680 l 1,10,-1
 637 203 l 2,11,12
 648 160 648 160 655 115 c 1,13,-1
 657 115 l 1,14,15
 666 167 666 167 676 203 c 2,16,-1
 814 680 l 1,17,-1
 914 680 l 1,18,-1
 701 0 l 1,19,-1
 611 0 l 1,20,-1
 477 511 l 2,21,22
 468 543 468 543 464 585 c 1,23,-1
 462 585 l 1,24,25
 458 543 458 543 449 511 c 2,26,-1
 315 0 l 1,27,-1
 225 0 l 1,0,-1
EndSplineSet
EndChar

StartChar: X
Encoding: 88 88 132
Width: 617
GlyphClass: 1
Flags: W
LayerCount: 2
Fore
SplineSet
495 680 m 1,0,-1
 609 680 l 1,1,-1
 366 346 l 1,2,-1
 609 0 l 1,3,-1
 495 0 l 1,4,-1
 311 276 l 1,5,-1
 126 0 l 1,6,-1
 12 0 l 1,7,-1
 255 346 l 1,8,-1
 12 680 l 1,9,-1
 126 680 l 1,10,-1
 311 413 l 1,11,-1
 495 680 l 1,0,-1
EndSplineSet
EndChar

StartChar: Y
Encoding: 89 89 133
Width: 579
GlyphClass: 2
Flags: W
AnchorPoint: "Anchor-4" 289 680 basechar 0
AnchorPoint: "Anchor-2" 289 0 basechar 0
LayerCount: 2
Fore
SplineSet
567 680 m 1,0,-1
 336 280 l 1,1,-1
 336 0 l 1,2,-1
 242 0 l 1,3,-1
 242 280 l 1,4,-1
 12 680 l 1,5,-1
 118 680 l 1,6,-1
 257 427 l 2,7,8
 279 387 279 387 288 360 c 1,9,-1
 290 360 l 1,10,11
 299 387 299 387 321 427 c 2,12,-1
 460 680 l 1,13,-1
 567 680 l 1,0,-1
EndSplineSet
EndChar

StartChar: Z
Encoding: 90 90 138
Width: 591
GlyphClass: 2
Flags: W
AnchorPoint: "Anchor-4" 297 680 basechar 0
AnchorPoint: "Anchor-2" 297 0 basechar 0
LayerCount: 2
Fore
SplineSet
36 0 m 1,0,-1
 36 78 l 1,1,-1
 430 592 l 1,2,-1
 429 594 l 1,3,4
 409 592 409 592 372 592 c 2,5,-1
 42 592 l 1,6,-1
 42 680 l 1,7,-1
 552 680 l 1,8,-1
 552 602 l 1,9,-1
 160 88 l 1,10,-1
 161 86 l 1,11,12
 181 88 181 88 224 88 c 2,13,-1
 555 88 l 1,14,-1
 555 0 l 1,15,-1
 36 0 l 1,0,-1
EndSplineSet
EndChar

StartChar: a
Encoding: 97 97 143
Width: 580
GlyphClass: 2
Flags: W
AnchorPoint: "Anchor-4" 279 468 basechar 0
AnchorPoint: "Anchor-3" 509 0 basechar 0
AnchorPoint: "Anchor-2" 279 0 basechar 0
LayerCount: 2
Fore
SplineSet
428 468 m 1,0,-1
 509 468 l 1,1,-1
 509 0 l 1,2,-1
 428 0 l 1,3,-1
 420 72 l 1,4,5
 394 33 394 33 350.5 11.5 c 128,-1,6
 307 -10 307 -10 257 -10 c 0,7,8
 196 -10 196 -10 144.5 19 c 128,-1,9
 93 48 93 48 61.5 103.5 c 128,-1,10
 30 159 30 159 30 234 c 256,11,12
 30 309 30 309 61.5 364.5 c 128,-1,13
 93 420 93 420 144.5 449 c 128,-1,14
 196 478 196 478 257 478 c 0,15,16
 307 478 307 478 350.5 456.5 c 128,-1,17
 394 435 394 435 420 396 c 1,18,-1
 428 468 l 1,0,-1
345 93.5 m 128,-1,20
 379 113 379 113 399.5 149.5 c 128,-1,21
 420 186 420 186 420 234 c 256,22,23
 420 282 420 282 399.5 318.5 c 128,-1,24
 379 355 379 355 345 374.5 c 128,-1,25
 311 394 311 394 272 394 c 0,26,27
 232 394 232 394 198 375 c 128,-1,28
 164 356 164 356 143 319.5 c 128,-1,29
 122 283 122 283 122 234 c 256,30,31
 122 185 122 185 143 148.5 c 128,-1,32
 164 112 164 112 198 93 c 128,-1,33
 232 74 232 74 272 74 c 0,34,19
 311 74 311 74 345 93.5 c 128,-1,20
EndSplineSet
Substitution2: "Single Substitution lookup 38 subtable" ordfeminine
Substitution2: "'ss04' Style Set 4 in Latin lookup 22 subtable" a.ss04
Substitution2: "'ss01' Style Set 1 in Latin lookup 19 subtable" a.ss01
Substitution2: "'salt' Stylistic Alternatives in Latin lookup 17 subtable" a.ss01
AlternateSubs2: "'aalt' Access All Alternates in Latin lookup 1 subtable" ordfeminine a.ss01 a.ss04
EndChar

StartChar: a.ss01
Encoding: 65538 -1 144
Width: 548
GlyphClass: 2
Flags: W
AnchorPoint: "Anchor-4" 267 468 basechar 0
AnchorPoint: "Anchor-3" 465 0 basechar 0
AnchorPoint: "Anchor-2" 255 0 basechar 0
LayerCount: 2
Fore
SplineSet
382.5 449 m 128,-1,1
 436 420 436 420 468 364.5 c 128,-1,2
 500 309 500 309 500 234 c 2,3,-1
 500 0 l 1,4,-1
 419 0 l 1,5,-1
 411 73 l 1,6,7
 385 34 385 34 342 12 c 128,-1,8
 299 -10 299 -10 255 -10 c 0,9,10
 192 -10 192 -10 140.5 21.5 c 128,-1,11
 89 53 89 53 59.5 108.5 c 128,-1,12
 30 164 30 164 30 234 c 0,13,14
 30 303 30 303 61.5 358.5 c 128,-1,15
 93 414 93 414 147 446 c 128,-1,16
 201 478 201 478 267 478 c 0,17,0
 329 478 329 478 382.5 449 c 128,-1,1
336 93.5 m 128,-1,19
 368 113 368 113 388 149.5 c 128,-1,20
 408 186 408 186 408 234 c 0,21,22
 408 284 408 284 388.5 320 c 128,-1,23
 369 356 369 356 336.5 375 c 128,-1,24
 304 394 304 394 267 394 c 0,25,26
 227 394 227 394 194 374 c 128,-1,27
 161 354 161 354 141.5 317.5 c 128,-1,28
 122 281 122 281 122 234 c 0,29,30
 122 162 122 162 162.5 118 c 128,-1,31
 203 74 203 74 267 74 c 0,32,18
 304 74 304 74 336 93.5 c 128,-1,19
EndSplineSet
EndChar

StartChar: aogonek
Encoding: 261 261 170
Width: 584
GlyphClass: 1
Flags: W
LayerCount: 2
Fore
SplineSet
520 -129 m 1,1,-1
 520 -183 l 1,2,3
 488 -198 488 -198 449 -198 c 0,4,5
 409 -198 409 -198 378.5 -176 c 128,-1,6
 348 -154 348 -154 348 -116 c 0,7,8
 348 -80 348 -80 371.5 -49.5 c 128,-1,9
 395 -19 395 -19 428 0 c 1,10,-1
 420 72 l 1,11,12
 394 33 394 33 350.5 11.5 c 128,-1,13
 307 -10 307 -10 257 -10 c 0,14,15
 196 -10 196 -10 144.5 19 c 128,-1,16
 93 48 93 48 61.5 103.5 c 128,-1,17
 30 159 30 159 30 234 c 256,18,19
 30 309 30 309 61.5 364.5 c 128,-1,20
 93 420 93 420 144.5 449 c 128,-1,21
 196 478 196 478 257 478 c 0,22,23
 307 478 307 478 350.5 456.5 c 128,-1,24
 394 435 394 435 420 396 c 1,25,-1
 428 468 l 1,26,-1
 509 468 l 1,27,-1
 509 0 l 1,28,-1
 500 -1 l 2,29,30
 482 -3 482 -3 461.5 -15.5 c 128,-1,31
 441 -28 441 -28 427.5 -47 c 128,-1,32
 414 -66 414 -66 414 -89 c 0,33,34
 414 -114 414 -114 429.5 -125 c 128,-1,35
 445 -136 445 -136 470 -136 c 0,36,0
 499 -136 499 -136 520 -129 c 1,1,-1
345 93.5 m 128,-1,38
 379 113 379 113 399.5 149.5 c 128,-1,39
 420 186 420 186 420 234 c 256,40,41
 420 282 420 282 399.5 318.5 c 128,-1,42
 379 355 379 355 345 374.5 c 128,-1,43
 311 394 311 394 272 394 c 0,44,45
 232 394 232 394 198 375 c 128,-1,46
 164 356 164 356 143 319.5 c 128,-1,47
 122 283 122 283 122 234 c 256,48,49
 122 185 122 185 143 148.5 c 128,-1,50
 164 112 164 112 198 93 c 128,-1,51
 232 74 232 74 272 74 c 0,52,37
 311 74 311 74 345 93.5 c 128,-1,38
EndSplineSet
Substitution2: "'ss04' Style Set 4 in Latin lookup 22 subtable" aogonek.ss04
Substitution2: "'ss01' Style Set 1 in Latin lookup 19 subtable" aogonek.ss01
Substitution2: "'salt' Stylistic Alternatives in Latin lookup 17 subtable" aogonek.ss01
AlternateSubs2: "'aalt' Access All Alternates in Latin lookup 1 subtable" aogonek.ss01 aogonek.ss04
EndChar

StartChar: aogonek.ss01
Encoding: 65556 -1 171
Width: 548
GlyphClass: 1
Flags: W
LayerCount: 2
Fore
SplineSet
511 -129 m 1,1,-1
 511 -183 l 1,2,3
 479 -198 479 -198 440 -198 c 0,4,5
 400 -198 400 -198 369.5 -176 c 128,-1,6
 339 -154 339 -154 339 -116 c 0,7,8
 339 -81 339 -81 362.5 -49.5 c 128,-1,9
 386 -18 386 -18 420 2 c 1,10,-1
 411 74 l 1,11,12
 386 34 386 34 343 12 c 128,-1,13
 300 -10 300 -10 255 -10 c 0,14,15
 192 -10 192 -10 140.5 21.5 c 128,-1,16
 89 53 89 53 59.5 108.5 c 128,-1,17
 30 164 30 164 30 234 c 0,18,19
 30 303 30 303 61.5 358.5 c 128,-1,20
 93 414 93 414 147 446 c 128,-1,21
 201 478 201 478 267 478 c 0,22,23
 329 478 329 478 382.5 449 c 128,-1,24
 436 420 436 420 468 364.5 c 128,-1,25
 500 309 500 309 500 234 c 2,26,-1
 500 0 l 1,27,-1
 491 -1 l 2,28,29
 473 -3 473 -3 452.5 -15.5 c 128,-1,30
 432 -28 432 -28 418.5 -47 c 128,-1,31
 405 -66 405 -66 405 -89 c 0,32,33
 405 -114 405 -114 420.5 -125 c 128,-1,34
 436 -136 436 -136 461 -136 c 0,35,0
 490 -136 490 -136 511 -129 c 1,1,-1
336 93.5 m 128,-1,37
 368 113 368 113 388 149.5 c 128,-1,38
 408 186 408 186 408 234 c 0,39,40
 408 284 408 284 388.5 320 c 128,-1,41
 369 356 369 356 336.5 375 c 128,-1,42
 304 394 304 394 267 394 c 0,43,44
 227 394 227 394 194 374 c 128,-1,45
 161 354 161 354 141.5 317.5 c 128,-1,46
 122 281 122 281 122 234 c 0,47,48
 122 162 122 162 162.5 118 c 128,-1,49
 203 74 203 74 267 74 c 0,50,36
 304 74 304 74 336 93.5 c 128,-1,37
EndSplineSet
EndChar

StartChar: ae
Encoding: 230 230 179
Width: 894
GlyphClass: 1
Flags: W
LayerCount: 2
Fore
SplineSet
862 198 m 1,1,-1
 499 198 l 1,2,3
 509 142 509 142 548.5 108 c 128,-1,4
 588 74 588 74 640 74 c 0,5,6
 727 74 727 74 758 140 c 1,7,-1
 852 140 l 1,8,9
 830 72 830 72 773 31 c 128,-1,10
 716 -10 716 -10 640 -10 c 0,11,12
 556 -10 556 -10 496 52 c 1,13,-1
 496 0 l 1,14,-1
 419 0 l 1,15,-1
 411 73 l 1,16,17
 385 34 385 34 342 12 c 128,-1,18
 299 -10 299 -10 255 -10 c 0,19,20
 192 -10 192 -10 140.5 21.5 c 128,-1,21
 89 53 89 53 59.5 108.5 c 128,-1,22
 30 164 30 164 30 234 c 0,23,24
 30 303 30 303 61.5 358.5 c 128,-1,25
 93 414 93 414 147 446 c 128,-1,26
 201 478 201 478 267 478 c 0,27,28
 323 478 323 478 372 454 c 128,-1,29
 421 430 421 430 452 385 c 1,30,31
 483 429 483 429 532 453.5 c 128,-1,32
 581 478 581 478 640 478 c 0,33,34
 701 478 701 478 752.5 446 c 128,-1,35
 804 414 804 414 834 358 c 128,-1,36
 864 302 864 302 864 234 c 0,37,0
 864 212 864 212 862 198 c 1,1,-1
336 93.5 m 128,-1,39
 368 113 368 113 388 149.5 c 128,-1,40
 408 186 408 186 408 234 c 0,41,42
 408 284 408 284 388.5 320 c 128,-1,43
 369 356 369 356 336.5 375 c 128,-1,44
 304 394 304 394 267 394 c 0,45,46
 227 394 227 394 194 374 c 128,-1,47
 161 354 161 354 141.5 317.5 c 128,-1,48
 122 281 122 281 122 234 c 0,49,50
 122 162 122 162 162.5 118 c 128,-1,51
 203 74 203 74 267 74 c 0,52,38
 304 74 304 74 336 93.5 c 128,-1,39
548.5 361.5 m 128,-1,54
 511 329 511 329 500 274 c 1,55,-1
 769 274 l 1,56,57
 764 323 764 323 728 358.5 c 128,-1,58
 692 394 692 394 640 394 c 0,59,53
 586 394 586 394 548.5 361.5 c 128,-1,54
EndSplineSet
EndChar

StartChar: b
Encoding: 98 98 180
Width: 580
GlyphClass: 2
Flags: W
AnchorPoint: "Anchor-4" 290 680 basechar 0
AnchorPoint: "Anchor-2" 325 0 basechar 0
LayerCount: 2
Fore
SplineSet
436.5 449 m 128,-1,1
 488 420 488 420 519 364.5 c 128,-1,2
 550 309 550 309 550 234 c 256,3,4
 550 159 550 159 519 103.5 c 128,-1,5
 488 48 488 48 436.5 19 c 128,-1,6
 385 -10 385 -10 325 -10 c 0,7,8
 274 -10 274 -10 231.5 11 c 128,-1,9
 189 32 189 32 164 71 c 1,10,-1
 156 0 l 1,11,-1
 75 0 l 1,12,-1
 75 680 l 1,13,-1
 167 680 l 1,14,-1
 167 402 l 1,15,16
 192 439 192 439 233.5 458.5 c 128,-1,17
 275 478 275 478 325 478 c 0,18,0
 385 478 385 478 436.5 449 c 128,-1,1
385.5 93 m 128,-1,20
 419 112 419 112 438.5 148.5 c 128,-1,21
 458 185 458 185 458 234 c 256,22,23
 458 283 458 283 438.5 319.5 c 128,-1,24
 419 356 419 356 385.5 375 c 128,-1,25
 352 394 352 394 312 394 c 0,26,27
 273 394 273 394 239 374.5 c 128,-1,28
 205 355 205 355 184.5 318.5 c 128,-1,29
 164 282 164 282 164 234 c 256,30,31
 164 186 164 186 184.5 149.5 c 128,-1,32
 205 113 205 113 239 93.5 c 128,-1,33
 273 74 273 74 312 74 c 0,34,19
 352 74 352 74 385.5 93 c 128,-1,20
EndSplineSet
Substitution2: "'ss05' Style Set 5 in Latin lookup 23 subtable" b.ss05
Substitution2: "'ss01' Style Set 1 in Latin lookup 19 subtable" b.ss01
Substitution2: "'salt' Stylistic Alternatives in Latin lookup 17 subtable" b.ss01
AlternateSubs2: "'aalt' Access All Alternates in Latin lookup 1 subtable" b.ss01 b.ss05
EndChar

StartChar: b.ss01
Encoding: 65562 -1 181
Width: 546
GlyphClass: 2
Flags: W
AnchorPoint: "Anchor-4" 326 680 basechar 0
AnchorPoint: "Anchor-2" 280 0 basechar 0
LayerCount: 2
Fore
SplineSet
408.5 446.5 m 128,-1,1
 458 415 458 415 487 359 c 128,-1,2
 516 303 516 303 516 234 c 256,3,4
 516 165 516 165 484.5 109.5 c 128,-1,5
 453 54 453 54 399 22 c 128,-1,6
 345 -10 345 -10 280 -10 c 0,7,8
 218 -10 218 -10 165 19 c 128,-1,9
 112 48 112 48 80 103.5 c 128,-1,10
 48 159 48 159 48 234 c 2,11,-1
 48 680 l 1,12,-1
 140 680 l 1,13,-1
 140 397 l 1,14,15
 167 435 167 435 212 456.5 c 128,-1,16
 257 478 257 478 300 478 c 0,17,0
 359 478 359 478 408.5 446.5 c 128,-1,1
352 94 m 128,-1,19
 385 114 385 114 404.5 150.5 c 128,-1,20
 424 187 424 187 424 234 c 0,21,22
 424 305 424 305 384.5 349.5 c 128,-1,23
 345 394 345 394 284 394 c 0,24,25
 246 394 246 394 213 374.5 c 128,-1,26
 180 355 180 355 160 318.5 c 128,-1,27
 140 282 140 282 140 234 c 0,28,29
 140 185 140 185 159.5 148.5 c 128,-1,30
 179 112 179 112 211 93 c 128,-1,31
 243 74 243 74 280 74 c 0,32,18
 319 74 319 74 352 94 c 128,-1,19
EndSplineSet
EndChar

StartChar: c
Encoding: 99 99 186
Width: 522
GlyphClass: 2
Flags: W
AnchorPoint: "Anchor-4" 270 468 basechar 0
AnchorPoint: "Anchor-2" 270 0 basechar 0
LayerCount: 2
Fore
SplineSet
147.5 21 m 128,-1,1
 93 52 93 52 61.5 107.5 c 128,-1,2
 30 163 30 163 30 234 c 256,3,4
 30 305 30 305 61.5 360.5 c 128,-1,5
 93 416 93 416 147.5 447 c 128,-1,6
 202 478 202 478 270 478 c 0,7,8
 355 478 355 478 415 430 c 128,-1,9
 475 382 475 382 492 308 c 1,10,-1
 397 308 l 1,11,12
 380 348 380 348 347.5 371 c 128,-1,13
 315 394 315 394 270 394 c 0,14,15
 228 394 228 394 194.5 373.5 c 128,-1,16
 161 353 161 353 141.5 316.5 c 128,-1,17
 122 280 122 280 122 234 c 256,18,19
 122 188 122 188 141.5 151.5 c 128,-1,20
 161 115 161 115 194.5 94.5 c 128,-1,21
 228 74 228 74 270 74 c 0,22,23
 314 74 314 74 346.5 97 c 128,-1,24
 379 120 379 120 397 160 c 1,25,-1
 492 160 l 1,26,27
 475 86 475 86 415 38 c 128,-1,28
 355 -10 355 -10 270 -10 c 0,29,0
 202 -10 202 -10 147.5 21 c 128,-1,1
EndSplineSet
EndChar

StartChar: d
Encoding: 100 100 191
Width: 580
GlyphClass: 2
Flags: W
AnchorPoint: "Anchor-4" 275 630 basechar 0
AnchorPoint: "Anchor-2" 285 0 basechar 0
LayerCount: 2
Fore
SplineSet
413 680 m 1,0,-1
 505 680 l 1,1,-1
 505 0 l 1,2,-1
 424 0 l 1,3,-1
 416 71 l 1,4,5
 391 32 391 32 348.5 11 c 128,-1,6
 306 -10 306 -10 255 -10 c 0,7,8
 195 -10 195 -10 143.5 19 c 128,-1,9
 92 48 92 48 61 103.5 c 128,-1,10
 30 159 30 159 30 234 c 256,11,12
 30 309 30 309 61 364.5 c 128,-1,13
 92 420 92 420 143.5 449 c 128,-1,14
 195 478 195 478 255 478 c 0,15,16
 305 478 305 478 346.5 458.5 c 128,-1,17
 388 439 388 439 413 402 c 1,18,-1
 413 680 l 1,0,-1
341 93.5 m 128,-1,20
 375 113 375 113 395.5 149.5 c 128,-1,21
 416 186 416 186 416 234 c 256,22,23
 416 282 416 282 395.5 318.5 c 128,-1,24
 375 355 375 355 341 374.5 c 128,-1,25
 307 394 307 394 268 394 c 0,26,27
 228 394 228 394 194.5 375 c 128,-1,28
 161 356 161 356 141.5 319.5 c 128,-1,29
 122 283 122 283 122 234 c 256,30,31
 122 185 122 185 141.5 148.5 c 128,-1,32
 161 112 161 112 194.5 93 c 128,-1,33
 228 74 228 74 268 74 c 0,34,19
 307 74 307 74 341 93.5 c 128,-1,20
EndSplineSet
Substitution2: "'ss06' Style Set 6 in Latin lookup 24 subtable" d.ss06
Substitution2: "'ss01' Style Set 1 in Latin lookup 19 subtable" d.ss01
Substitution2: "'salt' Stylistic Alternatives in Latin lookup 17 subtable" d.ss01
AlternateSubs2: "'aalt' Access All Alternates in Latin lookup 1 subtable" d.ss01 d.ss06
EndChar

StartChar: d.ss01
Encoding: 65566 -1 192
Width: 558
GlyphClass: 2
Flags: W
AnchorPoint: "Anchor-4" 282 630 basechar 0
AnchorPoint: "Anchor-2" 266 0 basechar 0
LayerCount: 2
Fore
SplineSet
406 680 m 1,0,-1
 498 680 l 1,1,-1
 498 234 l 2,2,3
 498 159 498 159 466 103.5 c 128,-1,4
 434 48 434 48 381 19 c 128,-1,5
 328 -10 328 -10 266 -10 c 0,6,7
 201 -10 201 -10 147 22 c 128,-1,8
 93 54 93 54 61.5 109.5 c 128,-1,9
 30 165 30 165 30 234 c 256,10,11
 30 303 30 303 59 359 c 128,-1,12
 88 415 88 415 137.5 446.5 c 128,-1,13
 187 478 187 478 246 478 c 0,14,15
 289 478 289 478 334 456.5 c 128,-1,16
 379 435 379 435 406 397 c 1,17,-1
 406 680 l 1,0,-1
335 93 m 128,-1,19
 367 112 367 112 386.5 148.5 c 128,-1,20
 406 185 406 185 406 234 c 0,21,22
 406 282 406 282 386 318.5 c 128,-1,23
 366 355 366 355 333 374.5 c 128,-1,24
 300 394 300 394 262 394 c 0,25,26
 201 394 201 394 161.5 349.5 c 128,-1,27
 122 305 122 305 122 234 c 0,28,29
 122 187 122 187 141.5 150.5 c 128,-1,30
 161 114 161 114 194 94 c 128,-1,31
 227 74 227 74 266 74 c 0,32,18
 303 74 303 74 335 93 c 128,-1,19
EndSplineSet
EndChar

StartChar: eth
Encoding: 240 240 194
Width: 544
GlyphClass: 1
Flags: W
LayerCount: 2
Fore
SplineSet
375 535 m 1,0,1
 514 384 514 384 514 246 c 0,2,3
 514 164 514 164 482 106.5 c 128,-1,4
 450 49 450 49 395 19.5 c 128,-1,5
 340 -10 340 -10 270 -10 c 0,6,7
 203 -10 203 -10 148 21 c 128,-1,8
 93 52 93 52 61.5 106.5 c 128,-1,9
 30 161 30 161 30 228 c 0,10,11
 30 299 30 299 62 353 c 128,-1,12
 94 407 94 407 146.5 435.5 c 128,-1,13
 199 464 199 464 260 464 c 0,14,15
 304 464 304 464 347 445 c 1,16,17
 314 487 314 487 267 532 c 1,18,-1
 101 532 l 1,19,-1
 101 605 l 1,20,-1
 189 605 l 1,21,-1
 108 680 l 1,22,-1
 228 680 l 1,23,-1
 300 610 l 1,24,-1
 440 610 l 1,25,-1
 440 535 l 1,26,-1
 375 535 l 1,0,1
346 94.5 m 128,-1,28
 381 115 381 115 401 150 c 128,-1,29
 421 185 421 185 421 228 c 0,30,31
 421 274 421 274 402 309 c 128,-1,32
 383 344 383 344 350.5 363 c 128,-1,33
 318 382 318 382 278 382 c 0,34,35
 237 382 237 382 201 363.5 c 128,-1,36
 165 345 165 345 143.5 310.5 c 128,-1,37
 122 276 122 276 122 228 c 0,38,39
 122 185 122 185 141 149.5 c 128,-1,40
 160 114 160 114 194 94 c 128,-1,41
 228 74 228 74 270 74 c 0,42,27
 311 74 311 74 346 94.5 c 128,-1,28
EndSplineSet
EndChar

StartChar: dcroat
Encoding: 273 273 198
Width: 589
GlyphClass: 2
Flags: W
AnchorPoint: "Anchor-4" 275 630 basechar 0
AnchorPoint: "Anchor-2" 285 0 basechar 0
LayerCount: 2
Fore
SplineSet
579 608 m 1,0,-1
 579 532 l 1,1,-1
 505 532 l 1,2,-1
 505 0 l 1,3,-1
 424 0 l 1,4,-1
 416 71 l 1,5,6
 391 32 391 32 348.5 11 c 128,-1,7
 306 -10 306 -10 255 -10 c 0,8,9
 195 -10 195 -10 143.5 19 c 128,-1,10
 92 48 92 48 61 103.5 c 128,-1,11
 30 159 30 159 30 234 c 256,12,13
 30 309 30 309 61 364.5 c 128,-1,14
 92 420 92 420 143.5 449 c 128,-1,15
 195 478 195 478 255 478 c 0,16,17
 305 478 305 478 346.5 458.5 c 128,-1,18
 388 439 388 439 413 402 c 1,19,-1
 413 532 l 1,20,-1
 335 532 l 1,21,-1
 335 608 l 1,22,-1
 413 608 l 1,23,-1
 413 680 l 1,24,-1
 505 680 l 1,25,-1
 505 608 l 1,26,-1
 579 608 l 1,0,-1
341 93.5 m 128,-1,28
 375 113 375 113 395.5 149.5 c 128,-1,29
 416 186 416 186 416 234 c 256,30,31
 416 282 416 282 395.5 318.5 c 128,-1,32
 375 355 375 355 341 374.5 c 128,-1,33
 307 394 307 394 268 394 c 0,34,35
 228 394 228 394 194.5 375 c 128,-1,36
 161 356 161 356 141.5 319.5 c 128,-1,37
 122 283 122 283 122 234 c 256,38,39
 122 185 122 185 141.5 148.5 c 128,-1,40
 161 112 161 112 194.5 93 c 128,-1,41
 228 74 228 74 268 74 c 0,42,27
 307 74 307 74 341 93.5 c 128,-1,28
EndSplineSet
Substitution2: "'ss06' Style Set 6 in Latin lookup 24 subtable" dcroat.ss06
Substitution2: "'ss01' Style Set 1 in Latin lookup 19 subtable" dcroat.ss01
Substitution2: "'salt' Stylistic Alternatives in Latin lookup 17 subtable" dcroat.ss01
AlternateSubs2: "'aalt' Access All Alternates in Latin lookup 1 subtable" dcroat.ss01 dcroat.ss06
EndChar

StartChar: dcroat.ss01
Encoding: 65570 -1 199
Width: 578
GlyphClass: 2
Flags: W
AnchorPoint: "Anchor-4" 282 630 basechar 0
AnchorPoint: "Anchor-2" 266 0 basechar 0
LayerCount: 2
Fore
SplineSet
568 608 m 1,0,-1
 568 532 l 1,1,-1
 498 532 l 1,2,-1
 498 234 l 2,3,4
 498 159 498 159 466 103.5 c 128,-1,5
 434 48 434 48 381 19 c 128,-1,6
 328 -10 328 -10 266 -10 c 0,7,8
 201 -10 201 -10 147 22 c 128,-1,9
 93 54 93 54 61.5 109.5 c 128,-1,10
 30 165 30 165 30 234 c 256,11,12
 30 303 30 303 59 359 c 128,-1,13
 88 415 88 415 137.5 446.5 c 128,-1,14
 187 478 187 478 246 478 c 0,15,16
 289 478 289 478 334 456.5 c 128,-1,17
 379 435 379 435 406 397 c 1,18,-1
 406 532 l 1,19,-1
 324 532 l 1,20,-1
 324 608 l 1,21,-1
 406 608 l 1,22,-1
 406 680 l 1,23,-1
 498 680 l 1,24,-1
 498 608 l 1,25,-1
 568 608 l 1,0,-1
335 93 m 128,-1,27
 367 112 367 112 386.5 148.5 c 128,-1,28
 406 185 406 185 406 234 c 0,29,30
 406 282 406 282 386 318.5 c 128,-1,31
 366 355 366 355 333 374.5 c 128,-1,32
 300 394 300 394 262 394 c 0,33,34
 201 394 201 394 161.5 349.5 c 128,-1,35
 122 305 122 305 122 234 c 0,36,37
 122 187 122 187 141.5 150.5 c 128,-1,38
 161 114 161 114 194 94 c 128,-1,39
 227 74 227 74 266 74 c 0,40,26
 303 74 303 74 335 93 c 128,-1,27
EndSplineSet
EndChar

StartChar: e
Encoding: 101 101 204
Width: 520
GlyphClass: 2
Flags: W
AnchorPoint: "Anchor-4" 266 468 basechar 0
AnchorPoint: "Anchor-3" 307 0 basechar 0
AnchorPoint: "Anchor-2" 266 0 basechar 0
LayerCount: 2
Fore
SplineSet
488 198 m 1,1,-1
 125 198 l 1,2,3
 135 141 135 141 173.5 107.5 c 128,-1,4
 212 74 212 74 266 74 c 0,5,6
 353 74 353 74 384 140 c 1,7,-1
 478 140 l 1,8,9
 457 72 457 72 399.5 31 c 128,-1,10
 342 -10 342 -10 266 -10 c 0,11,12
 199 -10 199 -10 145 21 c 128,-1,13
 91 52 91 52 60.5 107.5 c 128,-1,14
 30 163 30 163 30 234 c 256,15,16
 30 305 30 305 60 360.5 c 128,-1,17
 90 416 90 416 144 447 c 128,-1,18
 198 478 198 478 266 478 c 0,19,20
 327 478 327 478 378.5 446 c 128,-1,21
 430 414 430 414 460 358 c 128,-1,22
 490 302 490 302 490 234 c 0,23,0
 490 212 490 212 488 198 c 1,1,-1
174.5 361.5 m 128,-1,25
 137 329 137 329 126 274 c 1,26,-1
 395 274 l 1,27,28
 390 323 390 323 354 358.5 c 128,-1,29
 318 394 318 394 266 394 c 0,30,24
 212 394 212 394 174.5 361.5 c 128,-1,25
EndSplineSet
EndChar

StartChar: eogonek
Encoding: 281 281 213
Width: 520
GlyphClass: 2
Flags: W
AnchorPoint: "Anchor-4" 266 468 basechar 0
AnchorPoint: "Anchor-3" 307 0 basechar 0
AnchorPoint: "Anchor-2" 266 0 basechar 0
LayerCount: 2
Fore
SplineSet
488 198 m 1,1,-1
 125 198 l 1,2,3
 135 141 135 141 173.5 107.5 c 128,-1,4
 212 74 212 74 266 74 c 0,5,6
 353 74 353 74 384 140 c 1,7,-1
 478 140 l 1,8,9
 459 79 459 79 410.5 39 c 128,-1,10
 362 -1 362 -1 296 -8 c 1,11,12
 275 -26 275 -26 260.5 -47 c 128,-1,13
 246 -68 246 -68 246 -89 c 0,14,15
 246 -114 246 -114 261.5 -125 c 128,-1,16
 277 -136 277 -136 302 -136 c 0,17,18
 331 -136 331 -136 352 -129 c 1,19,-1
 352 -183 l 1,20,21
 319 -198 319 -198 281 -198 c 0,22,23
 241 -198 241 -198 210.5 -176 c 128,-1,24
 180 -154 180 -154 180 -116 c 0,25,26
 180 -85 180 -85 198 -57.5 c 128,-1,27
 216 -30 216 -30 244 -9 c 1,28,29
 182 -4 182 -4 133.5 28 c 128,-1,30
 85 60 85 60 57.5 113.5 c 128,-1,31
 30 167 30 167 30 234 c 0,32,33
 30 305 30 305 60 360.5 c 128,-1,34
 90 416 90 416 144 447 c 128,-1,35
 198 478 198 478 266 478 c 0,36,37
 327 478 327 478 378.5 446 c 128,-1,38
 430 414 430 414 460 358 c 128,-1,39
 490 302 490 302 490 234 c 0,40,0
 490 212 490 212 488 198 c 1,1,-1
174.5 361.5 m 128,-1,42
 137 329 137 329 126 274 c 1,43,-1
 395 274 l 1,44,45
 390 323 390 323 354 358.5 c 128,-1,46
 318 394 318 394 266 394 c 0,47,41
 212 394 212 394 174.5 361.5 c 128,-1,42
EndSplineSet
EndChar

StartChar: f
Encoding: 102 102 214
Width: 345
GlyphClass: 1
Flags: W
LayerCount: 2
Fore
SplineSet
327 468 m 1,0,-1
 327 390 l 1,1,-1
 196 390 l 1,2,-1
 196 0 l 1,3,-1
 104 0 l 1,4,-1
 104 390 l 1,5,-1
 14 390 l 1,6,-1
 14 468 l 1,7,-1
 104 468 l 1,8,-1
 104 525 l 2,9,10
 104 600 104 600 146 643 c 128,-1,11
 188 686 188 686 254 686 c 0,12,13
 282 686 282 686 307 679 c 1,14,-1
 307 603 l 1,15,16
 291 605 291 605 279 605 c 0,17,18
 196 605 196 605 196 523 c 2,19,-1
 196 468 l 1,20,-1
 327 468 l 1,0,-1
EndSplineSet
Substitution2: "'ss07' Style Set 7 in Latin lookup 25 subtable" f.ss07
Substitution2: "'ss01' Style Set 1 in Latin lookup 19 subtable" f.ss01
Substitution2: "'salt' Stylistic Alternatives in Latin lookup 17 subtable" f.ss01
AlternateSubs2: "'aalt' Access All Alternates in Latin lookup 1 subtable" f.ss01 f.ss07
EndChar

StartChar: f.ss01
Encoding: 65574 -1 215
Width: 305
GlyphClass: 1
Flags: W
LayerCount: 2
Fore
SplineSet
287 468 m 1,0,-1
 287 390 l 1,1,-1
 156 390 l 1,2,-1
 156 0 l 1,3,-1
 64 0 l 1,4,-1
 64 525 l 2,5,6
 64 600 64 600 106 643 c 128,-1,7
 148 686 148 686 214 686 c 0,8,9
 242 686 242 686 267 679 c 1,10,-1
 267 603 l 1,11,12
 251 605 251 605 239 605 c 0,13,14
 156 605 156 605 156 523 c 2,15,-1
 156 468 l 1,16,-1
 287 468 l 1,0,-1
EndSplineSet
EndChar

StartChar: g
Encoding: 103 103 217
Width: 565
GlyphClass: 2
Flags: W
AnchorPoint: "Anchor-4" 279 468 basechar 0
AnchorPoint: "Anchor-2" 283 -196 basechar 0
LayerCount: 2
Fore
SplineSet
428 468 m 1,0,-1
 509 468 l 1,1,-1
 509 16 l 2,2,3
 509 -59 509 -59 476 -109 c 128,-1,4
 443 -159 443 -159 391.5 -182.5 c 128,-1,5
 340 -206 340 -206 283 -206 c 0,6,7
 184 -206 184 -206 122 -161.5 c 128,-1,8
 60 -117 60 -117 46 -35 c 1,9,-1
 143 -35 l 1,10,11
 153 -76 153 -76 190.5 -99 c 128,-1,12
 228 -122 228 -122 283 -122 c 0,13,14
 341 -122 341 -122 379 -87 c 128,-1,15
 417 -52 417 -52 417 16 c 2,16,-1
 417 71 l 1,17,18
 391 34 391 34 348.5 14 c 128,-1,19
 306 -6 306 -6 257 -6 c 0,20,21
 196 -6 196 -6 144.5 23 c 128,-1,22
 93 52 93 52 61.5 107 c 128,-1,23
 30 162 30 162 30 236 c 256,24,25
 30 310 30 310 61.5 365 c 128,-1,26
 93 420 93 420 144.5 449 c 128,-1,27
 196 478 196 478 257 478 c 0,28,29
 306 478 306 478 350 457 c 128,-1,30
 394 436 394 436 420 397 c 1,31,-1
 428 468 l 1,0,-1
345 97.5 m 128,-1,33
 379 117 379 117 399.5 153 c 128,-1,34
 420 189 420 189 420 236 c 256,35,36
 420 283 420 283 399.5 319 c 128,-1,37
 379 355 379 355 345 374.5 c 128,-1,38
 311 394 311 394 272 394 c 0,39,40
 232 394 232 394 198 375 c 128,-1,41
 164 356 164 356 143 320.5 c 128,-1,42
 122 285 122 285 122 236 c 256,43,44
 122 187 122 187 143 151.5 c 128,-1,45
 164 116 164 116 198 97 c 128,-1,46
 232 78 232 78 272 78 c 0,47,32
 311 78 311 78 345 97.5 c 128,-1,33
EndSplineSet
Substitution2: "'ss08' Style Set 8 in Latin lookup 26 subtable" g.ss08
Substitution2: "'ss01' Style Set 1 in Latin lookup 19 subtable" g.ss01
Substitution2: "'salt' Stylistic Alternatives in Latin lookup 17 subtable" g.ss01
AlternateSubs2: "'aalt' Access All Alternates in Latin lookup 1 subtable" g.ss01 g.ss08
EndChar

StartChar: g.ss01
Encoding: 65576 -1 218
Width: 544
GlyphClass: 2
Flags: W
AnchorPoint: "Anchor-4" 270 468 basechar 0
AnchorPoint: "Anchor-2" 270 -196 basechar 0
LayerCount: 2
Fore
SplineSet
380.5 449 m 128,-1,1
 433 420 433 420 464.5 365.5 c 128,-1,2
 496 311 496 311 496 236 c 2,3,-1
 496 43 l 2,4,5
 496 -34 496 -34 467.5 -90.5 c 128,-1,6
 439 -147 439 -147 387.5 -176.5 c 128,-1,7
 336 -206 336 -206 270 -206 c 0,8,9
 185 -206 185 -206 123 -159 c 128,-1,10
 61 -112 61 -112 43 -32 c 1,11,-1
 133 -32 l 1,12,13
 149 -77 149 -77 186 -99.5 c 128,-1,14
 223 -122 223 -122 270 -122 c 0,15,16
 330 -122 330 -122 368 -81 c 128,-1,17
 406 -40 406 -40 406 32 c 2,18,-1
 406 74 l 1,19,20
 379 36 379 36 334 15 c 128,-1,21
 289 -6 289 -6 246 -6 c 0,22,23
 187 -6 187 -6 137.5 25 c 128,-1,24
 88 56 88 56 59 111.5 c 128,-1,25
 30 167 30 167 30 236 c 0,26,27
 30 304 30 304 61.5 359.5 c 128,-1,28
 93 415 93 415 147 446.5 c 128,-1,29
 201 478 201 478 266 478 c 0,30,0
 328 478 328 478 380.5 449 c 128,-1,1
333 97 m 128,-1,32
 366 116 366 116 386 152 c 128,-1,33
 406 188 406 188 406 236 c 0,34,35
 406 285 406 285 386.5 321 c 128,-1,36
 367 357 367 357 335 375.5 c 128,-1,37
 303 394 303 394 266 394 c 0,38,39
 227 394 227 394 194 374 c 128,-1,40
 161 354 161 354 141.5 318 c 128,-1,41
 122 282 122 282 122 236 c 0,42,43
 122 166 122 166 161.5 122 c 128,-1,44
 201 78 201 78 262 78 c 0,45,31
 300 78 300 78 333 97 c 128,-1,32
EndSplineSet
EndChar

StartChar: h
Encoding: 104 104 232
Width: 558
GlyphClass: 2
Flags: W
AnchorPoint: "Anchor-4" 279 680 basechar 0
AnchorPoint: "Anchor-2" 279 0 basechar 0
LayerCount: 2
Fore
SplineSet
402 455 m 128,-1,1
 442 432 442 432 466 387 c 128,-1,2
 490 342 490 342 490 279 c 2,3,-1
 490 0 l 1,4,-1
 398 0 l 1,5,-1
 398 262 l 2,6,7
 398 327 398 327 366.5 360.5 c 128,-1,8
 335 394 335 394 289 394 c 0,9,10
 261 394 261 394 232.5 377 c 128,-1,11
 204 360 204 360 185.5 328.5 c 128,-1,12
 167 297 167 297 167 256 c 2,13,-1
 166 0 l 1,14,-1
 75 0 l 1,15,-1
 75 680 l 1,16,-1
 167 680 l 1,17,-1
 167 400 l 1,18,19
 193 441 193 441 232 459.5 c 128,-1,20
 271 478 271 478 314 478 c 0,21,0
 362 478 362 478 402 455 c 128,-1,1
EndSplineSet
EndChar

StartChar: hbar
Encoding: 295 295 233
Width: 558
GlyphClass: 2
Flags: W
AnchorPoint: "Anchor-4" 279 680 basechar 0
AnchorPoint: "Anchor-2" 279 0 basechar 0
LayerCount: 2
Fore
SplineSet
402 455 m 128,-1,1
 442 432 442 432 466 387 c 128,-1,2
 490 342 490 342 490 279 c 2,3,-1
 490 0 l 1,4,-1
 398 0 l 1,5,-1
 398 262 l 2,6,7
 398 327 398 327 366.5 360.5 c 128,-1,8
 335 394 335 394 289 394 c 0,9,10
 261 394 261 394 232.5 377 c 128,-1,11
 204 360 204 360 185.5 328.5 c 128,-1,12
 167 297 167 297 167 256 c 2,13,-1
 166 0 l 1,14,-1
 75 0 l 1,15,-1
 75 529 l 1,16,-1
 17 529 l 1,17,-1
 17 611 l 1,18,-1
 75 611 l 1,19,-1
 75 680 l 1,20,-1
 167 680 l 1,21,-1
 167 611 l 1,22,-1
 303 611 l 1,23,-1
 303 529 l 1,24,-1
 167 529 l 1,25,-1
 167 400 l 1,26,27
 193 441 193 441 232 459.5 c 128,-1,28
 271 478 271 478 314 478 c 0,29,0
 362 478 362 478 402 455 c 128,-1,1
EndSplineSet
EndChar

StartChar: dotlessi
Encoding: 305 305 236
Width: 214
GlyphClass: 2
Flags: W
AnchorPoint: "Anchor-4" 107 468 basechar 0
AnchorPoint: "Anchor-3" 153 0 basechar 0
AnchorPoint: "Anchor-2" 107 0 basechar 0
LayerCount: 2
Fore
SplineSet
153 0 m 1,0,-1
 61 0 l 1,1,-1
 61 468 l 1,2,-1
 153 468 l 1,3,-1
 153 0 l 1,0,-1
EndSplineSet
EndChar

StartChar: iogonek
Encoding: 303 303 244
Width: 214
GlyphClass: 1
Flags: W
LayerCount: 2
Fore
SplineSet
64.5 575 m 128,-1,1
 47 592 47 592 47 617 c 256,2,3
 47 642 47 642 64.5 659.5 c 128,-1,4
 82 677 82 677 107 677 c 256,5,6
 132 677 132 677 149.5 659.5 c 128,-1,7
 167 642 167 642 167 617 c 256,8,9
 167 592 167 592 149.5 575 c 128,-1,10
 132 558 132 558 107 558 c 256,11,0
 82 558 82 558 64.5 575 c 128,-1,1
11.5 -176 m 128,-1,13
 -19 -154 -19 -154 -19 -116 c 0,14,15
 -19 -81 -19 -81 4 -50.5 c 128,-1,16
 27 -20 27 -20 61 0 c 1,17,-1
 61 468 l 1,18,-1
 153 468 l 1,19,-1
 153 0 l 1,20,-1
 140 -2 l 2,21,22
 101 -8 101 -8 74 -31.5 c 128,-1,23
 47 -55 47 -55 47 -85 c 0,24,25
 47 -110 47 -110 63.5 -123 c 128,-1,26
 80 -136 80 -136 103 -136 c 0,27,28
 132 -136 132 -136 153 -129 c 1,29,-1
 153 -183 l 1,30,31
 120 -198 120 -198 82 -198 c 0,32,12
 42 -198 42 -198 11.5 -176 c 128,-1,13
EndSplineSet
EndChar

StartChar: uni0237
Encoding: 567 567 246
Width: 214
GlyphClass: 2
Flags: W
AnchorPoint: "Anchor-4" 107 468 basechar 0
AnchorPoint: "Anchor-2" 107 -196 basechar 0
LayerCount: 2
Fore
SplineSet
153 -196 m 1,0,-1
 61 -196 l 1,1,-1
 61 468 l 1,2,-1
 153 468 l 1,3,-1
 153 -196 l 1,0,-1
EndSplineSet
EndChar

StartChar: k
Encoding: 107 107 247
Width: 500
GlyphClass: 2
Flags: W
AnchorPoint: "Anchor-4" 250 680 basechar 0
AnchorPoint: "Anchor-2" 262 0 basechar 0
LayerCount: 2
Fore
SplineSet
274 269 m 1,0,-1
 492 0 l 1,1,-1
 379 0 l 1,2,-1
 167 261 l 1,3,-1
 167 0 l 1,4,-1
 75 0 l 1,5,-1
 75 680 l 1,6,-1
 167 680 l 1,7,-1
 167 281 l 1,8,-1
 357 468 l 1,9,-1
 476 468 l 1,10,-1
 274 269 l 1,0,-1
EndSplineSet
EndChar

StartChar: l
Encoding: 108 108 249
Width: 250
GlyphClass: 2
Flags: W
AnchorPoint: "Anchor-4" 125 680 basechar 0
AnchorPoint: "Anchor-2" 125 0 basechar 0
LayerCount: 2
Fore
SplineSet
171 0 m 1,0,-1
 79 0 l 1,1,-1
 79 680 l 1,2,-1
 171 680 l 1,3,-1
 171 0 l 1,0,-1
EndSplineSet
EndChar

StartChar: lcaron
Encoding: 318 318 251
Width: 265
GlyphClass: 1
Flags: W
LayerCount: 2
Fore
SplineSet
171 0 m 1,0,-1
 79 0 l 1,1,-1
 79 680 l 1,2,-1
 171 680 l 1,3,-1
 171 0 l 1,0,-1
254 483 m 1,4,-1
 209 483 l 1,5,-1
 223 680 l 1,6,-1
 317 680 l 1,7,-1
 254 483 l 1,4,-1
EndSplineSet
EndChar

StartChar: lslash
Encoding: 322 322 254
Width: 260
GlyphClass: 2
Flags: W
AnchorPoint: "Anchor-4" 129 680 basechar 0
AnchorPoint: "Anchor-2" 129 0 basechar 0
LayerCount: 2
Fore
SplineSet
175 445 m 1,0,-1
 256 500 l 1,1,-1
 256 407 l 1,2,-1
 175 352 l 1,3,-1
 175 0 l 1,4,-1
 83 0 l 1,5,-1
 83 297 l 1,6,-1
 4 243 l 1,7,-1
 4 336 l 1,8,-1
 83 390 l 1,9,-1
 83 680 l 1,10,-1
 175 680 l 1,11,-1
 175 445 l 1,0,-1
EndSplineSet
EndChar

StartChar: m
Encoding: 109 109 255
Width: 808
GlyphClass: 2
Flags: W
AnchorPoint: "Anchor-4" 404 468 basechar 0
AnchorPoint: "Anchor-2" 404 0 basechar 0
LayerCount: 2
Fore
SplineSet
60 277 m 2,0,1
 60 335 60 335 83.5 381 c 128,-1,2
 107 427 107 427 150.5 452.5 c 128,-1,3
 194 478 194 478 252 478 c 0,4,5
 295 478 295 478 327.5 462.5 c 128,-1,6
 360 447 360 447 379.5 427 c 128,-1,7
 399 407 399 407 403 393 c 1,8,-1
 405 393 l 1,9,10
 409 407 409 407 428.5 427 c 128,-1,11
 448 447 448 447 480.5 462.5 c 128,-1,12
 513 478 513 478 556 478 c 0,13,14
 614 478 614 478 657.5 452.5 c 128,-1,15
 701 427 701 427 724.5 381 c 128,-1,16
 748 335 748 335 748 277 c 2,17,-1
 748 0 l 1,18,-1
 656 0 l 1,19,-1
 656 270 l 2,20,21
 656 328 656 328 630 360 c 128,-1,22
 604 392 604 392 553 392 c 256,23,24
 502 392 502 392 476 359.5 c 128,-1,25
 450 327 450 327 450 268 c 2,26,-1
 450 -1 l 1,27,-1
 358 -1 l 1,28,-1
 358 268 l 2,29,30
 358 327 358 327 332 359.5 c 128,-1,31
 306 392 306 392 255 392 c 256,32,33
 204 392 204 392 178 360 c 128,-1,34
 152 328 152 328 152 270 c 2,35,-1
 152 0 l 1,36,-1
 60 0 l 1,37,-1
 60 277 l 2,0,1
EndSplineSet
Substitution2: "'ss09' Style Set 9 in Latin lookup 27 subtable" m.ss09
Substitution2: "'ss02' Style Set 2 in Latin lookup 20 subtable" m.ss02
AlternateSubs2: "'aalt' Access All Alternates in Latin lookup 1 subtable" m.ss02 m.ss09
EndChar

StartChar: m.ss02
Encoding: 65587 -1 256
Width: 828
GlyphClass: 2
Flags: W
AnchorPoint: "Anchor-4" 414 468 basechar 0
AnchorPoint: "Anchor-2" 414 0 basechar 0
LayerCount: 2
Fore
SplineSet
678 459 m 128,-1,1
 715 440 715 440 737.5 402 c 128,-1,2
 760 364 760 364 760 310 c 2,3,-1
 760 0 l 1,4,-1
 668 0 l 1,5,-1
 668 285 l 2,6,7
 668 343 668 343 640 371.5 c 128,-1,8
 612 400 612 400 576 400 c 0,9,10
 548 400 548 400 522.5 383.5 c 128,-1,11
 497 367 497 367 480.5 333 c 128,-1,12
 464 299 464 299 464 250 c 2,13,-1
 464 0 l 1,14,-1
 372 0 l 1,15,-1
 372 285 l 2,16,17
 372 343 372 343 344 371.5 c 128,-1,18
 316 400 316 400 279 400 c 0,19,20
 251 400 251 400 225.5 383.5 c 128,-1,21
 200 367 200 367 183.5 333 c 128,-1,22
 167 299 167 299 167 250 c 2,23,-1
 167 0 l 1,24,-1
 75 0 l 1,25,-1
 75 468 l 1,26,-1
 155 468 l 1,27,-1
 166 398 l 1,28,29
 190 438 190 438 227 458 c 128,-1,30
 264 478 264 478 307 478 c 0,31,32
 354 478 354 478 391 454.5 c 128,-1,33
 428 431 428 431 447 391 c 1,34,35
 471 434 471 434 511 456 c 128,-1,36
 551 478 551 478 597 478 c 0,37,0
 641 478 641 478 678 459 c 128,-1,1
EndSplineSet
EndChar

StartChar: n
Encoding: 110 110 261
Width: 526
GlyphClass: 2
Flags: W
AnchorPoint: "Anchor-4" 263 468 basechar 0
AnchorPoint: "Anchor-2" 263 0 basechar 0
LayerCount: 2
Fore
SplineSet
60 277 m 2,0,1
 60 335 60 335 85 381 c 128,-1,2
 110 427 110 427 156 452.5 c 128,-1,3
 202 478 202 478 263 478 c 256,4,5
 324 478 324 478 370 452.5 c 128,-1,6
 416 427 416 427 441 381 c 128,-1,7
 466 335 466 335 466 277 c 2,8,-1
 466 0 l 1,9,-1
 374 0 l 1,10,-1
 374 270 l 2,11,12
 374 329 374 329 346 361.5 c 128,-1,13
 318 394 318 394 263 394 c 256,14,15
 208 394 208 394 180 361.5 c 128,-1,16
 152 329 152 329 152 270 c 2,17,-1
 152 0 l 1,18,-1
 60 0 l 1,19,-1
 60 277 l 2,0,1
EndSplineSet
Substitution2: "'ss10' Style Set 10 in Latin lookup 28 subtable" n.ss10
Substitution2: "'ss02' Style Set 2 in Latin lookup 20 subtable" n.ss02
AlternateSubs2: "'aalt' Access All Alternates in Latin lookup 1 subtable" n.ss02 n.ss10
EndChar

StartChar: n.ss02
Encoding: 65591 -1 262
Width: 562
GlyphClass: 2
Flags: W
AnchorPoint: "Anchor-4" 294 468 basechar 0
AnchorPoint: "Anchor-2" 282 0 basechar 0
LayerCount: 2
Fore
SplineSet
405.5 455 m 128,-1,1
 446 432 446 432 470 387 c 128,-1,2
 494 342 494 342 494 279 c 2,3,-1
 494 0 l 1,4,-1
 402 0 l 1,5,-1
 402 262 l 2,6,7
 402 327 402 327 370 360.5 c 128,-1,8
 338 394 338 394 291 394 c 0,9,10
 262 394 262 394 233 377 c 128,-1,11
 204 360 204 360 185.5 328.5 c 128,-1,12
 167 297 167 297 167 256 c 2,13,-1
 167 0 l 1,14,-1
 75 0 l 1,15,-1
 75 468 l 1,16,-1
 156 468 l 1,17,-1
 164 395 l 1,18,19
 190 439 190 439 230 458.5 c 128,-1,20
 270 478 270 478 316 478 c 0,21,0
 365 478 365 478 405.5 455 c 128,-1,1
EndSplineSet
EndChar

StartChar: eng
Encoding: 331 331 279
Width: 526
GlyphClass: 1
Flags: W
LayerCount: 2
Fore
SplineSet
251 -196 m 1,1,-1
 251 -119 l 1,2,3
 266 -120 266 -120 285 -120 c 0,4,5
 374 -120 374 -120 374 -30 c 2,6,-1
 374 270 l 2,7,8
 374 329 374 329 346 361.5 c 128,-1,9
 318 394 318 394 263 394 c 256,10,11
 208 394 208 394 180 361.5 c 128,-1,12
 152 329 152 329 152 270 c 2,13,-1
 152 0 l 1,14,-1
 60 0 l 1,15,-1
 60 277 l 2,16,17
 60 335 60 335 85 381 c 128,-1,18
 110 427 110 427 156 452.5 c 128,-1,19
 202 478 202 478 263 478 c 256,20,21
 324 478 324 478 370 452.5 c 128,-1,22
 416 427 416 427 441 381 c 128,-1,23
 466 335 466 335 466 277 c 2,24,-1
 466 -42 l 2,25,26
 466 -115 466 -115 421 -158.5 c 128,-1,27
 376 -202 376 -202 304 -202 c 0,28,0
 274 -202 274 -202 251 -196 c 1,1,-1
EndSplineSet
Substitution2: "'ss10' Style Set 10 in Latin lookup 28 subtable" eng.ss10
Substitution2: "'ss02' Style Set 2 in Latin lookup 20 subtable" eng.ss02
AlternateSubs2: "'aalt' Access All Alternates in Latin lookup 1 subtable" eng.ss02 eng.ss10
EndChar

StartChar: eng.ss02
Encoding: 65603 -1 280
Width: 562
GlyphClass: 1
Flags: W
LayerCount: 2
Fore
SplineSet
405.5 455 m 128,-1,1
 446 432 446 432 470 387 c 128,-1,2
 494 342 494 342 494 279 c 2,3,-1
 494 -42 l 2,4,5
 494 -115 494 -115 449 -158.5 c 128,-1,6
 404 -202 404 -202 332 -202 c 0,7,8
 302 -202 302 -202 279 -196 c 1,9,-1
 279 -119 l 1,10,11
 294 -120 294 -120 313 -120 c 0,12,13
 402 -120 402 -120 402 -30 c 2,14,-1
 402 262 l 2,15,16
 402 327 402 327 370 360.5 c 128,-1,17
 338 394 338 394 291 394 c 0,18,19
 262 394 262 394 233 377 c 128,-1,20
 204 360 204 360 185.5 328.5 c 128,-1,21
 167 297 167 297 167 256 c 2,22,-1
 167 0 l 1,23,-1
 75 0 l 1,24,-1
 75 468 l 1,25,-1
 156 468 l 1,26,-1
 164 395 l 1,27,28
 190 439 190 439 230 458.5 c 128,-1,29
 270 478 270 478 316 478 c 0,30,0
 365 478 365 478 405.5 455 c 128,-1,1
EndSplineSet
EndChar

StartChar: o
Encoding: 111 111 285
Width: 544
GlyphClass: 2
Flags: W
AnchorPoint: "Anchor-4" 272 468 basechar 0
AnchorPoint: "Anchor-3" 309 0 basechar 0
AnchorPoint: "Anchor-2" 272 0 basechar 0
LayerCount: 2
Fore
SplineSet
148.5 22.5 m 128,-1,1
 93 55 93 55 61.5 110.5 c 128,-1,2
 30 166 30 166 30 234 c 256,3,4
 30 302 30 302 61.5 357.5 c 128,-1,5
 93 413 93 413 148.5 445.5 c 128,-1,6
 204 478 204 478 272 478 c 256,7,8
 340 478 340 478 395.5 445.5 c 128,-1,9
 451 413 451 413 482.5 357.5 c 128,-1,10
 514 302 514 302 514 234 c 256,11,12
 514 166 514 166 482.5 110.5 c 128,-1,13
 451 55 451 55 395.5 22.5 c 128,-1,14
 340 -10 340 -10 272 -10 c 256,15,0
 204 -10 204 -10 148.5 22.5 c 128,-1,1
349 94.5 m 128,-1,17
 383 115 383 115 402.5 151.5 c 128,-1,18
 422 188 422 188 422 234 c 256,19,20
 422 280 422 280 402.5 316.5 c 128,-1,21
 383 353 383 353 349 373.5 c 128,-1,22
 315 394 315 394 272 394 c 256,23,24
 229 394 229 394 195 373.5 c 128,-1,25
 161 353 161 353 141.5 316.5 c 128,-1,26
 122 280 122 280 122 234 c 256,27,28
 122 188 122 188 141.5 151.5 c 128,-1,29
 161 115 161 115 195 94.5 c 128,-1,30
 229 74 229 74 272 74 c 256,31,16
 315 74 315 74 349 94.5 c 128,-1,17
EndSplineSet
Substitution2: "Single Substitution lookup 38 subtable" ordmasculine
Substitution2: "'aalt' Access All Alternates in Latin lookup 0 subtable" ordmasculine
EndChar

StartChar: uni01EB
Encoding: 491 491 296
Width: 544
GlyphClass: 2
Flags: W
AnchorPoint: "Anchor-4" 272 468 basechar 0
AnchorPoint: "Anchor-3" 309 0 basechar 0
AnchorPoint: "Anchor-2" 272 0 basechar 0
LayerCount: 2
Fore
SplineSet
248 -89 m 0,1,2
 248 -114 248 -114 263.5 -125 c 128,-1,3
 279 -136 279 -136 304 -136 c 0,4,5
 333 -136 333 -136 354 -129 c 1,6,-1
 354 -183 l 1,7,8
 321 -198 321 -198 283 -198 c 0,9,10
 243 -198 243 -198 212.5 -176 c 128,-1,11
 182 -154 182 -154 182 -116 c 0,12,13
 182 -85 182 -85 200.5 -57.5 c 128,-1,14
 219 -30 219 -30 247 -9 c 1,15,16
 185 -3 185 -3 135.5 30.5 c 128,-1,17
 86 64 86 64 58 117 c 128,-1,18
 30 170 30 170 30 234 c 0,19,20
 30 302 30 302 61.5 357.5 c 128,-1,21
 93 413 93 413 148.5 445.5 c 128,-1,22
 204 478 204 478 272 478 c 256,23,24
 340 478 340 478 395.5 445.5 c 128,-1,25
 451 413 451 413 482.5 357.5 c 128,-1,26
 514 302 514 302 514 234 c 0,27,28
 514 171 514 171 486 117.5 c 128,-1,29
 458 64 458 64 408.5 30.5 c 128,-1,30
 359 -3 359 -3 297 -9 c 1,31,0
 248 -50 248 -50 248 -89 c 0,1,2
141.5 151.5 m 128,-1,33
 161 115 161 115 195 94.5 c 128,-1,34
 229 74 229 74 272 74 c 256,35,36
 315 74 315 74 349 94.5 c 128,-1,37
 383 115 383 115 402.5 151.5 c 128,-1,38
 422 188 422 188 422 234 c 256,39,40
 422 280 422 280 402.5 316.5 c 128,-1,41
 383 353 383 353 349 373.5 c 128,-1,42
 315 394 315 394 272 394 c 256,43,44
 229 394 229 394 195 373.5 c 128,-1,45
 161 353 161 353 141.5 316.5 c 128,-1,46
 122 280 122 280 122 234 c 256,47,32
 122 188 122 188 141.5 151.5 c 128,-1,33
EndSplineSet
EndChar

StartChar: oslash
Encoding: 248 248 297
Width: 544
GlyphClass: 2
Flags: W
AnchorPoint: "Anchor-4" 272 468 basechar 0
AnchorPoint: "Anchor-3" 309 0 basechar 0
AnchorPoint: "Anchor-2" 272 0 basechar 0
LayerCount: 2
Fore
SplineSet
451 401 m 1,0,1
 481 368 481 368 497.5 325 c 128,-1,2
 514 282 514 282 514 234 c 0,3,4
 514 166 514 166 482.5 110.5 c 128,-1,5
 451 55 451 55 395.5 22.5 c 128,-1,6
 340 -10 340 -10 272 -10 c 0,7,8
 202 -10 202 -10 146 24 c 1,9,-1
 112 -17 l 1,10,-1
 57 23 l 1,11,-1
 93 67 l 1,12,13
 63 100 63 100 46.5 143 c 128,-1,14
 30 186 30 186 30 234 c 0,15,16
 30 302 30 302 61.5 357.5 c 128,-1,17
 93 413 93 413 148.5 445.5 c 128,-1,18
 204 478 204 478 272 478 c 0,19,20
 342 478 342 478 398 444 c 1,21,-1
 432 485 l 1,22,-1
 487 445 l 1,23,-1
 451 401 l 1,0,1
195 373.5 m 128,-1,25
 161 353 161 353 141.5 316.5 c 128,-1,26
 122 280 122 280 122 234 c 0,27,28
 122 179 122 179 150 137 c 1,29,-1
 344 376 l 1,30,31
 313 394 313 394 272 394 c 0,32,24
 229 394 229 394 195 373.5 c 128,-1,25
349 94.5 m 128,-1,34
 383 115 383 115 402.5 151.5 c 128,-1,35
 422 188 422 188 422 234 c 0,36,37
 422 289 422 289 394 331 c 1,38,-1
 200 92 l 1,39,40
 232 74 232 74 272 74 c 0,41,33
 315 74 315 74 349 94.5 c 128,-1,34
EndSplineSet
EndChar

StartChar: oe
Encoding: 339 339 301
Width: 912
GlyphClass: 1
Flags: W
LayerCount: 2
Fore
SplineSet
880 198 m 1,1,-1
 517 198 l 1,2,3
 527 141 527 141 565.5 107.5 c 128,-1,4
 604 74 604 74 658 74 c 0,5,6
 745 74 745 74 776 140 c 1,7,-1
 870 140 l 1,8,9
 848 72 848 72 791 31 c 128,-1,10
 734 -10 734 -10 658 -10 c 0,11,12
 596 -10 596 -10 546.5 16.5 c 128,-1,13
 497 43 497 43 466 92 c 1,14,15
 434 43 434 43 383.5 16.5 c 128,-1,16
 333 -10 333 -10 272 -10 c 0,17,18
 204 -10 204 -10 148.5 22.5 c 128,-1,19
 93 55 93 55 61.5 110.5 c 128,-1,20
 30 166 30 166 30 234 c 256,21,22
 30 302 30 302 61.5 357.5 c 128,-1,23
 93 413 93 413 148.5 445.5 c 128,-1,24
 204 478 204 478 272 478 c 0,25,26
 332 478 332 478 382.5 451.5 c 128,-1,27
 433 425 433 425 466 376 c 1,28,29
 497 425 497 425 546.5 451.5 c 128,-1,30
 596 478 596 478 658 478 c 0,31,32
 719 478 719 478 770.5 446 c 128,-1,33
 822 414 822 414 852 358 c 128,-1,34
 882 302 882 302 882 234 c 0,35,0
 882 212 882 212 880 198 c 1,1,-1
349 94.5 m 128,-1,37
 383 115 383 115 402.5 151.5 c 128,-1,38
 422 188 422 188 422 234 c 256,39,40
 422 280 422 280 402.5 316.5 c 128,-1,41
 383 353 383 353 349 373.5 c 128,-1,42
 315 394 315 394 272 394 c 256,43,44
 229 394 229 394 195 373.5 c 128,-1,45
 161 353 161 353 141.5 316.5 c 128,-1,46
 122 280 122 280 122 234 c 256,47,48
 122 188 122 188 141.5 151.5 c 128,-1,49
 161 115 161 115 195 94.5 c 128,-1,50
 229 74 229 74 272 74 c 256,51,36
 315 74 315 74 349 94.5 c 128,-1,37
566.5 361.5 m 128,-1,53
 529 329 529 329 518 274 c 1,54,-1
 787 274 l 1,55,56
 782 323 782 323 746 358.5 c 128,-1,57
 710 394 710 394 658 394 c 0,58,52
 604 394 604 394 566.5 361.5 c 128,-1,53
EndSplineSet
EndChar

StartChar: p
Encoding: 112 112 302
Width: 580
GlyphClass: 1
Flags: W
LayerCount: 2
Fore
SplineSet
436.5 449 m 128,-1,1
 488 420 488 420 519 364.5 c 128,-1,2
 550 309 550 309 550 234 c 256,3,4
 550 159 550 159 519 103.5 c 128,-1,5
 488 48 488 48 436.5 19 c 128,-1,6
 385 -10 385 -10 325 -10 c 0,7,8
 275 -10 275 -10 233.5 9.5 c 128,-1,9
 192 29 192 29 167 66 c 1,10,-1
 167 -196 l 1,11,-1
 75 -196 l 1,12,-1
 75 468 l 1,13,-1
 156 468 l 1,14,-1
 164 397 l 1,15,16
 189 436 189 436 231.5 457 c 128,-1,17
 274 478 274 478 325 478 c 0,18,0
 385 478 385 478 436.5 449 c 128,-1,1
385.5 93 m 128,-1,20
 419 112 419 112 438.5 148.5 c 128,-1,21
 458 185 458 185 458 234 c 256,22,23
 458 283 458 283 438.5 319.5 c 128,-1,24
 419 356 419 356 385.5 375 c 128,-1,25
 352 394 352 394 312 394 c 0,26,27
 273 394 273 394 239 374.5 c 128,-1,28
 205 355 205 355 184.5 318.5 c 128,-1,29
 164 282 164 282 164 234 c 256,30,31
 164 186 164 186 184.5 149.5 c 128,-1,32
 205 113 205 113 239 93.5 c 128,-1,33
 273 74 273 74 312 74 c 0,34,19
 352 74 352 74 385.5 93 c 128,-1,20
EndSplineSet
Substitution2: "'ss11' Style Set 11 in Latin lookup 29 subtable" p.ss11
Substitution2: "'ss01' Style Set 1 in Latin lookup 19 subtable" p.ss01
Substitution2: "'salt' Stylistic Alternatives in Latin lookup 17 subtable" p.ss01
AlternateSubs2: "'aalt' Access All Alternates in Latin lookup 1 subtable" p.ss01 p.ss11
EndChar

StartChar: p.ss01
Encoding: 65607 -1 303
Width: 558
GlyphClass: 2
Flags: W
AnchorPoint: "Anchor-4" 292 468 basechar 0
AnchorPoint: "Anchor-2" 276 -162 basechar 0
LayerCount: 2
Fore
SplineSet
411 446 m 128,-1,1
 465 414 465 414 496.5 358.5 c 128,-1,2
 528 303 528 303 528 234 c 256,3,4
 528 165 528 165 499 109 c 128,-1,5
 470 53 470 53 420.5 21.5 c 128,-1,6
 371 -10 371 -10 312 -10 c 0,7,8
 269 -10 269 -10 224 11.5 c 128,-1,9
 179 33 179 33 152 71 c 1,10,-1
 152 -212 l 1,11,-1
 60 -212 l 1,12,-1
 60 234 l 2,13,14
 60 309 60 309 92 364.5 c 128,-1,15
 124 420 124 420 177 449 c 128,-1,16
 230 478 230 478 292 478 c 0,17,0
 357 478 357 478 411 446 c 128,-1,1
396.5 118.5 m 128,-1,19
 436 163 436 163 436 234 c 0,20,21
 436 281 436 281 416.5 317.5 c 128,-1,22
 397 354 397 354 364 374 c 128,-1,23
 331 394 331 394 292 394 c 0,24,25
 255 394 255 394 223 375 c 128,-1,26
 191 356 191 356 171.5 319.5 c 128,-1,27
 152 283 152 283 152 234 c 0,28,29
 152 186 152 186 172 149.5 c 128,-1,30
 192 113 192 113 225 93.5 c 128,-1,31
 258 74 258 74 296 74 c 0,32,18
 357 74 357 74 396.5 118.5 c 128,-1,19
EndSplineSet
EndChar

StartChar: thorn
Encoding: 254 254 305
Width: 580
GlyphClass: 1
Flags: W
LayerCount: 2
Fore
SplineSet
436.5 449 m 128,-1,1
 488 420 488 420 519 364.5 c 128,-1,2
 550 309 550 309 550 234 c 256,3,4
 550 159 550 159 519 103.5 c 128,-1,5
 488 48 488 48 436.5 19 c 128,-1,6
 385 -10 385 -10 325 -10 c 0,7,8
 275 -10 275 -10 233.5 9.5 c 128,-1,9
 192 29 192 29 167 66 c 1,10,-1
 167 -196 l 1,11,-1
 75 -196 l 1,12,-1
 75 680 l 1,13,-1
 167 680 l 1,14,-1
 167 402 l 1,15,16
 192 439 192 439 233.5 458.5 c 128,-1,17
 275 478 275 478 325 478 c 0,18,0
 385 478 385 478 436.5 449 c 128,-1,1
385.5 93 m 128,-1,20
 419 112 419 112 438.5 148.5 c 128,-1,21
 458 185 458 185 458 234 c 256,22,23
 458 283 458 283 438.5 319.5 c 128,-1,24
 419 356 419 356 385.5 375 c 128,-1,25
 352 394 352 394 312 394 c 0,26,27
 273 394 273 394 239 374.5 c 128,-1,28
 205 355 205 355 184.5 318.5 c 128,-1,29
 164 282 164 282 164 234 c 256,30,31
 164 186 164 186 184.5 149.5 c 128,-1,32
 205 113 205 113 239 93.5 c 128,-1,33
 273 74 273 74 312 74 c 0,34,19
 352 74 352 74 385.5 93 c 128,-1,20
EndSplineSet
EndChar

StartChar: q
Encoding: 113 113 306
Width: 576
GlyphClass: 1
Flags: W
LayerCount: 2
Fore
SplineSet
424 468 m 1,0,-1
 505 468 l 1,1,-1
 505 -196 l 1,2,-1
 413 -196 l 1,3,-1
 413 66 l 1,4,5
 388 29 388 29 346.5 9.5 c 128,-1,6
 305 -10 305 -10 255 -10 c 0,7,8
 195 -10 195 -10 143.5 19 c 128,-1,9
 92 48 92 48 61 103.5 c 128,-1,10
 30 159 30 159 30 234 c 256,11,12
 30 309 30 309 61 364.5 c 128,-1,13
 92 420 92 420 143.5 449 c 128,-1,14
 195 478 195 478 255 478 c 0,15,16
 306 478 306 478 348.5 457 c 128,-1,17
 391 436 391 436 416 397 c 1,18,-1
 424 468 l 1,0,-1
341 93.5 m 128,-1,20
 375 113 375 113 395.5 149.5 c 128,-1,21
 416 186 416 186 416 234 c 256,22,23
 416 282 416 282 395.5 318.5 c 128,-1,24
 375 355 375 355 341 374.5 c 128,-1,25
 307 394 307 394 268 394 c 0,26,27
 228 394 228 394 194.5 375 c 128,-1,28
 161 356 161 356 141.5 319.5 c 128,-1,29
 122 283 122 283 122 234 c 256,30,31
 122 185 122 185 141.5 148.5 c 128,-1,32
 161 112 161 112 194.5 93 c 128,-1,33
 228 74 228 74 268 74 c 0,34,19
 307 74 307 74 341 93.5 c 128,-1,20
EndSplineSet
Substitution2: "'ss12' Style Set 12 in Latin lookup 30 subtable" q.ss12
Substitution2: "'ss01' Style Set 1 in Latin lookup 19 subtable" q.ss01
Substitution2: "'salt' Stylistic Alternatives in Latin lookup 17 subtable" q.ss01
AlternateSubs2: "'aalt' Access All Alternates in Latin lookup 1 subtable" q.ss01 q.ss12
EndChar

StartChar: q.ss01
Encoding: 65609 -1 307
Width: 546
GlyphClass: 1
Flags: W
LayerCount: 2
Fore
SplineSet
381 449 m 128,-1,1
 434 420 434 420 466 364.5 c 128,-1,2
 498 309 498 309 498 234 c 2,3,-1
 498 -196 l 1,4,-1
 406 -196 l 1,5,-1
 406 71 l 1,6,7
 379 33 379 33 334 11.5 c 128,-1,8
 289 -10 289 -10 246 -10 c 0,9,10
 187 -10 187 -10 137.5 21.5 c 128,-1,11
 88 53 88 53 59 109 c 128,-1,12
 30 165 30 165 30 234 c 256,13,14
 30 303 30 303 61.5 358.5 c 128,-1,15
 93 414 93 414 147 446 c 128,-1,16
 201 478 201 478 266 478 c 0,17,0
 328 478 328 478 381 449 c 128,-1,1
333 93.5 m 128,-1,19
 366 113 366 113 386 149.5 c 128,-1,20
 406 186 406 186 406 234 c 0,21,22
 406 283 406 283 386.5 319.5 c 128,-1,23
 367 356 367 356 335 375 c 128,-1,24
 303 394 303 394 266 394 c 0,25,26
 227 394 227 394 194 374 c 128,-1,27
 161 354 161 354 141.5 317.5 c 128,-1,28
 122 281 122 281 122 234 c 0,29,30
 122 163 122 163 161.5 118.5 c 128,-1,31
 201 74 201 74 262 74 c 0,32,18
 300 74 300 74 333 93.5 c 128,-1,19
EndSplineSet
EndChar

StartChar: r
Encoding: 114 114 309
Width: 315
GlyphClass: 2
Flags: W
AnchorPoint: "Anchor-4" 189 468 basechar 0
AnchorPoint: "Anchor-2" 106 0 basechar 0
LayerCount: 2
Fore
SplineSet
60 296 m 2,0,1
 60 381 60 381 108 429.5 c 128,-1,2
 156 478 156 478 234 478 c 0,3,4
 259 478 259 478 285 471 c 1,5,-1
 285 387 l 1,6,7
 276 388 276 388 249 388 c 0,8,9
 202 388 202 388 177 362 c 128,-1,10
 152 336 152 336 152 274 c 2,11,-1
 152 0 l 1,12,-1
 60 0 l 1,13,-1
 60 296 l 2,0,1
EndSplineSet
Substitution2: "'ss13' Style Set 13 in Latin lookup 31 subtable" r.ss13
Substitution2: "'ss02' Style Set 2 in Latin lookup 20 subtable" r.ss02
AlternateSubs2: "'aalt' Access All Alternates in Latin lookup 1 subtable" r.ss02 r.ss13
EndChar

StartChar: r.ss02
Encoding: 65611 -1 310
Width: 374
GlyphClass: 2
Flags: W
AnchorPoint: "Anchor-4" 229 468 basechar 0
AnchorPoint: "Anchor-2" 121 0 basechar 0
LayerCount: 2
Fore
SplineSet
344 476 m 1,1,-1
 344 389 l 1,2,3
 331 390 331 390 309 390 c 0,4,5
 236 390 236 390 201.5 347.5 c 128,-1,6
 167 305 167 305 167 235 c 2,7,-1
 167 0 l 1,8,-1
 75 0 l 1,9,-1
 75 468 l 1,10,-1
 156 468 l 1,11,-1
 165 393 l 1,12,13
 190 438 190 438 230 458 c 128,-1,14
 270 478 270 478 318 478 c 0,15,0
 331 478 331 478 344 476 c 1,1,-1
EndSplineSet
EndChar

StartChar: s
Encoding: 115 115 321
Width: 420
GlyphClass: 2
Flags: W
AnchorPoint: "Anchor-4" 214 468 basechar 0
AnchorPoint: "Anchor-2" 224 0 basechar 0
LayerCount: 2
Fore
SplineSet
94.5 32 m 128,-1,1
 44 74 44 74 40 145 c 1,2,-1
 132 145 l 1,3,4
 136 110 136 110 161.5 89 c 128,-1,5
 187 68 187 68 223 68 c 0,6,7
 260 68 260 68 280 84 c 128,-1,8
 300 100 300 100 300 123 c 0,9,10
 300 152 300 152 276 166.5 c 128,-1,11
 252 181 252 181 201 196 c 0,12,13
 154 210 154 210 123.5 224.5 c 128,-1,14
 93 239 93 239 71.5 267 c 128,-1,15
 50 295 50 295 50 341 c 0,16,17
 50 376 50 376 69 407.5 c 128,-1,18
 88 439 88 439 124.5 458.5 c 128,-1,19
 161 478 161 478 212 478 c 0,20,21
 284 478 284 478 330 439 c 128,-1,22
 376 400 376 400 383 330 c 1,23,-1
 291 330 l 1,24,25
 286 363 286 363 265.5 381.5 c 128,-1,26
 245 400 245 400 212 400 c 0,27,28
 182 400 182 400 162 384 c 128,-1,29
 142 368 142 368 142 341 c 0,30,31
 142 313 142 313 165.5 299 c 128,-1,32
 189 285 189 285 240 269 c 0,33,34
 287 256 287 256 318 241.5 c 128,-1,35
 349 227 349 227 370.5 198.5 c 128,-1,36
 392 170 392 170 392 123 c 0,37,38
 392 85 392 85 370 54.5 c 128,-1,39
 348 24 348 24 309.5 7 c 128,-1,40
 271 -10 271 -10 223 -10 c 0,41,0
 145 -10 145 -10 94.5 32 c 128,-1,1
EndSplineSet
EndChar

StartChar: germandbls
Encoding: 223 223 327
Width: 568
GlyphClass: 1
Flags: W
LayerCount: 2
Fore
SplineSet
64 427 m 2,0,1
 64 547 64 547 125.5 618.5 c 128,-1,2
 187 690 187 690 296 690 c 0,3,4
 356 690 356 690 403 667 c 128,-1,5
 450 644 450 644 476 602.5 c 128,-1,6
 502 561 502 561 502 507 c 0,7,8
 502 443 502 443 468.5 401.5 c 128,-1,9
 435 360 435 360 390 352 c 1,10,-1
 390 350 l 1,11,12
 453 342 453 342 494.5 302 c 128,-1,13
 536 262 536 262 536 196 c 0,14,15
 536 105 536 105 475 52.5 c 128,-1,16
 414 0 414 0 298 0 c 2,17,-1
 234 0 l 1,18,-1
 234 86 l 1,19,-1
 291 86 l 2,20,21
 440 86 440 86 440 196 c 0,22,23
 440 245 440 245 399.5 275.5 c 128,-1,24
 359 306 359 306 285 306 c 2,25,-1
 238 306 l 1,26,-1
 238 392 l 1,27,-1
 285 392 l 2,28,29
 335 392 335 392 370.5 421 c 128,-1,30
 406 450 406 450 406 503 c 0,31,32
 406 549 406 549 373.5 576.5 c 128,-1,33
 341 604 341 604 296 604 c 0,34,35
 232 604 232 604 195 559 c 128,-1,36
 158 514 158 514 158 427 c 2,37,-1
 158 -74 l 1,38,-1
 64 -74 l 1,39,-1
 64 427 l 2,0,1
EndSplineSet
EndChar

StartChar: t
Encoding: 116 116 328
Width: 346
GlyphClass: 2
Flags: W
AnchorPoint: "Anchor-4" 138 625 basechar 0
AnchorPoint: "Anchor-2" 255 0 basechar 0
LayerCount: 2
Fore
SplineSet
320 390 m 1,0,-1
 184 390 l 1,1,-1
 184 162 l 2,2,3
 184 114 184 114 206.5 95.5 c 128,-1,4
 229 77 229 77 278 77 c 2,5,-1
 313 78 l 1,6,-1
 313 1 l 1,7,8
 284 -6 284 -6 253 -6 c 0,9,10
 183 -6 183 -6 137.5 36 c 128,-1,11
 92 78 92 78 92 151 c 2,12,-1
 91 390 l 1,13,-1
 8 390 l 1,14,-1
 8 468 l 1,15,-1
 91 468 l 1,16,-1
 91 625 l 1,17,-1
 184 625 l 1,18,-1
 184 468 l 1,19,-1
 320 468 l 1,20,-1
 320 390 l 1,0,-1
EndSplineSet
Substitution2: "'ss15' Style Set 15 in Latin lookup 33 subtable" t.ss15
Substitution2: "'ss14' Style Set 14 in Latin lookup 32 subtable" t.ss14
Substitution2: "'ss01' Style Set 1 in Latin lookup 19 subtable" t.ss01
Substitution2: "'salt' Stylistic Alternatives in Latin lookup 17 subtable" t.ss01
AlternateSubs2: "'aalt' Access All Alternates in Latin lookup 1 subtable" t.ss01 t.ss14 t.ss15
EndChar

StartChar: t.ss01
Encoding: 65619 -1 329
Width: 317
GlyphClass: 2
Flags: W
AnchorPoint: "Anchor-4" 109 625 basechar 0
AnchorPoint: "Anchor-2" 226 0 basechar 0
LayerCount: 2
Fore
SplineSet
291 390 m 1,0,-1
 155 390 l 1,1,-1
 155 162 l 2,2,3
 155 114 155 114 177.5 95.5 c 128,-1,4
 200 77 200 77 249 77 c 2,5,-1
 284 78 l 1,6,-1
 284 1 l 1,7,8
 255 -6 255 -6 224 -6 c 0,9,10
 154 -6 154 -6 108.5 36 c 128,-1,11
 63 78 63 78 63 151 c 2,12,-1
 62 625 l 1,13,-1
 155 625 l 1,14,-1
 155 468 l 1,15,-1
 291 468 l 1,16,-1
 291 390 l 1,0,-1
EndSplineSet
EndChar

StartChar: t.ss15
Encoding: 65621 -1 331
Width: 341
GlyphClass: 2
Flags: W
AnchorPoint: "Anchor-4" 163 625 basechar 0
AnchorPoint: "Anchor-2" 163 0 basechar 0
LayerCount: 2
Fore
SplineSet
209 468 m 1,0,-1
 327 468 l 1,1,-1
 327 390 l 1,2,-1
 209 390 l 1,3,-1
 209 0 l 1,4,-1
 117 0 l 1,5,-1
 116 390 l 1,6,-1
 10 390 l 1,7,-1
 10 468 l 1,8,-1
 116 468 l 1,9,-1
 116 625 l 1,10,-1
 209 625 l 1,11,-1
 209 468 l 1,0,-1
EndSplineSet
EndChar

StartChar: tbar
Encoding: 359 359 332
Width: 346
GlyphClass: 2
Flags: W
AnchorPoint: "Anchor-4" 138 625 basechar 0
AnchorPoint: "Anchor-2" 255 0 basechar 0
LayerCount: 2
Fore
SplineSet
320 390 m 1,0,-1
 184 390 l 1,1,-1
 184 293 l 1,2,-1
 320 293 l 1,3,-1
 320 217 l 1,4,-1
 184 217 l 1,5,-1
 184 162 l 2,6,7
 184 114 184 114 206.5 95.5 c 128,-1,8
 229 77 229 77 278 77 c 2,9,-1
 313 78 l 1,10,-1
 313 1 l 1,11,12
 284 -6 284 -6 253 -6 c 0,13,14
 183 -6 183 -6 137.5 36 c 128,-1,15
 92 78 92 78 92 151 c 2,16,-1
 92 217 l 1,17,-1
 8 217 l 1,18,-1
 8 293 l 1,19,-1
 92 293 l 1,20,-1
 91 390 l 1,21,-1
 8 390 l 1,22,-1
 8 468 l 1,23,-1
 91 468 l 1,24,-1
 91 625 l 1,25,-1
 184 625 l 1,26,-1
 184 468 l 1,27,-1
 320 468 l 1,28,-1
 320 390 l 1,0,-1
EndSplineSet
Substitution2: "'ss15' Style Set 15 in Latin lookup 33 subtable" tbar.ss15
Substitution2: "'ss14' Style Set 14 in Latin lookup 32 subtable" tbar.ss14
Substitution2: "'ss01' Style Set 1 in Latin lookup 19 subtable" tbar.ss01
Substitution2: "'salt' Stylistic Alternatives in Latin lookup 17 subtable" tbar.ss01
AlternateSubs2: "'aalt' Access All Alternates in Latin lookup 1 subtable" tbar.ss01 tbar.ss14 tbar.ss15
EndChar

StartChar: tbar.ss01
Encoding: 65622 -1 333
Width: 317
GlyphClass: 2
Flags: W
AnchorPoint: "Anchor-4" 109 625 basechar 0
AnchorPoint: "Anchor-2" 226 0 basechar 0
LayerCount: 2
Fore
SplineSet
291 390 m 1,0,-1
 155 390 l 1,1,-1
 155 293 l 1,2,-1
 291 293 l 1,3,-1
 291 217 l 1,4,-1
 155 217 l 1,5,-1
 155 162 l 2,6,7
 155 114 155 114 177.5 95.5 c 128,-1,8
 200 77 200 77 249 77 c 2,9,-1
 284 78 l 1,10,-1
 284 1 l 1,11,12
 255 -6 255 -6 224 -6 c 0,13,14
 154 -6 154 -6 108.5 36 c 128,-1,15
 63 78 63 78 63 151 c 2,16,-1
 62 625 l 1,17,-1
 155 625 l 1,18,-1
 155 468 l 1,19,-1
 291 468 l 1,20,-1
 291 390 l 1,0,-1
EndSplineSet
EndChar

StartChar: tbar.ss15
Encoding: 65624 -1 335
Width: 341
GlyphClass: 1
Flags: W
LayerCount: 2
Fore
SplineSet
327 468 m 1,0,-1
 327 390 l 1,1,-1
 208 390 l 1,2,-1
 208 293 l 1,3,-1
 327 293 l 1,4,-1
 327 217 l 1,5,-1
 208 217 l 1,6,-1
 208 0 l 1,7,-1
 116 0 l 1,8,-1
 116 217 l 1,9,-1
 10 217 l 1,10,-1
 10 293 l 1,11,-1
 116 293 l 1,12,-1
 115 390 l 1,13,-1
 10 390 l 1,14,-1
 10 468 l 1,15,-1
 115 468 l 1,16,-1
 115 625 l 1,17,-1
 208 625 l 1,18,-1
 208 468 l 1,19,-1
 327 468 l 1,0,-1
EndSplineSet
EndChar

StartChar: u
Encoding: 117 117 352
Width: 518
GlyphClass: 2
Flags: W
AnchorPoint: "Anchor-4" 259 468 basechar 0
AnchorPoint: "Anchor-3" 301 0 basechar 0
AnchorPoint: "Anchor-2" 259 0 basechar 0
LayerCount: 2
Fore
SplineSet
153.5 15.5 m 128,-1,1
 108 41 108 41 84 87 c 128,-1,2
 60 133 60 133 60 191 c 2,3,-1
 60 468 l 1,4,-1
 152 468 l 1,5,-1
 152 198 l 2,6,7
 152 140 152 140 179 108 c 128,-1,8
 206 76 206 76 259 76 c 256,9,10
 312 76 312 76 339 108 c 128,-1,11
 366 140 366 140 366 198 c 2,12,-1
 366 468 l 1,13,-1
 458 468 l 1,14,-1
 458 191 l 2,15,16
 458 133 458 133 434 87 c 128,-1,17
 410 41 410 41 364.5 15.5 c 128,-1,18
 319 -10 319 -10 259 -10 c 256,19,0
 199 -10 199 -10 153.5 15.5 c 128,-1,1
EndSplineSet
Substitution2: "'ss16' Style Set 16 in Latin lookup 34 subtable" u.ss16
Substitution2: "'ss02' Style Set 2 in Latin lookup 20 subtable" u.ss02
AlternateSubs2: "'aalt' Access All Alternates in Latin lookup 1 subtable" u.ss02 u.ss16
EndChar

StartChar: u.ss02
Encoding: 65637 -1 353
Width: 558
GlyphClass: 2
Flags: W
AnchorPoint: "Anchor-4" 276 468 basechar 0
AnchorPoint: "Anchor-3" 483 0 basechar 0
AnchorPoint: "Anchor-2" 278 0 basechar 0
LayerCount: 2
Fore
SplineSet
392 468 m 1,0,-1
 483 468 l 1,1,-1
 483 0 l 1,2,-1
 402 0 l 1,3,-1
 394 73 l 1,4,5
 368 30 368 30 328 10 c 128,-1,6
 288 -10 288 -10 244 -10 c 0,7,8
 196 -10 196 -10 156 13 c 128,-1,9
 116 36 116 36 92 81 c 128,-1,10
 68 126 68 126 68 189 c 2,11,-1
 68 468 l 1,12,-1
 160 468 l 1,13,-1
 160 206 l 2,14,15
 160 141 160 141 191.5 107.5 c 128,-1,16
 223 74 223 74 269 74 c 0,17,18
 297 74 297 74 325.5 91 c 128,-1,19
 354 108 354 108 372.5 139.5 c 128,-1,20
 391 171 391 171 391 212 c 2,21,-1
 392 468 l 1,0,-1
EndSplineSet
EndChar

StartChar: uogonek
Encoding: 371 371 388
Width: 518
GlyphClass: 2
Flags: W
AnchorPoint: "Anchor-4" 259 468 basechar 0
AnchorPoint: "Anchor-3" 301 0 basechar 0
AnchorPoint: "Anchor-2" 259 0 basechar 0
LayerCount: 2
Fore
SplineSet
366 468 m 1,0,-1
 458 468 l 1,1,-1
 458 191 l 2,2,3
 458 110 458 110 413 56 c 128,-1,4
 368 2 368 2 290 -8 c 1,5,6
 269 -26 269 -26 254.5 -47 c 128,-1,7
 240 -68 240 -68 240 -89 c 0,8,9
 240 -114 240 -114 255.5 -125 c 128,-1,10
 271 -136 271 -136 296 -136 c 0,11,12
 325 -136 325 -136 346 -129 c 1,13,-1
 346 -183 l 1,14,15
 314 -198 314 -198 275 -198 c 0,16,17
 235 -198 235 -198 204.5 -176 c 128,-1,18
 174 -154 174 -154 174 -116 c 0,19,20
 174 -85 174 -85 192 -57.5 c 128,-1,21
 210 -30 210 -30 238 -9 c 1,22,23
 156 -2 156 -2 108 53 c 128,-1,24
 60 108 60 108 60 191 c 2,25,-1
 60 468 l 1,26,-1
 152 468 l 1,27,-1
 152 198 l 2,28,29
 152 140 152 140 179 108 c 128,-1,30
 206 76 206 76 259 76 c 256,31,32
 312 76 312 76 339 108 c 128,-1,33
 366 140 366 140 366 198 c 2,34,-1
 366 468 l 1,0,-1
EndSplineSet
Substitution2: "'ss16' Style Set 16 in Latin lookup 34 subtable" uogonek.ss16
Substitution2: "'ss02' Style Set 2 in Latin lookup 20 subtable" uogonek.ss02
AlternateSubs2: "'aalt' Access All Alternates in Latin lookup 1 subtable" uogonek.ss02 uogonek.ss16
EndChar

StartChar: uogonek.ss02
Encoding: 65661 -1 389
Width: 558
GlyphClass: 1
Flags: W
LayerCount: 2
Fore
SplineSet
494 -129 m 1,1,-1
 494 -183 l 1,2,3
 462 -198 462 -198 423 -198 c 0,4,5
 383 -198 383 -198 352.5 -176 c 128,-1,6
 322 -154 322 -154 322 -116 c 0,7,8
 322 -80 322 -80 345.5 -49.5 c 128,-1,9
 369 -19 369 -19 402 0 c 1,10,-1
 394 73 l 1,11,12
 368 30 368 30 328 10 c 128,-1,13
 288 -10 288 -10 244 -10 c 0,14,15
 196 -10 196 -10 156 13 c 128,-1,16
 116 36 116 36 92 81 c 128,-1,17
 68 126 68 126 68 189 c 2,18,-1
 68 468 l 1,19,-1
 160 468 l 1,20,-1
 160 206 l 2,21,22
 160 141 160 141 191.5 107.5 c 128,-1,23
 223 74 223 74 269 74 c 0,24,25
 297 74 297 74 325.5 91 c 128,-1,26
 354 108 354 108 372.5 139.5 c 128,-1,27
 391 171 391 171 391 212 c 2,28,-1
 392 468 l 1,29,-1
 483 468 l 1,30,-1
 483 0 l 1,31,-1
 474 -1 l 2,32,33
 456 -3 456 -3 435.5 -15.5 c 128,-1,34
 415 -28 415 -28 401.5 -47 c 128,-1,35
 388 -66 388 -66 388 -89 c 0,36,37
 388 -114 388 -114 403.5 -125 c 128,-1,38
 419 -136 419 -136 444 -136 c 0,39,0
 473 -136 473 -136 494 -129 c 1,1,-1
EndSplineSet
EndChar

StartChar: v
Encoding: 118 118 394
Width: 467
GlyphClass: 1
Flags: W
LayerCount: 2
Fore
SplineSet
190 0 m 1,0,-1
 6 468 l 1,1,-1
 107 468 l 1,2,-1
 213 174 l 2,3,4
 225 141 225 141 231 116 c 1,5,-1
 233 116 l 1,6,7
 239 141 239 141 251 174 c 2,8,-1
 357 468 l 1,9,-1
 459 468 l 1,10,-1
 275 0 l 1,11,-1
 190 0 l 1,0,-1
EndSplineSet
EndChar

StartChar: w
Encoding: 119 119 395
Width: 684
GlyphClass: 2
Flags: W
AnchorPoint: "Anchor-4" 341 468 basechar 0
AnchorPoint: "Anchor-2" 341 0 basechar 0
LayerCount: 2
Fore
SplineSet
147 0 m 1,0,-1
 6 468 l 1,1,-1
 103 468 l 1,2,-1
 181 174 l 2,3,4
 192 133 192 133 196 108 c 1,5,-1
 198 108 l 1,6,7
 202 133 202 133 213 174 c 2,8,-1
 293 468 l 1,9,-1
 389 468 l 1,10,-1
 469 174 l 2,11,12
 480 133 480 133 484 108 c 1,13,-1
 486 108 l 1,14,15
 490 133 490 133 501 174 c 2,16,-1
 579 468 l 1,17,-1
 676 468 l 1,18,-1
 535 0 l 1,19,-1
 438 0 l 1,20,-1
 358 294 l 2,21,22
 347 335 347 335 342 361 c 1,23,-1
 340 361 l 1,24,25
 335 335 335 335 324 294 c 2,26,-1
 244 0 l 1,27,-1
 147 0 l 1,0,-1
EndSplineSet
EndChar

StartChar: x
Encoding: 120 120 400
Width: 477
GlyphClass: 1
Flags: W
LayerCount: 2
Fore
SplineSet
353 468 m 1,0,-1
 469 468 l 1,1,-1
 296 238 l 1,2,-1
 469 0 l 1,3,-1
 353 0 l 1,4,-1
 238 174 l 1,5,-1
 122 0 l 1,6,-1
 6 0 l 1,7,-1
 179 238 l 1,8,-1
 6 468 l 1,9,-1
 122 468 l 1,10,-1
 238 300 l 1,11,-1
 353 468 l 1,0,-1
EndSplineSet
EndChar

StartChar: y
Encoding: 121 121 401
Width: 470
GlyphClass: 2
Flags: W
AnchorPoint: "Anchor-4" 236 468 basechar 0
AnchorPoint: "Anchor-2" 114 -196 basechar 0
LayerCount: 2
Fore
SplineSet
364 468 m 1,0,-1
 462 468 l 1,1,-1
 202 -196 l 1,2,-1
 103 -196 l 1,3,-1
 185 6 l 1,4,-1
 6 468 l 1,5,-1
 108 468 l 1,6,-1
 217 172 l 2,7,8
 230 137 230 137 235 105 c 1,9,-1
 237 105 l 1,10,11
 242 137 242 137 255 172 c 2,12,-1
 364 468 l 1,0,-1
EndSplineSet
Substitution2: "'ss17' Style Set 17 in Latin lookup 35 subtable" y.ss17
Substitution2: "'ss01' Style Set 1 in Latin lookup 19 subtable" y.ss01
Substitution2: "'salt' Stylistic Alternatives in Latin lookup 17 subtable" y.ss01
AlternateSubs2: "'aalt' Access All Alternates in Latin lookup 1 subtable" y.ss01 y.ss17
EndChar

StartChar: y.ss17
Encoding: 65666 -1 403
Width: 522
GlyphClass: 2
Flags: W
AnchorPoint: "Anchor-4" 261 468 basechar 0
AnchorPoint: "Anchor-3" 340 5 basechar 0
AnchorPoint: "Anchor-2" 261 -196 basechar 0
LayerCount: 2
Fore
SplineSet
370 468 m 1,0,-1
 462 468 l 1,1,-1
 462 197 l 2,2,3
 462 122 462 122 421.5 69 c 128,-1,4
 381 16 381 16 311 1 c 1,5,-1
 311 -196 l 1,6,-1
 211 -196 l 1,7,-1
 211 1 l 1,8,9
 141 16 141 16 100.5 69 c 128,-1,10
 60 122 60 122 60 197 c 2,11,-1
 60 468 l 1,12,-1
 152 468 l 1,13,-1
 152 204 l 2,14,15
 152 145 152 145 180 113 c 128,-1,16
 208 81 208 81 261 81 c 256,17,18
 314 81 314 81 342 113 c 128,-1,19
 370 145 370 145 370 204 c 2,20,-1
 370 468 l 1,0,-1
EndSplineSet
EndChar

StartChar: z
Encoding: 122 122 416
Width: 429
GlyphClass: 2
Flags: W
AnchorPoint: "Anchor-4" 221 468 basechar 0
AnchorPoint: "Anchor-2" 215 0 basechar 0
LayerCount: 2
Fore
SplineSet
36 0 m 1,0,-1
 36 74 l 1,1,-1
 283 390 l 1,2,-1
 282 391 l 1,3,4
 264 388 264 388 237 388 c 2,5,-1
 40 388 l 1,6,-1
 40 468 l 1,7,-1
 391 468 l 1,8,-1
 391 394 l 1,9,-1
 144 78 l 1,10,-1
 145 77 l 1,11,12
 163 80 163 80 190 80 c 2,13,-1
 393 80 l 1,14,-1
 393 0 l 1,15,-1
 36 0 l 1,0,-1
EndSplineSet
EndChar

StartChar: f_f
Encoding: 65675 -1 421
Width: 649
GlyphClass: 3
Flags: W
LayerCount: 2
Fore
SplineSet
631 468 m 1,0,-1
 631 390 l 1,1,-1
 500 390 l 1,2,-1
 500 0 l 1,3,-1
 408 0 l 1,4,-1
 408 390 l 1,5,-1
 196 390 l 1,6,-1
 196 0 l 1,7,-1
 104 0 l 1,8,-1
 104 390 l 1,9,-1
 14 390 l 1,10,-1
 14 468 l 1,11,-1
 104 468 l 1,12,-1
 104 529 l 2,13,14
 104 604 104 604 146 647 c 128,-1,15
 188 690 188 690 254 690 c 0,16,17
 282 690 282 690 307 683 c 1,18,-1
 307 607 l 1,19,20
 291 609 291 609 279 609 c 0,21,22
 196 609 196 609 196 527 c 2,23,-1
 196 468 l 1,24,-1
 408 468 l 1,25,-1
 408 529 l 2,26,27
 408 604 408 604 450 647 c 128,-1,28
 492 690 492 690 558 690 c 0,29,30
 586 690 586 690 611 683 c 1,31,-1
 611 607 l 1,32,33
 595 609 595 609 583 609 c 0,34,35
 500 609 500 609 500 527 c 2,36,-1
 500 468 l 1,37,-1
 631 468 l 1,0,-1
EndSplineSet
Substitution2: "'ss01' Style Set 1 in Latin lookup 19 subtable" f_f.ss01
Substitution2: "'salt' Stylistic Alternatives in Latin lookup 17 subtable" f_f.ss01
Ligature2: "'liga' Standard Ligatures in Latin lookup 15 subtable" f f
Substitution2: "'aalt' Access All Alternates in Latin lookup 0 subtable" f_f.ss01
EndChar

StartChar: f_f.ss01
Encoding: 65676 -1 422
Width: 609
GlyphClass: 3
Flags: W
LayerCount: 2
Fore
SplineSet
591 468 m 1,0,-1
 591 390 l 1,1,-1
 460 390 l 1,2,-1
 460 0 l 1,3,-1
 368 0 l 1,4,-1
 368 390 l 1,5,-1
 156 390 l 1,6,-1
 156 0 l 1,7,-1
 64 0 l 1,8,-1
 64 529 l 2,9,10
 64 604 64 604 106 647 c 128,-1,11
 148 690 148 690 214 690 c 0,12,13
 242 690 242 690 267 683 c 1,14,-1
 267 607 l 1,15,16
 251 609 251 609 239 609 c 0,17,18
 156 609 156 609 156 527 c 2,19,-1
 156 468 l 1,20,-1
 368 468 l 1,21,-1
 368 529 l 2,22,23
 368 604 368 604 410 647 c 128,-1,24
 452 690 452 690 518 690 c 0,25,26
 546 690 546 690 571 683 c 1,27,-1
 571 607 l 1,28,29
 555 609 555 609 543 609 c 0,30,31
 460 609 460 609 460 527 c 2,32,-1
 460 468 l 1,33,-1
 591 468 l 1,0,-1
EndSplineSet
EndChar

StartChar: f_f_i
Encoding: 65677 -1 423
Width: 874
GlyphClass: 3
Flags: W
LayerCount: 2
Fore
SplineSet
500 468 m 1,0,-1
 802 468 l 1,1,-1
 802 0 l 1,2,-1
 710 0 l 1,3,-1
 710 390 l 1,4,-1
 500 390 l 1,5,-1
 500 0 l 1,6,-1
 408 0 l 1,7,-1
 408 390 l 1,8,-1
 196 390 l 1,9,-1
 196 0 l 1,10,-1
 104 0 l 1,11,-1
 104 390 l 1,12,-1
 14 390 l 1,13,-1
 14 468 l 1,14,-1
 104 468 l 1,15,-1
 104 529 l 2,16,17
 104 604 104 604 146 647 c 128,-1,18
 188 690 188 690 254 690 c 0,19,20
 282 690 282 690 307 683 c 1,21,-1
 307 607 l 1,22,23
 291 609 291 609 279 609 c 0,24,25
 196 609 196 609 196 527 c 2,26,-1
 196 468 l 1,27,-1
 408 468 l 1,28,-1
 408 489 l 2,29,30
 408 547 408 547 433 593 c 128,-1,31
 458 639 458 639 504 664.5 c 128,-1,32
 550 690 550 690 612 690 c 0,33,34
 691 690 691 690 742 643 c 128,-1,35
 793 596 793 596 801 519 c 1,36,-1
 709 519 l 1,37,38
 703 559 703 559 678 581.5 c 128,-1,39
 653 604 653 604 612 604 c 0,40,41
 557 604 557 604 528.5 572 c 128,-1,42
 500 540 500 540 500 482 c 2,43,-1
 500 468 l 1,0,-1
EndSplineSet
Substitution2: "'ss01' Style Set 1 in Latin lookup 19 subtable" f_f_i.ss01
Substitution2: "'salt' Stylistic Alternatives in Latin lookup 17 subtable" f_f_i.ss01
Ligature2: "'liga' Standard Ligatures in Latin lookup 15 subtable" f f i
Substitution2: "'aalt' Access All Alternates in Latin lookup 0 subtable" f_f_i.ss01
EndChar

StartChar: f_f_i.ss01
Encoding: 65678 -1 424
Width: 809
GlyphClass: 3
Flags: W
LayerCount: 2
Fore
SplineSet
460 468 m 1,0,-1
 748 468 l 1,1,-1
 748 0 l 1,2,-1
 656 0 l 1,3,-1
 656 390 l 1,4,-1
 460 390 l 1,5,-1
 460 0 l 1,6,-1
 368 0 l 1,7,-1
 368 390 l 1,8,-1
 156 390 l 1,9,-1
 156 0 l 1,10,-1
 64 0 l 1,11,-1
 64 529 l 2,12,13
 64 604 64 604 106 647 c 128,-1,14
 148 690 148 690 214 690 c 0,15,16
 242 690 242 690 267 683 c 1,17,-1
 267 607 l 1,18,19
 251 609 251 609 239 609 c 0,20,21
 156 609 156 609 156 527 c 2,22,-1
 156 468 l 1,23,-1
 368 468 l 1,24,-1
 368 529 l 2,25,26
 368 604 368 604 410 647 c 128,-1,27
 452 690 452 690 518 690 c 0,28,29
 546 690 546 690 571 683 c 1,30,-1
 571 607 l 1,31,32
 555 609 555 609 543 609 c 0,33,34
 460 609 460 609 460 527 c 2,35,-1
 460 468 l 1,0,-1
659.5 560 m 128,-1,37
 642 577 642 577 642 602 c 256,38,39
 642 627 642 627 659.5 644.5 c 128,-1,40
 677 662 677 662 702 662 c 256,41,42
 727 662 727 662 744.5 644.5 c 128,-1,43
 762 627 762 627 762 602 c 256,44,45
 762 577 762 577 744.5 560 c 128,-1,46
 727 543 727 543 702 543 c 256,47,36
 677 543 677 543 659.5 560 c 128,-1,37
EndSplineSet
EndChar

StartChar: f_f_l
Encoding: 65679 -1 425
Width: 921
GlyphClass: 3
Flags: W
LayerCount: 2
Fore
SplineSet
737.5 662 m 128,-1,1
 787 634 787 634 814.5 585.5 c 128,-1,2
 842 537 842 537 842 476 c 2,3,-1
 842 0 l 1,4,-1
 750 0 l 1,5,-1
 750 468 l 2,6,7
 750 528 750 528 717 567 c 128,-1,8
 684 606 684 606 625 606 c 256,9,10
 566 606 566 606 533 567 c 128,-1,11
 500 528 500 528 500 468 c 1,12,-1
 629 468 l 1,13,-1
 629 390 l 1,14,-1
 500 390 l 1,15,-1
 500 0 l 1,16,-1
 408 0 l 1,17,-1
 408 390 l 1,18,-1
 196 390 l 1,19,-1
 196 0 l 1,20,-1
 104 0 l 1,21,-1
 104 390 l 1,22,-1
 14 390 l 1,23,-1
 14 468 l 1,24,-1
 104 468 l 1,25,-1
 104 529 l 2,26,27
 104 604 104 604 146 647 c 128,-1,28
 188 690 188 690 254 690 c 0,29,30
 282 690 282 690 307 683 c 1,31,-1
 307 607 l 1,32,33
 291 609 291 609 279 609 c 0,34,35
 196 609 196 609 196 527 c 2,36,-1
 196 468 l 1,37,-1
 408 468 l 1,38,-1
 408 476 l 2,39,40
 408 537 408 537 435.5 585.5 c 128,-1,41
 463 634 463 634 512.5 662 c 128,-1,42
 562 690 562 690 625 690 c 256,43,0
 688 690 688 690 737.5 662 c 128,-1,1
EndSplineSet
Substitution2: "'ss01' Style Set 1 in Latin lookup 19 subtable" f_f_l.ss01
Substitution2: "'salt' Stylistic Alternatives in Latin lookup 17 subtable" f_f_l.ss01
Ligature2: "'liga' Standard Ligatures in Latin lookup 15 subtable" f f l
Substitution2: "'aalt' Access All Alternates in Latin lookup 0 subtable" f_f_l.ss01
EndChar

StartChar: f_f_l.ss01
Encoding: 65680 -1 426
Width: 881
GlyphClass: 3
Flags: W
LayerCount: 2
Fore
SplineSet
697.5 662 m 128,-1,1
 747 634 747 634 774.5 585.5 c 128,-1,2
 802 537 802 537 802 476 c 2,3,-1
 802 0 l 1,4,-1
 710 0 l 1,5,-1
 710 468 l 2,6,7
 710 528 710 528 677 567 c 128,-1,8
 644 606 644 606 585 606 c 256,9,10
 526 606 526 606 493 567 c 128,-1,11
 460 528 460 528 460 468 c 1,12,-1
 589 468 l 1,13,-1
 589 390 l 1,14,-1
 460 390 l 1,15,-1
 460 0 l 1,16,-1
 368 0 l 1,17,-1
 368 390 l 1,18,-1
 156 390 l 1,19,-1
 156 0 l 1,20,-1
 64 0 l 1,21,-1
 64 529 l 2,22,23
 64 604 64 604 106 647 c 128,-1,24
 148 690 148 690 214 690 c 0,25,26
 242 690 242 690 267 683 c 1,27,-1
 267 607 l 1,28,29
 251 609 251 609 239 609 c 0,30,31
 156 609 156 609 156 527 c 2,32,-1
 156 468 l 1,33,-1
 368 468 l 1,34,-1
 368 476 l 2,35,36
 368 537 368 537 395.5 585.5 c 128,-1,37
 423 634 423 634 472.5 662 c 128,-1,38
 522 690 522 690 585 690 c 256,39,0
 648 690 648 690 697.5 662 c 128,-1,1
EndSplineSet
EndChar

StartChar: f_f_t
Encoding: 65681 -1 427
Width: 966
GlyphClass: 3
Flags: W
LayerCount: 2
Fore
SplineSet
940 390 m 1,0,-1
 804 390 l 1,1,-1
 804 162 l 2,2,3
 804 114 804 114 826.5 95.5 c 128,-1,4
 849 77 849 77 898 77 c 2,5,-1
 933 78 l 1,6,-1
 933 1 l 1,7,8
 904 -6 904 -6 873 -6 c 0,9,10
 803 -6 803 -6 757.5 36 c 128,-1,11
 712 78 712 78 712 151 c 2,12,-1
 711 390 l 1,13,-1
 500 390 l 1,14,-1
 500 0 l 1,15,-1
 408 0 l 1,16,-1
 408 390 l 1,17,-1
 196 390 l 1,18,-1
 196 0 l 1,19,-1
 104 0 l 1,20,-1
 104 390 l 1,21,-1
 14 390 l 1,22,-1
 14 468 l 1,23,-1
 104 468 l 1,24,-1
 104 529 l 2,25,26
 104 604 104 604 146 647 c 128,-1,27
 188 690 188 690 254 690 c 0,28,29
 282 690 282 690 307 683 c 1,30,-1
 307 607 l 1,31,32
 291 609 291 609 279 609 c 0,33,34
 196 609 196 609 196 527 c 2,35,-1
 196 468 l 1,36,-1
 408 468 l 1,37,-1
 408 529 l 2,38,39
 408 604 408 604 450 647 c 128,-1,40
 492 690 492 690 558 690 c 0,41,42
 586 690 586 690 611 683 c 1,43,-1
 611 607 l 1,44,45
 595 609 595 609 583 609 c 0,46,47
 500 609 500 609 500 527 c 2,48,-1
 500 468 l 1,49,-1
 711 468 l 1,50,-1
 711 625 l 1,51,-1
 804 625 l 1,52,-1
 804 468 l 1,53,-1
 940 468 l 1,54,-1
 940 390 l 1,0,-1
EndSplineSet
Substitution2: "'ss15' Style Set 15 in Latin lookup 33 subtable" f_f_t.ss15
Substitution2: "'ss01' Style Set 1 in Latin lookup 19 subtable" f_f_t.ss01
Substitution2: "'salt' Stylistic Alternatives in Latin lookup 17 subtable" f_f_t.ss01
Ligature2: "'dlig' Discretionary Ligatures in Latin lookup 14 subtable" f f t
AlternateSubs2: "'aalt' Access All Alternates in Latin lookup 1 subtable" f_f_t.ss01 f_f_t.ss15
EndChar

StartChar: f_f_t.ss01
Encoding: 65682 -1 428
Width: 901
GlyphClass: 3
Flags: W
LayerCount: 2
Fore
SplineSet
875 77 m 1,1,-1
 875 0 l 1,2,3
 853 -6 853 -6 822 -6 c 0,4,5
 736 -6 736 -6 685 40.5 c 128,-1,6
 634 87 634 87 634 170 c 2,7,-1
 634 390 l 1,8,-1
 450 390 l 1,9,-1
 450 0 l 1,10,-1
 358 0 l 1,11,-1
 358 390 l 1,12,-1
 156 390 l 1,13,-1
 156 0 l 1,14,-1
 64 0 l 1,15,-1
 64 510 l 2,16,17
 64 597 64 597 108.5 643.5 c 128,-1,18
 153 690 153 690 227 690 c 0,19,20
 270 690 270 690 292 684 c 1,21,-1
 292 607 l 1,22,23
 274 608 274 608 246 608 c 0,24,25
 200 608 200 608 178 585.5 c 128,-1,26
 156 563 156 563 156 506 c 2,27,-1
 156 468 l 1,28,-1
 358 468 l 1,29,-1
 358 510 l 2,30,31
 358 597 358 597 402.5 643.5 c 128,-1,32
 447 690 447 690 521 690 c 0,33,34
 564 690 564 690 586 684 c 1,35,-1
 586 607 l 1,36,37
 568 608 568 608 540 608 c 0,38,39
 494 608 494 608 472 585.5 c 128,-1,40
 450 563 450 563 450 506 c 2,41,-1
 450 468 l 1,42,-1
 634 468 l 1,43,-1
 634 599 l 1,44,-1
 726 599 l 1,45,-1
 726 468 l 1,46,-1
 862 468 l 1,47,-1
 862 390 l 1,48,-1
 726 390 l 1,49,-1
 726 182 l 2,50,51
 726 128 726 128 754 102 c 128,-1,52
 782 76 782 76 841 76 c 0,53,0
 860 76 860 76 875 77 c 1,1,-1
EndSplineSet
EndChar

StartChar: f_f_t.ss15
Encoding: 65683 -1 429
Width: 930
GlyphClass: 3
Flags: W
LayerCount: 2
Fore
SplineSet
916 468 m 1,0,-1
 916 390 l 1,1,-1
 798 390 l 1,2,-1
 798 0 l 1,3,-1
 706 0 l 1,4,-1
 705 390 l 1,5,-1
 500 390 l 1,6,-1
 500 0 l 1,7,-1
 408 0 l 1,8,-1
 408 390 l 1,9,-1
 196 390 l 1,10,-1
 196 0 l 1,11,-1
 104 0 l 1,12,-1
 104 390 l 1,13,-1
 14 390 l 1,14,-1
 14 468 l 1,15,-1
 104 468 l 1,16,-1
 104 529 l 2,17,18
 104 604 104 604 146 647 c 128,-1,19
 188 690 188 690 254 690 c 0,20,21
 282 690 282 690 307 683 c 1,22,-1
 307 607 l 1,23,24
 291 609 291 609 279 609 c 0,25,26
 196 609 196 609 196 527 c 2,27,-1
 196 468 l 1,28,-1
 408 468 l 1,29,-1
 408 529 l 2,30,31
 408 604 408 604 450 647 c 128,-1,32
 492 690 492 690 558 690 c 0,33,34
 586 690 586 690 611 683 c 1,35,-1
 611 607 l 1,36,37
 595 609 595 609 583 609 c 0,38,39
 500 609 500 609 500 527 c 2,40,-1
 500 468 l 1,41,-1
 705 468 l 1,42,-1
 705 625 l 1,43,-1
 798 625 l 1,44,-1
 798 468 l 1,45,-1
 916 468 l 1,0,-1
EndSplineSet
EndChar

StartChar: f_i.ss01
Encoding: 65684 -1 430
Width: 505
GlyphClass: 3
Flags: W
LayerCount: 2
Fore
SplineSet
156 468 m 1,0,-1
 444 468 l 1,1,-1
 444 0 l 1,2,-1
 352 0 l 1,3,-1
 352 392 l 1,4,-1
 156 392 l 1,5,-1
 156 0 l 1,6,-1
 64 0 l 1,7,-1
 64 510 l 2,8,9
 64 597 64 597 108.5 643.5 c 128,-1,10
 153 690 153 690 227 690 c 0,11,12
 270 690 270 690 292 684 c 1,13,-1
 292 607 l 1,14,15
 274 608 274 608 246 608 c 0,16,17
 200 608 200 608 178 585.5 c 128,-1,18
 156 563 156 563 156 506 c 2,19,-1
 156 468 l 1,0,-1
355.5 560 m 128,-1,21
 338 577 338 577 338 602 c 256,22,23
 338 627 338 627 355.5 644.5 c 128,-1,24
 373 662 373 662 398 662 c 256,25,26
 423 662 423 662 440.5 644.5 c 128,-1,27
 458 627 458 627 458 602 c 256,28,29
 458 577 458 577 440.5 560 c 128,-1,30
 423 543 423 543 398 543 c 256,31,20
 373 543 373 543 355.5 560 c 128,-1,21
EndSplineSet
EndChar

StartChar: f_t
Encoding: 65685 -1 431
Width: 662
GlyphClass: 3
Flags: W
LayerCount: 2
Fore
SplineSet
636 390 m 1,0,-1
 500 390 l 1,1,-1
 500 162 l 2,2,3
 500 114 500 114 522.5 95.5 c 128,-1,4
 545 77 545 77 594 77 c 2,5,-1
 629 78 l 1,6,-1
 629 1 l 1,7,8
 600 -6 600 -6 569 -6 c 0,9,10
 499 -6 499 -6 453.5 36 c 128,-1,11
 408 78 408 78 408 151 c 2,12,-1
 407 390 l 1,13,-1
 196 390 l 1,14,-1
 196 0 l 1,15,-1
 104 0 l 1,16,-1
 104 390 l 1,17,-1
 14 390 l 1,18,-1
 14 468 l 1,19,-1
 104 468 l 1,20,-1
 104 529 l 2,21,22
 104 604 104 604 146 647 c 128,-1,23
 188 690 188 690 254 690 c 0,24,25
 282 690 282 690 307 683 c 1,26,-1
 307 607 l 1,27,28
 291 609 291 609 279 609 c 0,29,30
 196 609 196 609 196 527 c 2,31,-1
 196 468 l 1,32,-1
 407 468 l 1,33,-1
 407 625 l 1,34,-1
 500 625 l 1,35,-1
 500 468 l 1,36,-1
 636 468 l 1,37,-1
 636 390 l 1,0,-1
EndSplineSet
Substitution2: "'ss15' Style Set 15 in Latin lookup 33 subtable" f_t.ss15
Substitution2: "'ss01' Style Set 1 in Latin lookup 19 subtable" f_t.ss01
Substitution2: "'salt' Stylistic Alternatives in Latin lookup 17 subtable" f_t.ss01
Ligature2: "'dlig' Discretionary Ligatures in Latin lookup 14 subtable" f t
AlternateSubs2: "'aalt' Access All Alternates in Latin lookup 1 subtable" f_t.ss01 f_t.ss15
EndChar

StartChar: f_t.ss01
Encoding: 65686 -1 432
Width: 622
GlyphClass: 3
Flags: W
LayerCount: 2
Fore
SplineSet
596 390 m 1,0,-1
 460 390 l 1,1,-1
 460 162 l 2,2,3
 460 114 460 114 482.5 95.5 c 128,-1,4
 505 77 505 77 554 77 c 2,5,-1
 589 78 l 1,6,-1
 589 1 l 1,7,8
 560 -6 560 -6 529 -6 c 0,9,10
 459 -6 459 -6 413.5 36 c 128,-1,11
 368 78 368 78 368 151 c 2,12,-1
 367 390 l 1,13,-1
 156 390 l 1,14,-1
 156 0 l 1,15,-1
 64 0 l 1,16,-1
 64 529 l 2,17,18
 64 604 64 604 106 647 c 128,-1,19
 148 690 148 690 214 690 c 0,20,21
 242 690 242 690 267 683 c 1,22,-1
 267 607 l 1,23,24
 251 609 251 609 239 609 c 0,25,26
 156 609 156 609 156 527 c 2,27,-1
 156 468 l 1,28,-1
 367 468 l 1,29,-1
 367 625 l 1,30,-1
 460 625 l 1,31,-1
 460 468 l 1,32,-1
 596 468 l 1,33,-1
 596 390 l 1,0,-1
EndSplineSet
EndChar

StartChar: f_t.ss15
Encoding: 65687 -1 433
Width: 626
GlyphClass: 3
Flags: W
LayerCount: 2
Fore
SplineSet
612 468 m 1,0,-1
 612 390 l 1,1,-1
 494 390 l 1,2,-1
 494 0 l 1,3,-1
 402 0 l 1,4,-1
 401 390 l 1,5,-1
 196 390 l 1,6,-1
 196 0 l 1,7,-1
 104 0 l 1,8,-1
 104 390 l 1,9,-1
 14 390 l 1,10,-1
 14 468 l 1,11,-1
 104 468 l 1,12,-1
 104 529 l 2,13,14
 104 604 104 604 146 647 c 128,-1,15
 188 690 188 690 254 690 c 0,16,17
 282 690 282 690 307 683 c 1,18,-1
 307 607 l 1,19,20
 291 609 291 609 279 609 c 0,21,22
 196 609 196 609 196 527 c 2,23,-1
 196 468 l 1,24,-1
 401 468 l 1,25,-1
 401 625 l 1,26,-1
 494 625 l 1,27,-1
 494 468 l 1,28,-1
 612 468 l 1,0,-1
EndSplineSet
EndChar

StartChar: fi
Encoding: 64257 64257 434
Width: 580
GlyphClass: 3
Flags: W
LayerCount: 2
Fore
SplineSet
206 468 m 1,0,-1
 508 468 l 1,1,-1
 508 0 l 1,2,-1
 416 0 l 1,3,-1
 416 390 l 1,4,-1
 206 390 l 1,5,-1
 206 0 l 1,6,-1
 114 0 l 1,7,-1
 114 390 l 1,8,-1
 14 390 l 1,9,-1
 14 468 l 1,10,-1
 114 468 l 1,11,-1
 114 489 l 2,12,13
 114 547 114 547 139 593 c 128,-1,14
 164 639 164 639 210 664.5 c 128,-1,15
 256 690 256 690 318 690 c 0,16,17
 397 690 397 690 448 643 c 128,-1,18
 499 596 499 596 507 519 c 1,19,-1
 415 519 l 1,20,21
 409 559 409 559 384 581.5 c 128,-1,22
 359 604 359 604 318 604 c 0,23,24
 263 604 263 604 234.5 572 c 128,-1,25
 206 540 206 540 206 482 c 2,26,-1
 206 468 l 1,0,-1
EndSplineSet
Substitution2: "'ss01' Style Set 1 in Latin lookup 19 subtable" fi.ss01
Substitution2: "'salt' Stylistic Alternatives in Latin lookup 17 subtable" fi.ss01
Ligature2: "'liga' Standard Ligatures in Latin lookup 15 subtable" f i
Substitution2: "'aalt' Access All Alternates in Latin lookup 0 subtable" fi.ss01
EndChar

StartChar: fi.ss01
Encoding: 65688 -1 435
Width: 533
GlyphClass: 3
Flags: W
LayerCount: 2
Fore
SplineSet
156 468 m 1,0,-1
 458 468 l 1,1,-1
 458 0 l 1,2,-1
 366 0 l 1,3,-1
 366 390 l 1,4,-1
 156 390 l 1,5,-1
 156 0 l 1,6,-1
 64 0 l 1,7,-1
 64 489 l 2,8,9
 64 547 64 547 89 593 c 128,-1,10
 114 639 114 639 160 664.5 c 128,-1,11
 206 690 206 690 268 690 c 0,12,13
 347 690 347 690 398 643 c 128,-1,14
 449 596 449 596 457 519 c 1,15,-1
 365 519 l 1,16,17
 359 559 359 559 334 581.5 c 128,-1,18
 309 604 309 604 268 604 c 0,19,20
 213 604 213 604 184.5 572 c 128,-1,21
 156 540 156 540 156 482 c 2,22,-1
 156 468 l 1,0,-1
EndSplineSet
EndChar

StartChar: fl
Encoding: 64258 64258 436
Width: 582
GlyphClass: 3
Flags: W
LayerCount: 2
Fore
SplineSet
461.5 631 m 128,-1,1
 518 572 518 572 518 470 c 2,2,-1
 518 0 l 1,3,-1
 426 0 l 1,4,-1
 426 475 l 2,5,6
 426 537 426 537 395 571.5 c 128,-1,7
 364 606 364 606 311 606 c 256,8,9
 258 606 258 606 227 571.5 c 128,-1,10
 196 537 196 537 196 475 c 2,11,-1
 196 468 l 1,12,-1
 325 468 l 1,13,-1
 325 390 l 1,14,-1
 196 390 l 1,15,-1
 196 0 l 1,16,-1
 104 0 l 1,17,-1
 104 390 l 1,18,-1
 14 390 l 1,19,-1
 14 468 l 1,20,-1
 104 468 l 1,21,-1
 104 470 l 2,22,23
 104 572 104 572 160.5 631 c 128,-1,24
 217 690 217 690 311 690 c 256,25,0
 405 690 405 690 461.5 631 c 128,-1,1
EndSplineSet
Substitution2: "'ss01' Style Set 1 in Latin lookup 19 subtable" fl.ss01
Substitution2: "'salt' Stylistic Alternatives in Latin lookup 17 subtable" fl.ss01
Ligature2: "'liga' Standard Ligatures in Latin lookup 15 subtable" f l
Substitution2: "'aalt' Access All Alternates in Latin lookup 0 subtable" fl.ss01
EndChar

StartChar: fl.ss01
Encoding: 65689 -1 437
Width: 577
GlyphClass: 3
Flags: W
LayerCount: 2
Fore
SplineSet
393.5 662 m 128,-1,1
 443 634 443 634 470.5 585.5 c 128,-1,2
 498 537 498 537 498 476 c 2,3,-1
 498 0 l 1,4,-1
 406 0 l 1,5,-1
 406 468 l 2,6,7
 406 528 406 528 373 567 c 128,-1,8
 340 606 340 606 281 606 c 256,9,10
 222 606 222 606 189 567 c 128,-1,11
 156 528 156 528 156 468 c 1,12,-1
 285 468 l 1,13,-1
 285 390 l 1,14,-1
 156 390 l 1,15,-1
 156 0 l 1,16,-1
 64 0 l 1,17,-1
 64 476 l 2,18,19
 64 537 64 537 91.5 585.5 c 128,-1,20
 119 634 119 634 168.5 662 c 128,-1,21
 218 690 218 690 281 690 c 256,22,0
 344 690 344 690 393.5 662 c 128,-1,1
EndSplineSet
EndChar

StartChar: t_t
Encoding: 65690 -1 438
Width: 646
GlyphClass: 3
Flags: W
LayerCount: 2
Fore
SplineSet
620 390 m 1,0,-1
 484 390 l 1,1,-1
 484 162 l 2,2,3
 484 114 484 114 506.5 95.5 c 128,-1,4
 529 77 529 77 578 77 c 2,5,-1
 613 78 l 1,6,-1
 613 1 l 1,7,8
 584 -6 584 -6 553 -6 c 0,9,10
 483 -6 483 -6 437.5 36 c 128,-1,11
 392 78 392 78 392 151 c 2,12,-1
 391 390 l 1,13,-1
 184 390 l 1,14,-1
 184 162 l 2,15,16
 184 114 184 114 206.5 95.5 c 128,-1,17
 229 77 229 77 278 77 c 2,18,-1
 313 78 l 1,19,-1
 313 1 l 1,20,21
 284 -6 284 -6 253 -6 c 0,22,23
 183 -6 183 -6 137.5 36 c 128,-1,24
 92 78 92 78 92 151 c 2,25,-1
 91 390 l 1,26,-1
 8 390 l 1,27,-1
 8 468 l 1,28,-1
 91 468 l 1,29,-1
 91 625 l 1,30,-1
 184 625 l 1,31,-1
 184 468 l 1,32,-1
 391 468 l 1,33,-1
 391 625 l 1,34,-1
 484 625 l 1,35,-1
 484 468 l 1,36,-1
 620 468 l 1,37,-1
 620 390 l 1,0,-1
EndSplineSet
Substitution2: "'ss15' Style Set 15 in Latin lookup 33 subtable" t_t.ss15
Substitution2: "'ss01' Style Set 1 in Latin lookup 19 subtable" t_t.ss01
Substitution2: "'salt' Stylistic Alternatives in Latin lookup 17 subtable" t_t.ss01
Ligature2: "'dlig' Discretionary Ligatures in Latin lookup 14 subtable" t t
AlternateSubs2: "'aalt' Access All Alternates in Latin lookup 1 subtable" t_t.ss01 t_t.ss15
EndChar

StartChar: t_t.ss01
Encoding: 65691 -1 439
Width: 617
GlyphClass: 3
Flags: W
LayerCount: 2
Fore
SplineSet
591 390 m 1,0,-1
 455 390 l 1,1,-1
 455 162 l 2,2,3
 455 114 455 114 477.5 95.5 c 128,-1,4
 500 77 500 77 549 77 c 2,5,-1
 584 78 l 1,6,-1
 584 1 l 1,7,8
 555 -6 555 -6 524 -6 c 0,9,10
 454 -6 454 -6 408.5 36 c 128,-1,11
 363 78 363 78 363 151 c 2,12,-1
 362 390 l 1,13,-1
 155 390 l 1,14,-1
 155 162 l 2,15,16
 155 114 155 114 177.5 95.5 c 128,-1,17
 200 77 200 77 249 77 c 2,18,-1
 284 78 l 1,19,-1
 284 1 l 1,20,21
 255 -6 255 -6 224 -6 c 0,22,23
 154 -6 154 -6 108.5 36 c 128,-1,24
 63 78 63 78 63 151 c 2,25,-1
 62 625 l 1,26,-1
 155 625 l 1,27,-1
 155 468 l 1,28,-1
 362 468 l 1,29,-1
 362 625 l 1,30,-1
 455 625 l 1,31,-1
 455 468 l 1,32,-1
 591 468 l 1,33,-1
 591 390 l 1,0,-1
EndSplineSet
EndChar

StartChar: t_t.ss15
Encoding: 65692 -1 440
Width: 639
GlyphClass: 3
Flags: W
LayerCount: 2
Fore
SplineSet
507 468 m 1,0,-1
 625 468 l 1,1,-1
 625 390 l 1,2,-1
 507 390 l 1,3,-1
 507 0 l 1,4,-1
 415 0 l 1,5,-1
 414 390 l 1,6,-1
 209 390 l 1,7,-1
 209 0 l 1,8,-1
 117 0 l 1,9,-1
 116 390 l 1,10,-1
 10 390 l 1,11,-1
 10 468 l 1,12,-1
 116 468 l 1,13,-1
 116 625 l 1,14,-1
 209 625 l 1,15,-1
 209 468 l 1,16,-1
 414 468 l 1,17,-1
 414 625 l 1,18,-1
 507 625 l 1,19,-1
 507 468 l 1,0,-1
EndSplineSet
EndChar

StartChar: ordfeminine
Encoding: 170 170 441
Width: 253
GlyphClass: 2
Flags: W
AnchorPoint: "Anchor-4" 130 686 basechar 0
AnchorPoint: "Anchor-3" 235 473 basechar 0
AnchorPoint: "Anchor-2" 130 473 basechar 0
LayerCount: 2
Fore
SplineSet
198 686 m 1,0,-1
 235 686 l 1,1,-1
 235 473 l 1,2,-1
 198 473 l 1,3,-1
 194 506 l 1,4,5
 182 488 182 488 162 478 c 128,-1,6
 142 468 142 468 120 468 c 0,7,8
 78 468 78 468 47.5 498.5 c 128,-1,9
 17 529 17 529 17 579 c 0,10,11
 17 630 17 630 47 660 c 128,-1,12
 77 690 77 690 120 690 c 0,13,14
 142 690 142 690 162 680.5 c 128,-1,15
 182 671 182 671 194 653 c 1,16,-1
 198 686 l 1,0,-1
174 527 m 128,-1,18
 194 547 194 547 194 579 c 256,19,20
 194 611 194 611 174 631.5 c 128,-1,21
 154 652 154 652 127 652 c 0,22,23
 99 652 99 652 79 632.5 c 128,-1,24
 59 613 59 613 59 579 c 0,25,26
 59 546 59 546 79 526.5 c 128,-1,27
 99 507 99 507 127 507 c 0,28,17
 154 507 154 507 174 527 c 128,-1,18
233 400 m 1,29,-1
 28 400 l 1,30,-1
 28 434 l 1,31,-1
 233 434 l 1,32,-1
 233 400 l 1,29,-1
EndSplineSet
EndChar

StartChar: ordmasculine
Encoding: 186 186 442
Width: 254
GlyphClass: 2
Flags: W
AnchorPoint: "Anchor-4" 127 686 basechar 0
AnchorPoint: "Anchor-3" 144 473 basechar 0
AnchorPoint: "Anchor-2" 127 473 basechar 0
LayerCount: 2
Fore
SplineSet
48.5 500 m 128,-1,1
 17 532 17 532 17 579 c 256,2,3
 17 626 17 626 48.5 658 c 128,-1,4
 80 690 80 690 127 690 c 256,5,6
 174 690 174 690 205.5 658 c 128,-1,7
 237 626 237 626 237 579 c 256,8,9
 237 532 237 532 205.5 500 c 128,-1,10
 174 468 174 468 127 468 c 256,11,0
 80 468 80 468 48.5 500 c 128,-1,1
175.5 527.5 m 128,-1,13
 195 548 195 548 195 579 c 0,14,15
 195 611 195 611 175.5 631.5 c 128,-1,16
 156 652 156 652 127 652 c 256,17,18
 98 652 98 652 78.5 631.5 c 128,-1,19
 59 611 59 611 59 579 c 0,20,21
 59 548 59 548 78.5 527.5 c 128,-1,22
 98 507 98 507 127 507 c 256,23,12
 156 507 156 507 175.5 527.5 c 128,-1,13
237 400 m 1,24,-1
 19 400 l 1,25,-1
 19 434 l 1,26,-1
 237 434 l 1,27,-1
 237 400 l 1,24,-1
EndSplineSet
EndChar

StartChar: uni0394
Encoding: 916 916 443
Width: 612
GlyphClass: 1
Flags: W
LayerCount: 2
Fore
SplineSet
274 680 m 1,0,-1
 338 680 l 1,1,-1
 598 0 l 1,2,-1
 14 0 l 1,3,-1
 274 680 l 1,0,-1
307 555 m 1,4,-1
 305 555 l 1,5,-1
 123 74 l 1,6,-1
 489 74 l 1,7,-1
 307 555 l 1,4,-1
EndSplineSet
EndChar

StartChar: pi
Encoding: 960 960 444
Width: 525
GlyphClass: 1
Flags: W
LayerCount: 2
Fore
SplineSet
16 468 m 1,0,-1
 509 468 l 1,1,-1
 509 390 l 1,2,-1
 427 390 l 1,3,-1
 427 0 l 1,4,-1
 335 0 l 1,5,-1
 335 390 l 1,6,-1
 190 390 l 1,7,-1
 190 0 l 1,8,-1
 98 0 l 1,9,-1
 98 390 l 1,10,-1
 16 390 l 1,11,-1
 16 468 l 1,0,-1
EndSplineSet
EndChar

StartChar: zero
Encoding: 48 48 445
Width: 604
GlyphClass: 1
Flags: W
LayerCount: 2
Fore
SplineSet
168.5 34 m 128,-1,1
 113 78 113 78 83.5 157 c 128,-1,2
 54 236 54 236 54 340 c 256,3,4
 54 444 54 444 83.5 523 c 128,-1,5
 113 602 113 602 168.5 646 c 128,-1,6
 224 690 224 690 302 690 c 256,7,8
 380 690 380 690 435.5 646 c 128,-1,9
 491 602 491 602 520.5 523 c 128,-1,10
 550 444 550 444 550 340 c 256,11,12
 550 236 550 236 520.5 157 c 128,-1,13
 491 78 491 78 435.5 34 c 128,-1,14
 380 -10 380 -10 302 -10 c 256,15,0
 224 -10 224 -10 168.5 34 c 128,-1,1
417.5 147 m 128,-1,17
 456 218 456 218 456 340 c 256,18,19
 456 462 456 462 417.5 533 c 128,-1,20
 379 604 379 604 302 604 c 256,21,22
 225 604 225 604 186.5 533 c 128,-1,23
 148 462 148 462 148 340 c 256,24,25
 148 218 148 218 186.5 147 c 128,-1,26
 225 76 225 76 302 76 c 256,27,16
 379 76 379 76 417.5 147 c 128,-1,17
EndSplineSet
Substitution2: "'zero' Slashed Zero in Latin lookup 16 subtable" zero.zero
Substitution2: "'onum' Oldstyle Figures in Latin lookup 12 subtable" zero.osf
Substitution2: "'tnum' Tabular Numbers in Latin lookup 11 subtable" zero.tf
Substitution2: "'dnom' Denominators in Latin lookup 6 subtable" zero.dnom
Substitution2: "'sups' Superscript in Latin lookup 5 subtable" uni2070
AlternateSubs2: "'aalt' Access All Alternates in Latin lookup 1 subtable" uni2070 zero.dnom zero.tf zero.osf zero.zero
EndChar

StartChar: zero.osf
Encoding: 65693 -1 446
Width: 648
GlyphClass: 1
Flags: W
LayerCount: 2
Fore
SplineSet
175.5 29 m 128,-1,1
 108 68 108 68 69 135.5 c 128,-1,2
 30 203 30 203 30 285 c 0,3,4
 30 366 30 366 69 433.5 c 128,-1,5
 108 501 108 501 175.5 540 c 128,-1,6
 243 579 243 579 324 579 c 256,7,8
 405 579 405 579 472.5 540 c 128,-1,9
 540 501 540 501 579 433.5 c 128,-1,10
 618 366 618 366 618 285 c 0,11,12
 618 203 618 203 579 135.5 c 128,-1,13
 540 68 540 68 472.5 29 c 128,-1,14
 405 -10 405 -10 324 -10 c 256,15,0
 243 -10 243 -10 175.5 29 c 128,-1,1
426 108.5 m 128,-1,17
 472 135 472 135 498 181.5 c 128,-1,18
 524 228 524 228 524 285 c 256,19,20
 524 342 524 342 498 388 c 128,-1,21
 472 434 472 434 426.5 460.5 c 128,-1,22
 381 487 381 487 324 487 c 256,23,24
 267 487 267 487 221.5 460.5 c 128,-1,25
 176 434 176 434 150 388 c 128,-1,26
 124 342 124 342 124 285 c 256,27,28
 124 228 124 228 150 181.5 c 128,-1,29
 176 135 176 135 222 108.5 c 128,-1,30
 268 82 268 82 324 82 c 256,31,16
 380 82 380 82 426 108.5 c 128,-1,17
EndSplineSet
Substitution2: "'lnum' Lining Figures in Latin lookup 9 subtable" zero
AlternateSubs2: "'aalt' Access All Alternates in Latin lookup 1 subtable" zero
EndChar

StartChar: zero.tf
Encoding: 65694 -1 447
Width: 570
GlyphClass: 1
Flags: W
LayerCount: 2
Fore
SplineSet
151.5 34 m 128,-1,1
 96 78 96 78 66.5 157 c 128,-1,2
 37 236 37 236 37 340 c 256,3,4
 37 444 37 444 66.5 523 c 128,-1,5
 96 602 96 602 151.5 646 c 128,-1,6
 207 690 207 690 285 690 c 256,7,8
 363 690 363 690 418.5 646 c 128,-1,9
 474 602 474 602 503.5 523 c 128,-1,10
 533 444 533 444 533 340 c 256,11,12
 533 236 533 236 503.5 157 c 128,-1,13
 474 78 474 78 418.5 34 c 128,-1,14
 363 -10 363 -10 285 -10 c 256,15,0
 207 -10 207 -10 151.5 34 c 128,-1,1
400.5 147 m 128,-1,17
 439 218 439 218 439 340 c 256,18,19
 439 462 439 462 400.5 533 c 128,-1,20
 362 604 362 604 285 604 c 256,21,22
 208 604 208 604 169.5 533 c 128,-1,23
 131 462 131 462 131 340 c 256,24,25
 131 218 131 218 169.5 147 c 128,-1,26
 208 76 208 76 285 76 c 256,27,16
 362 76 362 76 400.5 147 c 128,-1,17
EndSplineSet
Substitution2: "'pnum' Proportional Numbers in Latin lookup 10 subtable" zero
AlternateSubs2: "'aalt' Access All Alternates in Latin lookup 1 subtable" zero
EndChar

StartChar: zero.zero
Encoding: 65695 -1 448
Width: 604
GlyphClass: 1
Flags: W
LayerCount: 2
Fore
SplineSet
435.5 646 m 128,-1,1
 491 602 491 602 520.5 523 c 128,-1,2
 550 444 550 444 550 340 c 256,3,4
 550 236 550 236 520.5 157 c 128,-1,5
 491 78 491 78 435.5 34 c 128,-1,6
 380 -10 380 -10 302 -10 c 256,7,8
 224 -10 224 -10 168.5 34 c 128,-1,9
 113 78 113 78 83.5 157 c 128,-1,10
 54 236 54 236 54 340 c 256,11,12
 54 444 54 444 83.5 523 c 128,-1,13
 113 602 113 602 168.5 646 c 128,-1,14
 224 690 224 690 302 690 c 256,15,0
 380 690 380 690 435.5 646 c 128,-1,1
186.5 533 m 128,-1,17
 148 462 148 462 148 340 c 0,18,19
 148 223 148 223 182 155 c 1,20,-1
 364 589 l 1,21,22
 337 604 337 604 302 604 c 0,23,16
 225 604 225 604 186.5 533 c 128,-1,17
417.5 147 m 128,-1,25
 456 218 456 218 456 340 c 0,26,27
 456 460 456 460 420 530 c 1,28,-1
 236 93 l 1,29,30
 265 76 265 76 302 76 c 0,31,24
 379 76 379 76 417.5 147 c 128,-1,25
EndSplineSet
EndChar

StartChar: one
Encoding: 49 49 449
Width: 353
GlyphClass: 1
Flags: W
LayerCount: 2
Fore
SplineSet
40 568 m 1,0,-1
 190 680 l 1,1,-1
 271 680 l 1,2,-1
 271 0 l 1,3,-1
 178 0 l 1,4,-1
 178 568 l 1,5,-1
 40 464 l 1,6,-1
 40 568 l 1,0,-1
EndSplineSet
Substitution2: "'ss18' Style Set 18 in Latin lookup 36 subtable" one.ss18
Substitution2: "'onum' Oldstyle Figures in Latin lookup 12 subtable" one.osf
Substitution2: "'tnum' Tabular Numbers in Latin lookup 11 subtable" one.tf
Substitution2: "'dnom' Denominators in Latin lookup 6 subtable" one.dnom
Substitution2: "'sups' Superscript in Latin lookup 5 subtable" uni00B9
AlternateSubs2: "'aalt' Access All Alternates in Latin lookup 1 subtable" uni00B9 one.dnom one.tf one.osf one.ss18
EndChar

StartChar: one.osf
Encoding: 65696 -1 450
Width: 344
GlyphClass: 1
Flags: W
LayerCount: 2
Fore
SplineSet
28 448 m 1,0,-1
 204 568 l 1,1,-1
 283 568 l 1,2,-1
 283 0 l 1,3,-1
 190 0 l 1,4,-1
 190 465 l 1,5,-1
 28 354 l 1,6,-1
 28 448 l 1,0,-1
EndSplineSet
Substitution2: "'lnum' Lining Figures in Latin lookup 9 subtable" one
AlternateSubs2: "'aalt' Access All Alternates in Latin lookup 1 subtable" one
EndChar

StartChar: one.ss18
Encoding: 65697 -1 451
Width: 319
GlyphClass: 1
Flags: W
LayerCount: 2
Fore
SplineSet
34 591 m 1,0,-1
 35 680 l 1,1,-1
 244 680 l 1,2,-1
 244 0 l 1,3,-1
 150 0 l 1,4,-1
 150 591 l 1,5,-1
 34 591 l 1,0,-1
EndSplineSet
EndChar

StartChar: one.tf
Encoding: 65698 -1 452
Width: 570
GlyphClass: 1
Flags: W
LayerCount: 2
Fore
SplineSet
339 680 m 1,0,-1
 339 86 l 1,1,-1
 513 86 l 1,2,-1
 513 0 l 1,3,-1
 68 0 l 1,4,-1
 68 86 l 1,5,-1
 246 86 l 1,6,-1
 246 567 l 1,7,-1
 68 436 l 1,8,-1
 68 540 l 1,9,-1
 258 680 l 1,10,-1
 339 680 l 1,0,-1
EndSplineSet
Substitution2: "'pnum' Proportional Numbers in Latin lookup 10 subtable" one
AlternateSubs2: "'aalt' Access All Alternates in Latin lookup 1 subtable" one
EndChar

StartChar: two
Encoding: 50 50 453
Width: 515
GlyphClass: 1
Flags: W
LayerCount: 2
Fore
SplineSet
36 0 m 1,0,-1
 36 78 l 1,1,-1
 196 202 l 2,2,3
 299 282 299 282 347 345.5 c 128,-1,4
 395 409 395 409 395 473 c 0,5,6
 395 534 395 534 355.5 569 c 128,-1,7
 316 604 316 604 262 604 c 0,8,9
 192 604 192 604 154 561.5 c 128,-1,10
 116 519 116 519 114 453 c 1,11,-1
 20 453 l 1,12,13
 21 520 21 520 49 574 c 128,-1,14
 77 628 77 628 131.5 659 c 128,-1,15
 186 690 186 690 262 690 c 0,16,17
 329 690 329 690 380.5 662.5 c 128,-1,18
 432 635 432 635 460.5 585.5 c 128,-1,19
 489 536 489 536 489 473 c 0,20,21
 489 392 489 392 435 317 c 128,-1,22
 381 242 381 242 265 159 c 2,23,-1
 165 88 l 1,24,-1
 165 86 l 1,25,-1
 481 86 l 1,26,-1
 481 0 l 1,27,-1
 36 0 l 1,0,-1
EndSplineSet
Substitution2: "'onum' Oldstyle Figures in Latin lookup 12 subtable" two.osf
Substitution2: "'tnum' Tabular Numbers in Latin lookup 11 subtable" two.tf
Substitution2: "'dnom' Denominators in Latin lookup 6 subtable" two.dnom
Substitution2: "'sups' Superscript in Latin lookup 5 subtable" uni00B2
AlternateSubs2: "'aalt' Access All Alternates in Latin lookup 1 subtable" uni00B2 two.dnom two.tf two.osf
EndChar

StartChar: two.osf
Encoding: 65699 -1 454
Width: 505
GlyphClass: 1
Flags: W
LayerCount: 2
Fore
SplineSet
39 0 m 1,0,-1
 39 77 l 1,1,-1
 166 149 l 2,2,3
 263 204 263 204 317 256.5 c 128,-1,4
 371 309 371 309 371 378 c 0,5,6
 371 432 371 432 338 463 c 128,-1,7
 305 494 305 494 258 494 c 0,8,9
 199 494 199 494 165.5 458 c 128,-1,10
 132 422 132 422 124 370 c 1,11,-1
 28 370 l 1,12,13
 32 424 32 424 57.5 471 c 128,-1,14
 83 518 83 518 133.5 548 c 128,-1,15
 184 578 184 578 258 578 c 0,16,17
 356 578 356 578 410.5 523 c 128,-1,18
 465 468 465 468 465 378 c 0,19,20
 465 282 465 282 405 221.5 c 128,-1,21
 345 161 345 161 264 119 c 2,22,-1
 201 86 l 1,23,-1
 201 85 l 1,24,-1
 460 85 l 1,25,-1
 460 0 l 1,26,-1
 39 0 l 1,0,-1
EndSplineSet
Substitution2: "'lnum' Lining Figures in Latin lookup 9 subtable" two
AlternateSubs2: "'aalt' Access All Alternates in Latin lookup 1 subtable" two
EndChar

StartChar: two.tf
Encoding: 65700 -1 455
Width: 570
GlyphClass: 1
Flags: W
LayerCount: 2
Fore
SplineSet
63 0 m 1,0,-1
 63 77 l 1,1,-1
 223 201 l 2,2,3
 325 280 325 280 373 344.5 c 128,-1,4
 421 409 421 409 421 473 c 0,5,6
 421 536 421 536 384 569.5 c 128,-1,7
 347 603 347 603 290 603 c 0,8,9
 219 603 219 603 181 561 c 128,-1,10
 143 519 143 519 141 453 c 1,11,-1
 47 453 l 1,12,13
 48 520 48 520 76 574 c 128,-1,14
 104 628 104 628 158.5 659 c 128,-1,15
 213 690 213 690 290 690 c 0,16,17
 392 690 392 690 454 632 c 128,-1,18
 516 574 516 574 516 473 c 0,19,20
 516 392 516 392 462 316.5 c 128,-1,21
 408 241 408 241 292 158 c 2,22,-1
 192 87 l 1,23,-1
 192 85 l 1,24,-1
 508 85 l 1,25,-1
 508 0 l 1,26,-1
 63 0 l 1,0,-1
EndSplineSet
Substitution2: "'pnum' Proportional Numbers in Latin lookup 10 subtable" two
AlternateSubs2: "'aalt' Access All Alternates in Latin lookup 1 subtable" two
EndChar

StartChar: three
Encoding: 51 51 456
Width: 550
GlyphClass: 1
Flags: W
LayerCount: 2
Fore
SplineSet
152 18 m 128,-1,1
 99 46 99 46 71 92.5 c 128,-1,2
 43 139 43 139 40 193 c 1,3,-1
 140 193 l 1,4,5
 149 137 149 137 187.5 106.5 c 128,-1,6
 226 76 226 76 280 76 c 0,7,8
 337 76 337 76 373.5 107 c 128,-1,9
 410 138 410 138 410 191 c 0,10,11
 410 249 410 249 368 280 c 128,-1,12
 326 311 326 311 271 311 c 2,13,-1
 222 311 l 1,14,-1
 222 395 l 1,15,-1
 257 395 l 2,16,17
 311 395 311 395 346.5 421 c 128,-1,18
 382 447 382 447 382 499 c 0,19,20
 382 548 382 548 351.5 576 c 128,-1,21
 321 604 321 604 276 604 c 0,22,23
 220 604 220 604 191.5 572.5 c 128,-1,24
 163 541 163 541 156 493 c 1,25,-1
 60 493 l 1,26,27
 62 537 62 537 84 582.5 c 128,-1,28
 106 628 106 628 154.5 659 c 128,-1,29
 203 690 203 690 278 690 c 0,30,31
 368 690 368 690 423 642.5 c 128,-1,32
 478 595 478 595 478 511 c 0,33,34
 478 449 478 449 448 410 c 128,-1,35
 418 371 418 371 384 358 c 1,36,-1
 384 356 l 1,37,38
 432 341 432 341 469 298 c 128,-1,39
 506 255 506 255 506 180 c 0,40,41
 506 125 506 125 476.5 81.5 c 128,-1,42
 447 38 447 38 395.5 14 c 128,-1,43
 344 -10 344 -10 280 -10 c 0,44,0
 205 -10 205 -10 152 18 c 128,-1,1
EndSplineSet
Substitution2: "'onum' Oldstyle Figures in Latin lookup 12 subtable" three.osf
Substitution2: "'tnum' Tabular Numbers in Latin lookup 11 subtable" three.tf
Substitution2: "'dnom' Denominators in Latin lookup 6 subtable" three.dnom
Substitution2: "'sups' Superscript in Latin lookup 5 subtable" uni00B3
AlternateSubs2: "'aalt' Access All Alternates in Latin lookup 1 subtable" uni00B3 three.dnom three.tf three.osf
EndChar

StartChar: three.tf
Encoding: 65702 -1 458
Width: 570
GlyphClass: 1
Flags: W
LayerCount: 2
Fore
SplineSet
163.5 17.5 m 128,-1,1
 111 45 111 45 82 91 c 128,-1,2
 53 137 53 137 50 193 c 1,3,-1
 150 193 l 1,4,5
 159 137 159 137 197.5 106.5 c 128,-1,6
 236 76 236 76 290 76 c 0,7,8
 347 76 347 76 383.5 107 c 128,-1,9
 420 138 420 138 420 191 c 0,10,11
 420 249 420 249 378 280 c 128,-1,12
 336 311 336 311 281 311 c 2,13,-1
 232 311 l 1,14,-1
 232 395 l 1,15,-1
 267 395 l 2,16,17
 321 395 321 395 356.5 421.5 c 128,-1,18
 392 448 392 448 392 500 c 0,19,20
 392 549 392 549 361.5 576.5 c 128,-1,21
 331 604 331 604 283 604 c 0,22,23
 229 604 229 604 200.5 571.5 c 128,-1,24
 172 539 172 539 166 493 c 1,25,-1
 70 493 l 1,26,27
 72 537 72 537 94 582.5 c 128,-1,28
 116 628 116 628 164.5 659 c 128,-1,29
 213 690 213 690 288 690 c 0,30,31
 378 690 378 690 433 643 c 128,-1,32
 488 596 488 596 488 513 c 0,33,34
 488 449 488 449 458 410 c 128,-1,35
 428 371 428 371 394 358 c 1,36,-1
 394 356 l 1,37,38
 440 342 440 342 478 298.5 c 128,-1,39
 516 255 516 255 516 185 c 0,40,41
 516 126 516 126 486.5 82 c 128,-1,42
 457 38 457 38 405 14 c 128,-1,43
 353 -10 353 -10 287 -10 c 0,44,0
 216 -10 216 -10 163.5 17.5 c 128,-1,1
EndSplineSet
Substitution2: "'pnum' Proportional Numbers in Latin lookup 10 subtable" three
AlternateSubs2: "'aalt' Access All Alternates in Latin lookup 1 subtable" three
EndChar

StartChar: four
Encoding: 52 52 459
Width: 569
GlyphClass: 1
Flags: W
LayerCount: 2
Fore
SplineSet
448 244 m 1,0,-1
 537 244 l 1,1,-1
 537 160 l 1,2,-1
 448 160 l 1,3,-1
 448 0 l 1,4,-1
 355 0 l 1,5,-1
 355 160 l 1,6,-1
 20 160 l 1,7,-1
 20 234 l 1,8,-1
 318 680 l 1,9,-1
 448 680 l 1,10,-1
 448 244 l 1,0,-1
120 244 m 1,11,-1
 355 244 l 1,12,-1
 355 592 l 1,13,-1
 353 592 l 1,14,15
 348 581 348 581 340 568 c 2,16,-1
 158 293 l 2,17,18
 132 256 132 256 120 246 c 1,19,-1
 120 244 l 1,11,-1
EndSplineSet
Substitution2: "'onum' Oldstyle Figures in Latin lookup 12 subtable" four.osf
Substitution2: "'tnum' Tabular Numbers in Latin lookup 11 subtable" four.tf
Substitution2: "'dnom' Denominators in Latin lookup 6 subtable" four.dnom
Substitution2: "'sups' Superscript in Latin lookup 5 subtable" uni2074
AlternateSubs2: "'aalt' Access All Alternates in Latin lookup 1 subtable" uni2074 four.dnom four.tf four.osf
EndChar

StartChar: four.tf
Encoding: 65704 -1 461
Width: 570
GlyphClass: 1
Flags: W
LayerCount: 2
Fore
SplineSet
448 244 m 1,0,-1
 537 244 l 1,1,-1
 537 160 l 1,2,-1
 448 160 l 1,3,-1
 448 0 l 1,4,-1
 355 0 l 1,5,-1
 355 160 l 1,6,-1
 20 160 l 1,7,-1
 20 234 l 1,8,-1
 318 680 l 1,9,-1
 448 680 l 1,10,-1
 448 244 l 1,0,-1
120 244 m 1,11,-1
 355 244 l 1,12,-1
 355 592 l 1,13,-1
 353 592 l 1,14,15
 348 579 348 579 340 568 c 2,16,-1
 158 293 l 2,17,18
 135 259 135 259 120 246 c 1,19,-1
 120 244 l 1,11,-1
EndSplineSet
Substitution2: "'pnum' Proportional Numbers in Latin lookup 10 subtable" four
AlternateSubs2: "'aalt' Access All Alternates in Latin lookup 1 subtable" four
EndChar

StartChar: five
Encoding: 53 53 462
Width: 555
GlyphClass: 1
Flags: W
LayerCount: 2
Fore
SplineSet
416 419 m 128,-1,1
 463 395 463 395 494 345.5 c 128,-1,2
 525 296 525 296 525 223 c 0,3,4
 525 147 525 147 491.5 94.5 c 128,-1,5
 458 42 458 42 405 16 c 128,-1,6
 352 -10 352 -10 292 -10 c 0,7,8
 220 -10 220 -10 166.5 18 c 128,-1,9
 113 46 113 46 83 92.5 c 128,-1,10
 53 139 53 139 50 193 c 1,11,-1
 148 193 l 1,12,13
 156 133 156 133 196.5 102.5 c 128,-1,14
 237 72 237 72 292 72 c 0,15,16
 328 72 328 72 360 88.5 c 128,-1,17
 392 105 392 105 411.5 138 c 128,-1,18
 431 171 431 171 431 218 c 0,19,20
 431 262 431 262 412.5 295 c 128,-1,21
 394 328 394 328 363.5 346 c 128,-1,22
 333 364 333 364 297 364 c 0,23,24
 212 364 212 364 155 289 c 1,25,-1
 64 289 l 1,26,-1
 124 680 l 1,27,-1
 477 680 l 1,28,-1
 477 596 l 1,29,-1
 202 596 l 1,30,-1
 170 397 l 1,31,-1
 172 397 l 1,32,33
 184 410 184 410 223 426.5 c 128,-1,34
 262 443 262 443 320 443 c 0,35,0
 369 443 369 443 416 419 c 128,-1,1
EndSplineSet
Substitution2: "'onum' Oldstyle Figures in Latin lookup 12 subtable" five.osf
Substitution2: "'tnum' Tabular Numbers in Latin lookup 11 subtable" five.tf
Substitution2: "'dnom' Denominators in Latin lookup 6 subtable" five.dnom
Substitution2: "'sups' Superscript in Latin lookup 5 subtable" uni2075
AlternateSubs2: "'aalt' Access All Alternates in Latin lookup 1 subtable" uni2075 five.dnom five.tf five.osf
EndChar

StartChar: five.tf
Encoding: 65706 -1 464
Width: 570
GlyphClass: 1
Flags: W
LayerCount: 2
Fore
SplineSet
423 419 m 128,-1,1
 470 395 470 395 501 345.5 c 128,-1,2
 532 296 532 296 532 223 c 0,3,4
 532 147 532 147 498.5 94.5 c 128,-1,5
 465 42 465 42 412 16 c 128,-1,6
 359 -10 359 -10 299 -10 c 0,7,8
 227 -10 227 -10 173.5 18 c 128,-1,9
 120 46 120 46 90 92.5 c 128,-1,10
 60 139 60 139 57 193 c 1,11,-1
 155 193 l 1,12,13
 163 133 163 133 203.5 102.5 c 128,-1,14
 244 72 244 72 299 72 c 0,15,16
 335 72 335 72 367 88.5 c 128,-1,17
 399 105 399 105 418.5 138 c 128,-1,18
 438 171 438 171 438 218 c 0,19,20
 438 262 438 262 419.5 295 c 128,-1,21
 401 328 401 328 370.5 346 c 128,-1,22
 340 364 340 364 304 364 c 0,23,24
 219 364 219 364 162 289 c 1,25,-1
 71 289 l 1,26,-1
 131 680 l 1,27,-1
 484 680 l 1,28,-1
 484 596 l 1,29,-1
 209 596 l 1,30,-1
 177 397 l 1,31,-1
 179 397 l 1,32,33
 191 410 191 410 230 426.5 c 128,-1,34
 269 443 269 443 327 443 c 0,35,0
 376 443 376 443 423 419 c 128,-1,1
EndSplineSet
Substitution2: "'pnum' Proportional Numbers in Latin lookup 10 subtable" five
AlternateSubs2: "'aalt' Access All Alternates in Latin lookup 1 subtable" five
EndChar

StartChar: six
Encoding: 54 54 465
Width: 541
GlyphClass: 1
Flags: W
LayerCount: 2
Fore
SplineSet
172.5 19.5 m 128,-1,1
 121 49 121 49 91 100 c 128,-1,2
 61 151 61 151 61 213 c 0,3,4
 61 250 61 250 75 292 c 128,-1,5
 89 334 89 334 123 401 c 2,6,-1
 265 680 l 1,7,-1
 367 680 l 1,8,-1
 219 413 l 1,9,-1
 221 411 l 1,10,11
 258 431 258 431 307 431 c 0,12,13
 360 431 360 431 407 402.5 c 128,-1,14
 454 374 454 374 482.5 324.5 c 128,-1,15
 511 275 511 275 511 213 c 256,16,17
 511 151 511 151 481 100 c 128,-1,18
 451 49 451 49 399.5 19.5 c 128,-1,19
 348 -10 348 -10 286 -10 c 256,20,0
 224 -10 224 -10 172.5 19.5 c 128,-1,1
352 94 m 128,-1,22
 382 112 382 112 399.5 143.5 c 128,-1,23
 417 175 417 175 417 213 c 256,24,25
 417 251 417 251 399.5 282.5 c 128,-1,26
 382 314 382 314 352 332 c 128,-1,27
 322 350 322 350 286 350 c 0,28,29
 230 350 230 350 192.5 310.5 c 128,-1,30
 155 271 155 271 155 213 c 256,31,32
 155 155 155 155 192.5 115.5 c 128,-1,33
 230 76 230 76 286 76 c 0,34,21
 322 76 322 76 352 94 c 128,-1,22
EndSplineSet
Substitution2: "'onum' Oldstyle Figures in Latin lookup 12 subtable" six.osf
Substitution2: "'tnum' Tabular Numbers in Latin lookup 11 subtable" six.tf
Substitution2: "'dnom' Denominators in Latin lookup 6 subtable" six.dnom
Substitution2: "'sups' Superscript in Latin lookup 5 subtable" uni2076
AlternateSubs2: "'aalt' Access All Alternates in Latin lookup 1 subtable" uni2076 six.dnom six.tf six.osf
EndChar

StartChar: six.tf
Encoding: 65708 -1 467
Width: 570
GlyphClass: 1
Flags: W
LayerCount: 2
Fore
SplineSet
186.5 19.5 m 128,-1,1
 135 49 135 49 105 100 c 128,-1,2
 75 151 75 151 75 213 c 0,3,4
 75 249 75 249 89 291.5 c 128,-1,5
 103 334 103 334 137 401 c 2,6,-1
 279 680 l 1,7,-1
 381 680 l 1,8,-1
 233 413 l 1,9,-1
 235 411 l 1,10,11
 272 431 272 431 321 431 c 0,12,13
 374 431 374 431 421 402.5 c 128,-1,14
 468 374 468 374 496.5 324.5 c 128,-1,15
 525 275 525 275 525 213 c 256,16,17
 525 151 525 151 495 100 c 128,-1,18
 465 49 465 49 413.5 19.5 c 128,-1,19
 362 -10 362 -10 300 -10 c 256,20,0
 238 -10 238 -10 186.5 19.5 c 128,-1,1
366 94 m 128,-1,22
 396 112 396 112 413.5 143.5 c 128,-1,23
 431 175 431 175 431 213 c 256,24,25
 431 251 431 251 413.5 282.5 c 128,-1,26
 396 314 396 314 366 332 c 128,-1,27
 336 350 336 350 300 350 c 0,28,29
 244 350 244 350 206.5 310.5 c 128,-1,30
 169 271 169 271 169 213 c 256,31,32
 169 155 169 155 206.5 115.5 c 128,-1,33
 244 76 244 76 300 76 c 0,34,21
 336 76 336 76 366 94 c 128,-1,22
EndSplineSet
Substitution2: "'pnum' Proportional Numbers in Latin lookup 10 subtable" six
AlternateSubs2: "'aalt' Access All Alternates in Latin lookup 1 subtable" six
EndChar

StartChar: seven
Encoding: 55 55 468
Width: 468
GlyphClass: 1
Flags: W
LayerCount: 2
Fore
SplineSet
337 566 m 2,0,1
 349 590 349 590 353 596 c 1,2,-1
 352 597 l 1,3,-1
 18 597 l 1,4,-1
 18 681 l 1,5,-1
 450 681 l 1,6,-1
 450 605 l 1,7,-1
 168 0 l 1,8,-1
 73 0 l 1,9,-1
 337 566 l 2,0,1
EndSplineSet
Substitution2: "'onum' Oldstyle Figures in Latin lookup 12 subtable" seven.osf
Substitution2: "'tnum' Tabular Numbers in Latin lookup 11 subtable" seven.tf
Substitution2: "'dnom' Denominators in Latin lookup 6 subtable" seven.dnom
Substitution2: "'sups' Superscript in Latin lookup 5 subtable" uni2077
AlternateSubs2: "'aalt' Access All Alternates in Latin lookup 1 subtable" uni2077 seven.dnom seven.tf seven.osf
EndChar

StartChar: seven.tf
Encoding: 65710 -1 470
Width: 570
GlyphClass: 1
Flags: W
LayerCount: 2
Fore
SplineSet
388 566 m 2,0,1
 400 590 400 590 404 596 c 1,2,-1
 403 597 l 1,3,-1
 69 597 l 1,4,-1
 69 681 l 1,5,-1
 501 681 l 1,6,-1
 501 605 l 1,7,-1
 219 0 l 1,8,-1
 124 0 l 1,9,-1
 388 566 l 2,0,1
EndSplineSet
Substitution2: "'pnum' Proportional Numbers in Latin lookup 10 subtable" seven
AlternateSubs2: "'aalt' Access All Alternates in Latin lookup 1 subtable" seven
EndChar

StartChar: eight
Encoding: 56 56 471
Width: 552
GlyphClass: 1
Flags: W
LayerCount: 2
Fore
SplineSet
158 15 m 128,-1,1
 105 40 105 40 74.5 86 c 128,-1,2
 44 132 44 132 44 192 c 0,3,4
 44 236 44 236 64 272 c 128,-1,5
 84 308 84 308 114 332 c 128,-1,6
 144 356 144 356 175 366 c 1,7,-1
 175 368 l 1,8,9
 137 382 137 382 108 420 c 128,-1,10
 79 458 79 458 79 506 c 0,11,12
 79 558 79 558 103 600 c 128,-1,13
 127 642 127 642 171.5 666 c 128,-1,14
 216 690 216 690 276 690 c 256,15,16
 336 690 336 690 380.5 666 c 128,-1,17
 425 642 425 642 449 600 c 128,-1,18
 473 558 473 558 473 506 c 0,19,20
 473 458 473 458 444 420 c 128,-1,21
 415 382 415 382 377 368 c 1,22,-1
 377 366 l 1,23,24
 408 356 408 356 438 332 c 128,-1,25
 468 308 468 308 488 272 c 128,-1,26
 508 236 508 236 508 192 c 0,27,28
 508 132 508 132 477.5 86 c 128,-1,29
 447 40 447 40 394 15 c 128,-1,30
 341 -10 341 -10 276 -10 c 256,31,0
 211 -10 211 -10 158 15 c 128,-1,1
350.5 434.5 m 128,-1,33
 379 463 379 463 379 506 c 0,34,35
 379 546 379 546 350.5 575 c 128,-1,36
 322 604 322 604 276 604 c 256,37,38
 230 604 230 604 201.5 575 c 128,-1,39
 173 546 173 546 173 506 c 0,40,41
 173 463 173 463 201.5 434.5 c 128,-1,42
 230 406 230 406 276 406 c 256,43,32
 322 406 322 406 350.5 434.5 c 128,-1,33
374 109 m 128,-1,45
 412 142 412 142 412 192 c 0,46,47
 412 227 412 227 394 256.5 c 128,-1,48
 376 286 376 286 345 303 c 128,-1,49
 314 320 314 320 276 320 c 256,50,51
 238 320 238 320 207 303 c 128,-1,52
 176 286 176 286 158 256.5 c 128,-1,53
 140 227 140 227 140 192 c 0,54,55
 140 142 140 142 178 109 c 128,-1,56
 216 76 216 76 276 76 c 256,57,44
 336 76 336 76 374 109 c 128,-1,45
EndSplineSet
Substitution2: "'onum' Oldstyle Figures in Latin lookup 12 subtable" eight.osf
Substitution2: "'tnum' Tabular Numbers in Latin lookup 11 subtable" eight.tf
Substitution2: "'dnom' Denominators in Latin lookup 6 subtable" eight.dnom
Substitution2: "'sups' Superscript in Latin lookup 5 subtable" uni2078
AlternateSubs2: "'aalt' Access All Alternates in Latin lookup 1 subtable" uni2078 eight.dnom eight.tf eight.osf
EndChar

StartChar: eight.tf
Encoding: 65712 -1 473
Width: 570
GlyphClass: 1
Flags: W
LayerCount: 2
Fore
SplineSet
158 15 m 128,-1,1
 105 40 105 40 74.5 86 c 128,-1,2
 44 132 44 132 44 192 c 0,3,4
 44 236 44 236 64 272 c 128,-1,5
 84 308 84 308 114 332 c 128,-1,6
 144 356 144 356 175 366 c 1,7,-1
 175 368 l 1,8,9
 137 382 137 382 108 420 c 128,-1,10
 79 458 79 458 79 506 c 0,11,12
 79 558 79 558 103 600 c 128,-1,13
 127 642 127 642 171.5 666 c 128,-1,14
 216 690 216 690 276 690 c 256,15,16
 336 690 336 690 380.5 666 c 128,-1,17
 425 642 425 642 449 600 c 128,-1,18
 473 558 473 558 473 506 c 0,19,20
 473 458 473 458 444 420 c 128,-1,21
 415 382 415 382 377 368 c 1,22,-1
 377 366 l 1,23,24
 408 356 408 356 438 332 c 128,-1,25
 468 308 468 308 488 272 c 128,-1,26
 508 236 508 236 508 192 c 0,27,28
 508 132 508 132 477.5 86 c 128,-1,29
 447 40 447 40 394 15 c 128,-1,30
 341 -10 341 -10 276 -10 c 256,31,0
 211 -10 211 -10 158 15 c 128,-1,1
350.5 434.5 m 128,-1,33
 379 463 379 463 379 506 c 0,34,35
 379 546 379 546 350.5 575 c 128,-1,36
 322 604 322 604 276 604 c 256,37,38
 230 604 230 604 201.5 575 c 128,-1,39
 173 546 173 546 173 506 c 0,40,41
 173 463 173 463 201.5 434.5 c 128,-1,42
 230 406 230 406 276 406 c 256,43,32
 322 406 322 406 350.5 434.5 c 128,-1,33
374 109 m 128,-1,45
 412 142 412 142 412 192 c 0,46,47
 412 227 412 227 394 256.5 c 128,-1,48
 376 286 376 286 345 303 c 128,-1,49
 314 320 314 320 276 320 c 256,50,51
 238 320 238 320 207 303 c 128,-1,52
 176 286 176 286 158 256.5 c 128,-1,53
 140 227 140 227 140 192 c 0,54,55
 140 142 140 142 178 109 c 128,-1,56
 216 76 216 76 276 76 c 256,57,44
 336 76 336 76 374 109 c 128,-1,45
EndSplineSet
Substitution2: "'pnum' Proportional Numbers in Latin lookup 10 subtable" eight
AlternateSubs2: "'aalt' Access All Alternates in Latin lookup 1 subtable" eight
EndChar

StartChar: nine
Encoding: 57 57 474
Width: 528
GlyphClass: 1
Flags: W
LayerCount: 2
Fore
SplineSet
164 0 m 1,0,-1
 334 267 l 1,1,-1
 332 269 l 1,2,3
 303 249 303 249 254 249 c 0,4,5
 200 249 200 249 152.5 277.5 c 128,-1,6
 105 306 105 306 76.5 355.5 c 128,-1,7
 48 405 48 405 48 467 c 256,8,9
 48 529 48 529 78 580 c 128,-1,10
 108 631 108 631 159.5 660.5 c 128,-1,11
 211 690 211 690 273 690 c 0,12,13
 336 690 336 690 387.5 662 c 128,-1,14
 439 634 439 634 468.5 582 c 128,-1,15
 498 530 498 530 498 462 c 0,16,17
 498 412 498 412 476.5 359 c 128,-1,18
 455 306 455 306 410 231 c 2,19,-1
 271 0 l 1,20,-1
 164 0 l 1,0,-1
367 369.5 m 128,-1,22
 405 409 405 409 405 467 c 256,23,24
 405 525 405 525 367 564.5 c 128,-1,25
 329 604 329 604 273 604 c 0,26,27
 237 604 237 604 207 586 c 128,-1,28
 177 568 177 568 159.5 536.5 c 128,-1,29
 142 505 142 505 142 467 c 256,30,31
 142 429 142 429 159.5 397.5 c 128,-1,32
 177 366 177 366 207 348 c 128,-1,33
 237 330 237 330 273 330 c 0,34,21
 329 330 329 330 367 369.5 c 128,-1,22
EndSplineSet
Substitution2: "'onum' Oldstyle Figures in Latin lookup 12 subtable" nine.osf
Substitution2: "'tnum' Tabular Numbers in Latin lookup 11 subtable" nine.tf
Substitution2: "'dnom' Denominators in Latin lookup 6 subtable" nine.dnom
Substitution2: "'sups' Superscript in Latin lookup 5 subtable" uni2079
AlternateSubs2: "'aalt' Access All Alternates in Latin lookup 1 subtable" uni2079 nine.dnom nine.tf nine.osf
EndChar

StartChar: nine.tf
Encoding: 65714 -1 476
Width: 570
GlyphClass: 1
Flags: W
LayerCount: 2
Fore
SplineSet
185 0 m 1,0,-1
 355 267 l 1,1,-1
 353 269 l 1,2,3
 324 249 324 249 275 249 c 0,4,5
 221 249 221 249 173.5 277.5 c 128,-1,6
 126 306 126 306 97.5 355.5 c 128,-1,7
 69 405 69 405 69 467 c 256,8,9
 69 529 69 529 99 580 c 128,-1,10
 129 631 129 631 180.5 660.5 c 128,-1,11
 232 690 232 690 294 690 c 0,12,13
 357 690 357 690 408.5 662 c 128,-1,14
 460 634 460 634 489.5 582 c 128,-1,15
 519 530 519 530 519 462 c 0,16,17
 519 412 519 412 497.5 359 c 128,-1,18
 476 306 476 306 431 231 c 2,19,-1
 292 0 l 1,20,-1
 185 0 l 1,0,-1
388 369.5 m 128,-1,22
 426 409 426 409 426 467 c 256,23,24
 426 525 426 525 388 564.5 c 128,-1,25
 350 604 350 604 294 604 c 0,26,27
 258 604 258 604 228 586 c 128,-1,28
 198 568 198 568 180.5 536.5 c 128,-1,29
 163 505 163 505 163 467 c 256,30,31
 163 429 163 429 180.5 397.5 c 128,-1,32
 198 366 198 366 228 348 c 128,-1,33
 258 330 258 330 294 330 c 0,34,21
 350 330 350 330 388 369.5 c 128,-1,22
EndSplineSet
Substitution2: "'pnum' Proportional Numbers in Latin lookup 10 subtable" nine
AlternateSubs2: "'aalt' Access All Alternates in Latin lookup 1 subtable" nine
EndChar

StartChar: uni24FF
Encoding: 9471 9471 477
Width: 772
GlyphClass: 1
Flags: W
LayerCount: 2
Fore
SplineSet
561.5 36.5 m 128,-1,1
 641 83 641 83 686.5 163 c 128,-1,2
 732 243 732 243 732 340 c 256,3,4
 732 437 732 437 686.5 517 c 128,-1,5
 641 597 641 597 561.5 643.5 c 128,-1,6
 482 690 482 690 386 690 c 256,7,8
 290 690 290 690 210.5 643.5 c 128,-1,9
 131 597 131 597 85.5 517 c 128,-1,10
 40 437 40 437 40 340 c 256,11,12
 40 243 40 243 85.5 163 c 128,-1,13
 131 83 131 83 210.5 36.5 c 128,-1,14
 290 -10 290 -10 386 -10 c 256,15,0
 482 -10 482 -10 561.5 36.5 c 128,-1,1
273.5 187.5 m 128,-1,17
 233 245 233 245 233 340 c 256,18,19
 233 435 233 435 273.5 493 c 128,-1,20
 314 551 314 551 386 551 c 256,21,22
 458 551 458 551 498.5 493 c 128,-1,23
 539 435 539 435 539 340 c 0,24,25
 539 246 539 246 498.5 188 c 128,-1,26
 458 130 458 130 386 130 c 256,27,16
 314 130 314 130 273.5 187.5 c 128,-1,17
443 240 m 128,-1,29
 462 277 462 277 462 340 c 0,30,31
 462 404 462 404 443 441 c 128,-1,32
 424 478 424 478 386 478 c 256,33,34
 348 478 348 478 329.5 441 c 128,-1,35
 311 404 311 404 311 340 c 0,36,37
 311 277 311 277 329.5 240 c 128,-1,38
 348 203 348 203 386 203 c 256,39,28
 424 203 424 203 443 240 c 128,-1,29
EndSplineSet
EndChar

StartChar: uni2776
Encoding: 10102 10102 478
Width: 772
GlyphClass: 1
Flags: W
LayerCount: 2
Fore
SplineSet
210.5 36.5 m 128,-1,1
 131 83 131 83 85.5 163 c 128,-1,2
 40 243 40 243 40 340 c 256,3,4
 40 437 40 437 85.5 517 c 128,-1,5
 131 597 131 597 210.5 643.5 c 128,-1,6
 290 690 290 690 386 690 c 256,7,8
 482 690 482 690 561.5 643.5 c 128,-1,9
 641 597 641 597 686.5 517 c 128,-1,10
 732 437 732 437 732 340 c 256,11,12
 732 243 732 243 686.5 163 c 128,-1,13
 641 83 641 83 561.5 36.5 c 128,-1,14
 482 -10 482 -10 386 -10 c 256,15,0
 290 -10 290 -10 210.5 36.5 c 128,-1,1
366 466 m 1,16,-1
 366 129 l 1,17,-1
 443 129 l 1,18,-1
 443 538 l 1,19,-1
 293 538 l 1,20,-1
 293 466 l 1,21,-1
 366 466 l 1,16,-1
EndSplineSet
EndChar

StartChar: uni2777
Encoding: 10103 10103 479
Width: 772
GlyphClass: 1
Flags: W
LayerCount: 2
Fore
SplineSet
210.5 36.5 m 128,-1,1
 131 83 131 83 85.5 163 c 128,-1,2
 40 243 40 243 40 340 c 256,3,4
 40 437 40 437 85.5 517 c 128,-1,5
 131 597 131 597 210.5 643.5 c 128,-1,6
 290 690 290 690 386 690 c 256,7,8
 482 690 482 690 561.5 643.5 c 128,-1,9
 641 597 641 597 686.5 517 c 128,-1,10
 732 437 732 437 732 340 c 256,11,12
 732 243 732 243 686.5 163 c 128,-1,13
 641 83 641 83 561.5 36.5 c 128,-1,14
 482 -10 482 -10 386 -10 c 256,15,0
 290 -10 290 -10 210.5 36.5 c 128,-1,1
253 141 m 1,16,-1
 537 141 l 1,17,-1
 537 212 l 1,18,-1
 369 212 l 1,19,-1
 369 213 l 1,20,-1
 416 246 l 2,21,22
 477 289 477 289 509 328.5 c 128,-1,23
 541 368 541 368 541 416 c 0,24,25
 541 459 541 459 521 491 c 128,-1,26
 501 523 501 523 467.5 539.5 c 128,-1,27
 434 556 434 556 395 556 c 0,28,29
 323 556 323 556 283 512.5 c 128,-1,30
 243 469 243 469 242 405 c 1,31,-1
 319 405 l 1,32,33
 320 440 320 440 339 464 c 128,-1,34
 358 488 358 488 395 488 c 0,35,36
 425 488 425 488 444 468.5 c 128,-1,37
 463 449 463 449 463 417 c 0,38,39
 463 382 463 382 435 349.5 c 128,-1,40
 407 317 407 317 334 264 c 2,41,-1
 253 205 l 1,42,-1
 253 141 l 1,16,-1
EndSplineSet
EndChar

StartChar: uni2778
Encoding: 10104 10104 480
Width: 772
GlyphClass: 1
Flags: W
LayerCount: 2
Fore
SplineSet
210.5 36.5 m 128,-1,1
 131 83 131 83 85.5 163 c 128,-1,2
 40 243 40 243 40 340 c 256,3,4
 40 437 40 437 85.5 517 c 128,-1,5
 131 597 131 597 210.5 643.5 c 128,-1,6
 290 690 290 690 386 690 c 256,7,8
 482 690 482 690 561.5 643.5 c 128,-1,9
 641 597 641 597 686.5 517 c 128,-1,10
 732 437 732 437 732 340 c 256,11,12
 732 243 732 243 686.5 163 c 128,-1,13
 641 83 641 83 561.5 36.5 c 128,-1,14
 482 -10 482 -10 386 -10 c 256,15,0
 290 -10 290 -10 210.5 36.5 c 128,-1,1
493.5 159 m 128,-1,17
 535 191 535 191 535 243 c 0,18,19
 535 285 535 285 511.5 311 c 128,-1,20
 488 337 488 337 456 344 c 1,21,-1
 456 345 l 1,22,23
 481 353 481 353 501 377.5 c 128,-1,24
 521 402 521 402 521 438 c 0,25,26
 521 487 521 487 484.5 517.5 c 128,-1,27
 448 548 448 548 389 548 c 0,28,29
 343 548 343 548 311.5 529 c 128,-1,30
 280 510 280 510 265 482 c 128,-1,31
 250 454 250 454 248 426 c 1,32,-1
 326 426 l 1,33,34
 329 450 329 450 345 465.5 c 128,-1,35
 361 481 361 481 389 481 c 0,36,37
 413 481 413 481 429 466.5 c 128,-1,38
 445 452 445 452 445 428 c 0,39,40
 445 403 445 403 426.5 389.5 c 128,-1,41
 408 376 408 376 372 376 c 2,42,-1
 344 376 l 1,43,-1
 344 309 l 1,44,-1
 377 309 l 2,45,46
 415 309 415 309 437 294 c 128,-1,47
 459 279 459 279 459 252 c 0,48,49
 459 227 459 227 439.5 210.5 c 128,-1,50
 420 194 420 194 391 194 c 256,51,52
 362 194 362 194 342 210 c 128,-1,53
 322 226 322 226 317 251 c 1,54,-1
 236 251 l 1,55,56
 241 196 241 196 283 161.5 c 128,-1,57
 325 127 325 127 391 127 c 0,58,16
 452 127 452 127 493.5 159 c 128,-1,17
EndSplineSet
EndChar

StartChar: uni2779
Encoding: 10105 10105 481
Width: 772
GlyphClass: 1
Flags: W
LayerCount: 2
Fore
SplineSet
210.5 36.5 m 128,-1,1
 131 83 131 83 85.5 163 c 128,-1,2
 40 243 40 243 40 340 c 256,3,4
 40 437 40 437 85.5 517 c 128,-1,5
 131 597 131 597 210.5 643.5 c 128,-1,6
 290 690 290 690 386 690 c 256,7,8
 482 690 482 690 561.5 643.5 c 128,-1,9
 641 597 641 597 686.5 517 c 128,-1,10
 732 437 732 437 732 340 c 256,11,12
 732 243 732 243 686.5 163 c 128,-1,13
 641 83 641 83 561.5 36.5 c 128,-1,14
 482 -10 482 -10 386 -10 c 256,15,0
 290 -10 290 -10 210.5 36.5 c 128,-1,1
405 215 m 1,16,-1
 405 136 l 1,17,-1
 482 136 l 1,18,-1
 482 215 l 1,19,-1
 541 215 l 1,20,-1
 541 283 l 1,21,-1
 482 283 l 1,22,-1
 482 545 l 1,23,-1
 386 545 l 1,24,-1
 204 275 l 1,25,-1
 204 215 l 1,26,-1
 405 215 l 1,16,-1
282 284 m 1,27,28
 288 290 288 290 304 313 c 2,29,-1
 395 448 l 2,30,31
 396 449 396 449 399.5 454.5 c 128,-1,32
 403 460 403 460 404 464 c 1,33,-1
 405 464 l 1,34,-1
 405 283 l 1,35,-1
 282 283 l 1,36,-1
 282 284 l 1,27,28
EndSplineSet
EndChar

StartChar: uni277A
Encoding: 10106 10106 482
Width: 772
GlyphClass: 1
Flags: W
LayerCount: 2
Fore
SplineSet
210.5 36.5 m 128,-1,1
 131 83 131 83 85.5 163 c 128,-1,2
 40 243 40 243 40 340 c 256,3,4
 40 437 40 437 85.5 517 c 128,-1,5
 131 597 131 597 210.5 643.5 c 128,-1,6
 290 690 290 690 386 690 c 256,7,8
 482 690 482 690 561.5 643.5 c 128,-1,9
 641 597 641 597 686.5 517 c 128,-1,10
 732 437 732 437 732 340 c 256,11,12
 732 243 732 243 686.5 163 c 128,-1,13
 641 83 641 83 561.5 36.5 c 128,-1,14
 482 -10 482 -10 386 -10 c 256,15,0
 290 -10 290 -10 210.5 36.5 c 128,-1,1
499 160 m 128,-1,17
 541 199 541 199 541 266 c 0,18,19
 541 329 541 329 503 363.5 c 128,-1,20
 465 398 465 398 412 398 c 0,21,22
 371 398 371 398 333 375 c 1,23,-1
 332 375 l 1,24,-1
 347 464 l 1,25,-1
 517 464 l 1,26,-1
 517 536 l 1,27,-1
 286 536 l 1,28,-1
 248 302 l 1,29,-1
 325 302 l 1,30,31
 354 333 354 333 393 333 c 0,32,33
 423 333 423 333 442.5 314 c 128,-1,34
 462 295 462 295 462 261 c 0,35,36
 462 228 462 228 442 208.5 c 128,-1,37
 422 189 422 189 392 189 c 0,38,39
 365 189 365 189 344.5 204 c 128,-1,40
 324 219 324 219 319 242 c 1,41,-1
 238 242 l 1,42,43
 246 186 246 186 287 153.5 c 128,-1,44
 328 121 328 121 389 121 c 0,45,16
 457 121 457 121 499 160 c 128,-1,17
EndSplineSet
EndChar

StartChar: uni277B
Encoding: 10107 10107 483
Width: 772
GlyphClass: 1
Flags: W
LayerCount: 2
Fore
SplineSet
210.5 36.5 m 128,-1,1
 131 83 131 83 85.5 163 c 128,-1,2
 40 243 40 243 40 340 c 256,3,4
 40 437 40 437 85.5 517 c 128,-1,5
 131 597 131 597 210.5 643.5 c 128,-1,6
 290 690 290 690 386 690 c 256,7,8
 482 690 482 690 561.5 643.5 c 128,-1,9
 641 597 641 597 686.5 517 c 128,-1,10
 732 437 732 437 732 340 c 256,11,12
 732 243 732 243 686.5 163 c 128,-1,13
 641 83 641 83 561.5 36.5 c 128,-1,14
 482 -10 482 -10 386 -10 c 256,15,0
 290 -10 290 -10 210.5 36.5 c 128,-1,1
488 173 m 128,-1,17
 528 212 528 212 528 271 c 0,18,19
 528 309 528 309 510.5 338.5 c 128,-1,20
 493 368 493 368 465 383.5 c 128,-1,21
 437 399 437 399 406 399 c 0,22,23
 383 399 383 399 367 390 c 1,24,-1
 366 391 l 1,25,-1
 473 549 l 1,26,-1
 385 549 l 1,27,-1
 287 388 l 2,28,29
 264 350 264 350 255 323.5 c 128,-1,30
 246 297 246 297 246 269 c 0,31,32
 246 211 246 211 286 172.5 c 128,-1,33
 326 134 326 134 387 134 c 256,34,16
 448 134 448 134 488 173 c 128,-1,17
339 220 m 128,-1,36
 320 239 320 239 320 269 c 0,37,38
 320 298 320 298 339 317.5 c 128,-1,39
 358 337 358 337 387 337 c 256,40,41
 416 337 416 337 435 317.5 c 128,-1,42
 454 298 454 298 454 269 c 256,43,44
 454 240 454 240 435 220.5 c 128,-1,45
 416 201 416 201 387 201 c 256,46,35
 358 201 358 201 339 220 c 128,-1,36
EndSplineSet
EndChar

StartChar: uni277C
Encoding: 10108 10108 484
Width: 772
GlyphClass: 1
Flags: W
LayerCount: 2
Fore
SplineSet
210.5 36.5 m 128,-1,1
 131 83 131 83 85.5 163 c 128,-1,2
 40 243 40 243 40 340 c 256,3,4
 40 437 40 437 85.5 517 c 128,-1,5
 131 597 131 597 210.5 643.5 c 128,-1,6
 290 690 290 690 386 690 c 256,7,8
 482 690 482 690 561.5 643.5 c 128,-1,9
 641 597 641 597 686.5 517 c 128,-1,10
 732 437 732 437 732 340 c 256,11,12
 732 243 732 243 686.5 163 c 128,-1,13
 641 83 641 83 561.5 36.5 c 128,-1,14
 482 -10 482 -10 386 -10 c 256,15,0
 290 -10 290 -10 210.5 36.5 c 128,-1,1
291 122 m 1,16,-1
 372 122 l 1,17,-1
 539 466 l 1,18,-1
 539 531 l 1,19,-1
 265 531 l 1,20,-1
 265 459 l 1,21,-1
 458 459 l 1,22,23
 451 449 451 449 450 446 c 128,-1,24
 449 443 449 443 447 441 c 2,25,-1
 291 122 l 1,16,-1
EndSplineSet
EndChar

StartChar: uni277D
Encoding: 10109 10109 485
Width: 772
GlyphClass: 1
Flags: W
LayerCount: 2
Fore
SplineSet
210.5 36.5 m 128,-1,1
 131 83 131 83 85.5 163 c 128,-1,2
 40 243 40 243 40 340 c 256,3,4
 40 437 40 437 85.5 517 c 128,-1,5
 131 597 131 597 210.5 643.5 c 128,-1,6
 290 690 290 690 386 690 c 256,7,8
 482 690 482 690 561.5 643.5 c 128,-1,9
 641 597 641 597 686.5 517 c 128,-1,10
 732 437 732 437 732 340 c 256,11,12
 732 243 732 243 686.5 163 c 128,-1,13
 641 83 641 83 561.5 36.5 c 128,-1,14
 482 -10 482 -10 386 -10 c 256,15,0
 290 -10 290 -10 210.5 36.5 c 128,-1,1
490.5 164.5 m 128,-1,17
 533 199 533 199 533 252 c 0,18,19
 533 291 533 291 508.5 319 c 128,-1,20
 484 347 484 347 454 356 c 1,21,-1
 454 357 l 1,22,23
 476 366 476 366 494.5 389 c 128,-1,24
 513 412 513 412 513 443 c 0,25,26
 513 489 513 489 478.5 520 c 128,-1,27
 444 551 444 551 386 551 c 256,28,29
 328 551 328 551 293.5 520 c 128,-1,30
 259 489 259 489 259 443 c 0,31,32
 259 412 259 412 277.5 389 c 128,-1,33
 296 366 296 366 318 357 c 1,34,-1
 318 356 l 1,35,36
 288 347 288 347 263.5 319 c 128,-1,37
 239 291 239 291 239 252 c 0,38,39
 239 199 239 199 282 164.5 c 128,-1,40
 325 130 325 130 386 130 c 0,41,16
 448 130 448 130 490.5 164.5 c 128,-1,17
348.5 402 m 128,-1,43
 333 417 333 417 333 438 c 256,44,45
 333 459 333 459 348 473.5 c 128,-1,46
 363 488 363 488 386 488 c 256,47,48
 409 488 409 488 424 473.5 c 128,-1,49
 439 459 439 459 439 438 c 256,50,51
 439 417 439 417 423.5 402 c 128,-1,52
 408 387 408 387 386 387 c 256,53,42
 364 387 364 387 348.5 402 c 128,-1,43
336.5 212.5 m 128,-1,55
 316 230 316 230 316 258 c 0,56,57
 316 285 316 285 336 303 c 128,-1,58
 356 321 356 321 386 321 c 256,59,60
 416 321 416 321 436.5 302.5 c 128,-1,61
 457 284 457 284 457 258 c 0,62,63
 457 230 457 230 436 212.5 c 128,-1,64
 415 195 415 195 386 195 c 256,65,54
 357 195 357 195 336.5 212.5 c 128,-1,55
EndSplineSet
EndChar

StartChar: uni277E
Encoding: 10110 10110 486
Width: 772
GlyphClass: 1
Flags: W
LayerCount: 2
Fore
SplineSet
210.5 36.5 m 128,-1,1
 131 83 131 83 85.5 163 c 128,-1,2
 40 243 40 243 40 340 c 256,3,4
 40 437 40 437 85.5 517 c 128,-1,5
 131 597 131 597 210.5 643.5 c 128,-1,6
 290 690 290 690 386 690 c 256,7,8
 482 690 482 690 561.5 643.5 c 128,-1,9
 641 597 641 597 686.5 517 c 128,-1,10
 732 437 732 437 732 340 c 256,11,12
 732 243 732 243 686.5 163 c 128,-1,13
 641 83 641 83 561.5 36.5 c 128,-1,14
 482 -10 482 -10 386 -10 c 256,15,0
 290 -10 290 -10 210.5 36.5 c 128,-1,1
300 133 m 1,16,-1
 389 133 l 1,17,-1
 486 286 l 2,18,19
 511 326 511 326 521 354.5 c 128,-1,20
 531 383 531 383 531 412 c 0,21,22
 531 471 531 471 491 509.5 c 128,-1,23
 451 548 451 548 390 548 c 256,24,25
 329 548 329 548 289 509 c 128,-1,26
 249 470 249 470 249 411 c 0,27,28
 249 373 249 373 266.5 343.5 c 128,-1,29
 284 314 284 314 312 298 c 128,-1,30
 340 282 340 282 371 282 c 0,31,32
 395 282 395 282 409 292 c 1,33,-1
 410 291 l 1,34,-1
 300 133 l 1,16,-1
342 364 m 128,-1,36
 323 383 323 383 323 413 c 256,37,38
 323 443 323 443 342 462 c 128,-1,39
 361 481 361 481 390 481 c 256,40,41
 419 481 419 481 438 461.5 c 128,-1,42
 457 442 457 442 457 413 c 256,43,44
 457 384 457 384 438 364.5 c 128,-1,45
 419 345 419 345 390 345 c 256,46,35
 361 345 361 345 342 364 c 128,-1,36
EndSplineSet
EndChar

StartChar: uni24EA
Encoding: 9450 9450 487
Width: 772
GlyphClass: 1
Flags: W
LayerCount: 2
Fore
SplineSet
561.5 36.5 m 128,-1,1
 641 83 641 83 686.5 163 c 128,-1,2
 732 243 732 243 732 340 c 256,3,4
 732 437 732 437 686.5 517 c 128,-1,5
 641 597 641 597 561.5 643.5 c 128,-1,6
 482 690 482 690 386 690 c 256,7,8
 290 690 290 690 210.5 643.5 c 128,-1,9
 131 597 131 597 85.5 517 c 128,-1,10
 40 437 40 437 40 340 c 256,11,12
 40 243 40 243 85.5 163 c 128,-1,13
 131 83 131 83 210.5 36.5 c 128,-1,14
 290 -10 290 -10 386 -10 c 256,15,0
 482 -10 482 -10 561.5 36.5 c 128,-1,1
227 62.5 m 128,-1,17
 155 105 155 105 113.5 178 c 128,-1,18
 72 251 72 251 72 340 c 256,19,20
 72 429 72 429 113.5 502 c 128,-1,21
 155 575 155 575 227 617.5 c 128,-1,22
 299 660 299 660 386 660 c 256,23,24
 473 660 473 660 545 617.5 c 128,-1,25
 617 575 617 575 658.5 502 c 128,-1,26
 700 429 700 429 700 340 c 256,27,28
 700 251 700 251 658.5 178 c 128,-1,29
 617 105 617 105 545 62.5 c 128,-1,30
 473 20 473 20 386 20 c 256,31,16
 299 20 299 20 227 62.5 c 128,-1,17
273.5 187.5 m 128,-1,33
 233 245 233 245 233 340 c 256,34,35
 233 435 233 435 273.5 493 c 128,-1,36
 314 551 314 551 386 551 c 256,37,38
 458 551 458 551 498.5 493 c 128,-1,39
 539 435 539 435 539 340 c 0,40,41
 539 246 539 246 498.5 188 c 128,-1,42
 458 130 458 130 386 130 c 256,43,32
 314 130 314 130 273.5 187.5 c 128,-1,33
443 240 m 128,-1,45
 462 277 462 277 462 340 c 0,46,47
 462 404 462 404 443 441 c 128,-1,48
 424 478 424 478 386 478 c 256,49,50
 348 478 348 478 329.5 441 c 128,-1,51
 311 404 311 404 311 340 c 0,52,53
 311 277 311 277 329.5 240 c 128,-1,54
 348 203 348 203 386 203 c 256,55,44
 424 203 424 203 443 240 c 128,-1,45
EndSplineSet
EndChar

StartChar: uni2460
Encoding: 9312 9312 488
Width: 772
GlyphClass: 1
Flags: W
LayerCount: 2
Fore
SplineSet
210.5 36.5 m 128,-1,1
 131 83 131 83 85.5 163 c 128,-1,2
 40 243 40 243 40 340 c 256,3,4
 40 437 40 437 85.5 517 c 128,-1,5
 131 597 131 597 210.5 643.5 c 128,-1,6
 290 690 290 690 386 690 c 256,7,8
 482 690 482 690 561.5 643.5 c 128,-1,9
 641 597 641 597 686.5 517 c 128,-1,10
 732 437 732 437 732 340 c 256,11,12
 732 243 732 243 686.5 163 c 128,-1,13
 641 83 641 83 561.5 36.5 c 128,-1,14
 482 -10 482 -10 386 -10 c 256,15,0
 290 -10 290 -10 210.5 36.5 c 128,-1,1
545 62.5 m 128,-1,17
 617 105 617 105 658.5 178 c 128,-1,18
 700 251 700 251 700 340 c 256,19,20
 700 429 700 429 658.5 502 c 128,-1,21
 617 575 617 575 545 617.5 c 128,-1,22
 473 660 473 660 386 660 c 256,23,24
 299 660 299 660 227 617.5 c 128,-1,25
 155 575 155 575 113.5 502 c 128,-1,26
 72 429 72 429 72 340 c 256,27,28
 72 251 72 251 113.5 178 c 128,-1,29
 155 105 155 105 227 62.5 c 128,-1,30
 299 20 299 20 386 20 c 256,31,16
 473 20 473 20 545 62.5 c 128,-1,17
366 466 m 1,32,-1
 366 129 l 1,33,-1
 443 129 l 1,34,-1
 443 538 l 1,35,-1
 293 538 l 1,36,-1
 293 466 l 1,37,-1
 366 466 l 1,32,-1
EndSplineSet
EndChar

StartChar: uni2461
Encoding: 9313 9313 489
Width: 772
GlyphClass: 1
Flags: W
LayerCount: 2
Fore
SplineSet
210.5 36.5 m 128,-1,1
 131 83 131 83 85.5 163 c 128,-1,2
 40 243 40 243 40 340 c 256,3,4
 40 437 40 437 85.5 517 c 128,-1,5
 131 597 131 597 210.5 643.5 c 128,-1,6
 290 690 290 690 386 690 c 256,7,8
 482 690 482 690 561.5 643.5 c 128,-1,9
 641 597 641 597 686.5 517 c 128,-1,10
 732 437 732 437 732 340 c 256,11,12
 732 243 732 243 686.5 163 c 128,-1,13
 641 83 641 83 561.5 36.5 c 128,-1,14
 482 -10 482 -10 386 -10 c 256,15,0
 290 -10 290 -10 210.5 36.5 c 128,-1,1
545 62.5 m 128,-1,17
 617 105 617 105 658.5 178 c 128,-1,18
 700 251 700 251 700 340 c 256,19,20
 700 429 700 429 658.5 502 c 128,-1,21
 617 575 617 575 545 617.5 c 128,-1,22
 473 660 473 660 386 660 c 256,23,24
 299 660 299 660 227 617.5 c 128,-1,25
 155 575 155 575 113.5 502 c 128,-1,26
 72 429 72 429 72 340 c 256,27,28
 72 251 72 251 113.5 178 c 128,-1,29
 155 105 155 105 227 62.5 c 128,-1,30
 299 20 299 20 386 20 c 256,31,16
 473 20 473 20 545 62.5 c 128,-1,17
253 141 m 1,32,-1
 537 141 l 1,33,-1
 537 212 l 1,34,-1
 369 212 l 1,35,-1
 369 213 l 1,36,-1
 416 246 l 2,37,38
 477 289 477 289 509 328.5 c 128,-1,39
 541 368 541 368 541 416 c 0,40,41
 541 459 541 459 521 491 c 128,-1,42
 501 523 501 523 467.5 539.5 c 128,-1,43
 434 556 434 556 395 556 c 0,44,45
 323 556 323 556 283 512.5 c 128,-1,46
 243 469 243 469 242 405 c 1,47,-1
 319 405 l 1,48,49
 320 440 320 440 339 464 c 128,-1,50
 358 488 358 488 395 488 c 0,51,52
 425 488 425 488 444 468.5 c 128,-1,53
 463 449 463 449 463 417 c 0,54,55
 463 382 463 382 435 349.5 c 128,-1,56
 407 317 407 317 334 264 c 2,57,-1
 253 205 l 1,58,-1
 253 141 l 1,32,-1
EndSplineSet
EndChar

StartChar: uni2462
Encoding: 9314 9314 490
Width: 772
GlyphClass: 1
Flags: W
LayerCount: 2
Fore
SplineSet
210.5 36.5 m 128,-1,1
 131 83 131 83 85.5 163 c 128,-1,2
 40 243 40 243 40 340 c 256,3,4
 40 437 40 437 85.5 517 c 128,-1,5
 131 597 131 597 210.5 643.5 c 128,-1,6
 290 690 290 690 386 690 c 256,7,8
 482 690 482 690 561.5 643.5 c 128,-1,9
 641 597 641 597 686.5 517 c 128,-1,10
 732 437 732 437 732 340 c 256,11,12
 732 243 732 243 686.5 163 c 128,-1,13
 641 83 641 83 561.5 36.5 c 128,-1,14
 482 -10 482 -10 386 -10 c 256,15,0
 290 -10 290 -10 210.5 36.5 c 128,-1,1
545 62.5 m 128,-1,17
 617 105 617 105 658.5 178 c 128,-1,18
 700 251 700 251 700 340 c 256,19,20
 700 429 700 429 658.5 502 c 128,-1,21
 617 575 617 575 545 617.5 c 128,-1,22
 473 660 473 660 386 660 c 256,23,24
 299 660 299 660 227 617.5 c 128,-1,25
 155 575 155 575 113.5 502 c 128,-1,26
 72 429 72 429 72 340 c 256,27,28
 72 251 72 251 113.5 178 c 128,-1,29
 155 105 155 105 227 62.5 c 128,-1,30
 299 20 299 20 386 20 c 256,31,16
 473 20 473 20 545 62.5 c 128,-1,17
493.5 159 m 128,-1,33
 535 191 535 191 535 243 c 0,34,35
 535 285 535 285 511.5 311 c 128,-1,36
 488 337 488 337 456 344 c 1,37,-1
 456 345 l 1,38,39
 481 353 481 353 501 377.5 c 128,-1,40
 521 402 521 402 521 438 c 0,41,42
 521 487 521 487 484.5 517.5 c 128,-1,43
 448 548 448 548 389 548 c 0,44,45
 343 548 343 548 311.5 529 c 128,-1,46
 280 510 280 510 265 482 c 128,-1,47
 250 454 250 454 248 426 c 1,48,-1
 326 426 l 1,49,50
 329 450 329 450 345 465.5 c 128,-1,51
 361 481 361 481 389 481 c 0,52,53
 413 481 413 481 429 466.5 c 128,-1,54
 445 452 445 452 445 428 c 0,55,56
 445 403 445 403 426.5 389.5 c 128,-1,57
 408 376 408 376 372 376 c 2,58,-1
 344 376 l 1,59,-1
 344 309 l 1,60,-1
 377 309 l 2,61,62
 415 309 415 309 437 294 c 128,-1,63
 459 279 459 279 459 252 c 0,64,65
 459 227 459 227 439.5 210.5 c 128,-1,66
 420 194 420 194 391 194 c 256,67,68
 362 194 362 194 342 210 c 128,-1,69
 322 226 322 226 317 251 c 1,70,-1
 236 251 l 1,71,72
 241 196 241 196 283 161.5 c 128,-1,73
 325 127 325 127 391 127 c 0,74,32
 452 127 452 127 493.5 159 c 128,-1,33
EndSplineSet
EndChar

StartChar: uni2463
Encoding: 9315 9315 491
Width: 772
GlyphClass: 1
Flags: W
LayerCount: 2
Fore
SplineSet
210.5 36.5 m 128,-1,1
 131 83 131 83 85.5 163 c 128,-1,2
 40 243 40 243 40 340 c 256,3,4
 40 437 40 437 85.5 517 c 128,-1,5
 131 597 131 597 210.5 643.5 c 128,-1,6
 290 690 290 690 386 690 c 256,7,8
 482 690 482 690 561.5 643.5 c 128,-1,9
 641 597 641 597 686.5 517 c 128,-1,10
 732 437 732 437 732 340 c 256,11,12
 732 243 732 243 686.5 163 c 128,-1,13
 641 83 641 83 561.5 36.5 c 128,-1,14
 482 -10 482 -10 386 -10 c 256,15,0
 290 -10 290 -10 210.5 36.5 c 128,-1,1
545 62.5 m 128,-1,17
 617 105 617 105 658.5 178 c 128,-1,18
 700 251 700 251 700 340 c 256,19,20
 700 429 700 429 658.5 502 c 128,-1,21
 617 575 617 575 545 617.5 c 128,-1,22
 473 660 473 660 386 660 c 256,23,24
 299 660 299 660 227 617.5 c 128,-1,25
 155 575 155 575 113.5 502 c 128,-1,26
 72 429 72 429 72 340 c 256,27,28
 72 251 72 251 113.5 178 c 128,-1,29
 155 105 155 105 227 62.5 c 128,-1,30
 299 20 299 20 386 20 c 256,31,16
 473 20 473 20 545 62.5 c 128,-1,17
405 215 m 1,32,-1
 405 136 l 1,33,-1
 482 136 l 1,34,-1
 482 215 l 1,35,-1
 541 215 l 1,36,-1
 541 283 l 1,37,-1
 482 283 l 1,38,-1
 482 545 l 1,39,-1
 386 545 l 1,40,-1
 204 275 l 1,41,-1
 204 215 l 1,42,-1
 405 215 l 1,32,-1
282 284 m 1,43,44
 288 290 288 290 304 313 c 2,45,-1
 395 448 l 2,46,47
 396 449 396 449 399.5 454.5 c 128,-1,48
 403 460 403 460 404 464 c 1,49,-1
 405 464 l 1,50,-1
 405 283 l 1,51,-1
 282 283 l 1,52,-1
 282 284 l 1,43,44
EndSplineSet
EndChar

StartChar: uni2464
Encoding: 9316 9316 492
Width: 772
GlyphClass: 1
Flags: W
LayerCount: 2
Fore
SplineSet
210.5 36.5 m 128,-1,1
 131 83 131 83 85.5 163 c 128,-1,2
 40 243 40 243 40 340 c 256,3,4
 40 437 40 437 85.5 517 c 128,-1,5
 131 597 131 597 210.5 643.5 c 128,-1,6
 290 690 290 690 386 690 c 256,7,8
 482 690 482 690 561.5 643.5 c 128,-1,9
 641 597 641 597 686.5 517 c 128,-1,10
 732 437 732 437 732 340 c 256,11,12
 732 243 732 243 686.5 163 c 128,-1,13
 641 83 641 83 561.5 36.5 c 128,-1,14
 482 -10 482 -10 386 -10 c 256,15,0
 290 -10 290 -10 210.5 36.5 c 128,-1,1
545 62.5 m 128,-1,17
 617 105 617 105 658.5 178 c 128,-1,18
 700 251 700 251 700 340 c 256,19,20
 700 429 700 429 658.5 502 c 128,-1,21
 617 575 617 575 545 617.5 c 128,-1,22
 473 660 473 660 386 660 c 256,23,24
 299 660 299 660 227 617.5 c 128,-1,25
 155 575 155 575 113.5 502 c 128,-1,26
 72 429 72 429 72 340 c 256,27,28
 72 251 72 251 113.5 178 c 128,-1,29
 155 105 155 105 227 62.5 c 128,-1,30
 299 20 299 20 386 20 c 256,31,16
 473 20 473 20 545 62.5 c 128,-1,17
499 160 m 128,-1,33
 541 199 541 199 541 266 c 0,34,35
 541 329 541 329 503 363.5 c 128,-1,36
 465 398 465 398 412 398 c 0,37,38
 371 398 371 398 333 375 c 1,39,-1
 332 375 l 1,40,-1
 347 464 l 1,41,-1
 517 464 l 1,42,-1
 517 536 l 1,43,-1
 286 536 l 1,44,-1
 248 302 l 1,45,-1
 325 302 l 1,46,47
 354 333 354 333 393 333 c 0,48,49
 423 333 423 333 442.5 314 c 128,-1,50
 462 295 462 295 462 261 c 0,51,52
 462 228 462 228 442 208.5 c 128,-1,53
 422 189 422 189 392 189 c 0,54,55
 365 189 365 189 344.5 204 c 128,-1,56
 324 219 324 219 319 242 c 1,57,-1
 238 242 l 1,58,59
 246 186 246 186 287 153.5 c 128,-1,60
 328 121 328 121 389 121 c 0,61,32
 457 121 457 121 499 160 c 128,-1,33
EndSplineSet
EndChar

StartChar: uni2465
Encoding: 9317 9317 493
Width: 772
GlyphClass: 1
Flags: W
LayerCount: 2
Fore
SplineSet
210.5 36.5 m 128,-1,1
 131 83 131 83 85.5 163 c 128,-1,2
 40 243 40 243 40 340 c 256,3,4
 40 437 40 437 85.5 517 c 128,-1,5
 131 597 131 597 210.5 643.5 c 128,-1,6
 290 690 290 690 386 690 c 256,7,8
 482 690 482 690 561.5 643.5 c 128,-1,9
 641 597 641 597 686.5 517 c 128,-1,10
 732 437 732 437 732 340 c 256,11,12
 732 243 732 243 686.5 163 c 128,-1,13
 641 83 641 83 561.5 36.5 c 128,-1,14
 482 -10 482 -10 386 -10 c 256,15,0
 290 -10 290 -10 210.5 36.5 c 128,-1,1
545 62.5 m 128,-1,17
 617 105 617 105 658.5 178 c 128,-1,18
 700 251 700 251 700 340 c 256,19,20
 700 429 700 429 658.5 502 c 128,-1,21
 617 575 617 575 545 617.5 c 128,-1,22
 473 660 473 660 386 660 c 256,23,24
 299 660 299 660 227 617.5 c 128,-1,25
 155 575 155 575 113.5 502 c 128,-1,26
 72 429 72 429 72 340 c 256,27,28
 72 251 72 251 113.5 178 c 128,-1,29
 155 105 155 105 227 62.5 c 128,-1,30
 299 20 299 20 386 20 c 256,31,16
 473 20 473 20 545 62.5 c 128,-1,17
488 173 m 128,-1,33
 528 212 528 212 528 271 c 0,34,35
 528 309 528 309 510.5 338.5 c 128,-1,36
 493 368 493 368 465 383.5 c 128,-1,37
 437 399 437 399 406 399 c 0,38,39
 383 399 383 399 367 390 c 1,40,-1
 366 391 l 1,41,-1
 473 549 l 1,42,-1
 385 549 l 1,43,-1
 287 388 l 2,44,45
 264 350 264 350 255 323.5 c 128,-1,46
 246 297 246 297 246 269 c 0,47,48
 246 211 246 211 286 172.5 c 128,-1,49
 326 134 326 134 387 134 c 256,50,32
 448 134 448 134 488 173 c 128,-1,33
339 220 m 128,-1,52
 320 239 320 239 320 269 c 0,53,54
 320 298 320 298 339 317.5 c 128,-1,55
 358 337 358 337 387 337 c 256,56,57
 416 337 416 337 435 317.5 c 128,-1,58
 454 298 454 298 454 269 c 256,59,60
 454 240 454 240 435 220.5 c 128,-1,61
 416 201 416 201 387 201 c 256,62,51
 358 201 358 201 339 220 c 128,-1,52
EndSplineSet
EndChar

StartChar: uni2466
Encoding: 9318 9318 494
Width: 772
GlyphClass: 1
Flags: W
LayerCount: 2
Fore
SplineSet
210.5 36.5 m 128,-1,1
 131 83 131 83 85.5 163 c 128,-1,2
 40 243 40 243 40 340 c 256,3,4
 40 437 40 437 85.5 517 c 128,-1,5
 131 597 131 597 210.5 643.5 c 128,-1,6
 290 690 290 690 386 690 c 256,7,8
 482 690 482 690 561.5 643.5 c 128,-1,9
 641 597 641 597 686.5 517 c 128,-1,10
 732 437 732 437 732 340 c 256,11,12
 732 243 732 243 686.5 163 c 128,-1,13
 641 83 641 83 561.5 36.5 c 128,-1,14
 482 -10 482 -10 386 -10 c 256,15,0
 290 -10 290 -10 210.5 36.5 c 128,-1,1
545 62.5 m 128,-1,17
 617 105 617 105 658.5 178 c 128,-1,18
 700 251 700 251 700 340 c 256,19,20
 700 429 700 429 658.5 502 c 128,-1,21
 617 575 617 575 545 617.5 c 128,-1,22
 473 660 473 660 386 660 c 256,23,24
 299 660 299 660 227 617.5 c 128,-1,25
 155 575 155 575 113.5 502 c 128,-1,26
 72 429 72 429 72 340 c 256,27,28
 72 251 72 251 113.5 178 c 128,-1,29
 155 105 155 105 227 62.5 c 128,-1,30
 299 20 299 20 386 20 c 256,31,16
 473 20 473 20 545 62.5 c 128,-1,17
291 122 m 1,32,-1
 372 122 l 1,33,-1
 539 466 l 1,34,-1
 539 531 l 1,35,-1
 265 531 l 1,36,-1
 265 459 l 1,37,-1
 458 459 l 1,38,39
 451 449 451 449 450 446 c 128,-1,40
 449 443 449 443 447 441 c 2,41,-1
 291 122 l 1,32,-1
EndSplineSet
EndChar

StartChar: uni2467
Encoding: 9319 9319 495
Width: 772
GlyphClass: 1
Flags: W
LayerCount: 2
Fore
SplineSet
210.5 36.5 m 128,-1,1
 131 83 131 83 85.5 163 c 128,-1,2
 40 243 40 243 40 340 c 256,3,4
 40 437 40 437 85.5 517 c 128,-1,5
 131 597 131 597 210.5 643.5 c 128,-1,6
 290 690 290 690 386 690 c 256,7,8
 482 690 482 690 561.5 643.5 c 128,-1,9
 641 597 641 597 686.5 517 c 128,-1,10
 732 437 732 437 732 340 c 256,11,12
 732 243 732 243 686.5 163 c 128,-1,13
 641 83 641 83 561.5 36.5 c 128,-1,14
 482 -10 482 -10 386 -10 c 256,15,0
 290 -10 290 -10 210.5 36.5 c 128,-1,1
545 62.5 m 128,-1,17
 617 105 617 105 658.5 178 c 128,-1,18
 700 251 700 251 700 340 c 256,19,20
 700 429 700 429 658.5 502 c 128,-1,21
 617 575 617 575 545 617.5 c 128,-1,22
 473 660 473 660 386 660 c 256,23,24
 299 660 299 660 227 617.5 c 128,-1,25
 155 575 155 575 113.5 502 c 128,-1,26
 72 429 72 429 72 340 c 256,27,28
 72 251 72 251 113.5 178 c 128,-1,29
 155 105 155 105 227 62.5 c 128,-1,30
 299 20 299 20 386 20 c 256,31,16
 473 20 473 20 545 62.5 c 128,-1,17
490.5 164.5 m 128,-1,33
 533 199 533 199 533 252 c 0,34,35
 533 291 533 291 508.5 319 c 128,-1,36
 484 347 484 347 454 356 c 1,37,-1
 454 357 l 1,38,39
 476 366 476 366 494.5 389 c 128,-1,40
 513 412 513 412 513 443 c 0,41,42
 513 489 513 489 478.5 520 c 128,-1,43
 444 551 444 551 386 551 c 256,44,45
 328 551 328 551 293.5 520 c 128,-1,46
 259 489 259 489 259 443 c 0,47,48
 259 412 259 412 277.5 389 c 128,-1,49
 296 366 296 366 318 357 c 1,50,-1
 318 356 l 1,51,52
 288 347 288 347 263.5 319 c 128,-1,53
 239 291 239 291 239 252 c 0,54,55
 239 199 239 199 282 164.5 c 128,-1,56
 325 130 325 130 386 130 c 0,57,32
 448 130 448 130 490.5 164.5 c 128,-1,33
348.5 402 m 128,-1,59
 333 417 333 417 333 438 c 256,60,61
 333 459 333 459 348 473.5 c 128,-1,62
 363 488 363 488 386 488 c 256,63,64
 409 488 409 488 424 473.5 c 128,-1,65
 439 459 439 459 439 438 c 256,66,67
 439 417 439 417 423.5 402 c 128,-1,68
 408 387 408 387 386 387 c 256,69,58
 364 387 364 387 348.5 402 c 128,-1,59
336.5 212.5 m 128,-1,71
 316 230 316 230 316 258 c 0,72,73
 316 285 316 285 336 303 c 128,-1,74
 356 321 356 321 386 321 c 256,75,76
 416 321 416 321 436.5 302.5 c 128,-1,77
 457 284 457 284 457 258 c 0,78,79
 457 230 457 230 436 212.5 c 128,-1,80
 415 195 415 195 386 195 c 256,81,70
 357 195 357 195 336.5 212.5 c 128,-1,71
EndSplineSet
EndChar

StartChar: uni2468
Encoding: 9320 9320 496
Width: 772
GlyphClass: 1
Flags: W
LayerCount: 2
Fore
SplineSet
210.5 36.5 m 128,-1,1
 131 83 131 83 85.5 163 c 128,-1,2
 40 243 40 243 40 340 c 256,3,4
 40 437 40 437 85.5 517 c 128,-1,5
 131 597 131 597 210.5 643.5 c 128,-1,6
 290 690 290 690 386 690 c 256,7,8
 482 690 482 690 561.5 643.5 c 128,-1,9
 641 597 641 597 686.5 517 c 128,-1,10
 732 437 732 437 732 340 c 256,11,12
 732 243 732 243 686.5 163 c 128,-1,13
 641 83 641 83 561.5 36.5 c 128,-1,14
 482 -10 482 -10 386 -10 c 256,15,0
 290 -10 290 -10 210.5 36.5 c 128,-1,1
545 62.5 m 128,-1,17
 617 105 617 105 658.5 178 c 128,-1,18
 700 251 700 251 700 340 c 256,19,20
 700 429 700 429 658.5 502 c 128,-1,21
 617 575 617 575 545 617.5 c 128,-1,22
 473 660 473 660 386 660 c 256,23,24
 299 660 299 660 227 617.5 c 128,-1,25
 155 575 155 575 113.5 502 c 128,-1,26
 72 429 72 429 72 340 c 256,27,28
 72 251 72 251 113.5 178 c 128,-1,29
 155 105 155 105 227 62.5 c 128,-1,30
 299 20 299 20 386 20 c 256,31,16
 473 20 473 20 545 62.5 c 128,-1,17
300 133 m 1,32,-1
 389 133 l 1,33,-1
 486 286 l 2,34,35
 511 326 511 326 521 354.5 c 128,-1,36
 531 383 531 383 531 412 c 0,37,38
 531 471 531 471 491 509.5 c 128,-1,39
 451 548 451 548 390 548 c 256,40,41
 329 548 329 548 289 509 c 128,-1,42
 249 470 249 470 249 411 c 0,43,44
 249 373 249 373 266.5 343.5 c 128,-1,45
 284 314 284 314 312 298 c 128,-1,46
 340 282 340 282 371 282 c 0,47,48
 395 282 395 282 409 292 c 1,49,-1
 410 291 l 1,50,-1
 300 133 l 1,32,-1
342 364 m 128,-1,52
 323 383 323 383 323 413 c 256,53,54
 323 443 323 443 342 462 c 128,-1,55
 361 481 361 481 390 481 c 256,56,57
 419 481 419 481 438 461.5 c 128,-1,58
 457 442 457 442 457 413 c 256,59,60
 457 384 457 384 438 364.5 c 128,-1,61
 419 345 419 345 390 345 c 256,62,51
 361 345 361 345 342 364 c 128,-1,52
EndSplineSet
EndChar

StartChar: zero.dnom
Encoding: 65715 -1 497
Width: 376
GlyphClass: 1
Flags: W
LayerCount: 2
Fore
SplineSet
75.5 51.5 m 128,-1,1
 35 109 35 109 35 204 c 256,2,3
 35 299 35 299 75.5 357 c 128,-1,4
 116 415 116 415 188 415 c 256,5,6
 260 415 260 415 300.5 357 c 128,-1,7
 341 299 341 299 341 204 c 0,8,9
 341 110 341 110 300.5 52 c 128,-1,10
 260 -6 260 -6 188 -6 c 256,11,0
 116 -6 116 -6 75.5 51.5 c 128,-1,1
245 104 m 128,-1,13
 264 141 264 141 264 204 c 0,14,15
 264 268 264 268 245 305 c 128,-1,16
 226 342 226 342 188 342 c 256,17,18
 150 342 150 342 131.5 305 c 128,-1,19
 113 268 113 268 113 204 c 0,20,21
 113 141 113 141 131.5 104 c 128,-1,22
 150 67 150 67 188 67 c 256,23,12
 226 67 226 67 245 104 c 128,-1,13
EndSplineSet
EndChar

StartChar: one.dnom
Encoding: 65716 -1 498
Width: 244
GlyphClass: 1
Flags: W
LayerCount: 2
Fore
SplineSet
30 337 m 1,0,-1
 30 409 l 1,1,-1
 180 409 l 1,2,-1
 180 0 l 1,3,-1
 103 0 l 1,4,-1
 103 337 l 1,5,-1
 30 337 l 1,0,-1
EndSplineSet
EndChar

StartChar: two.dnom
Encoding: 65717 -1 499
Width: 351
GlyphClass: 1
Flags: W
LayerCount: 2
Fore
SplineSet
31 0 m 1,0,-1
 31 64 l 1,1,-1
 112 123 l 2,2,3
 185 176 185 176 213 208.5 c 128,-1,4
 241 241 241 241 241 276 c 0,5,6
 241 308 241 308 222 327.5 c 128,-1,7
 203 347 203 347 173 347 c 0,8,9
 136 347 136 347 117 323 c 128,-1,10
 98 299 98 299 97 264 c 1,11,-1
 20 264 l 1,12,13
 21 328 21 328 61 371.5 c 128,-1,14
 101 415 101 415 173 415 c 0,15,16
 212 415 212 415 245.5 398.5 c 128,-1,17
 279 382 279 382 299 350 c 128,-1,18
 319 318 319 318 319 275 c 0,19,20
 319 227 319 227 287 187.5 c 128,-1,21
 255 148 255 148 194 105 c 2,22,-1
 147 72 l 1,23,-1
 147 71 l 1,24,-1
 315 71 l 1,25,-1
 315 0 l 1,26,-1
 31 0 l 1,0,-1
EndSplineSet
EndChar

StartChar: three.dnom
Encoding: 65718 -1 500
Width: 365
GlyphClass: 1
Flags: W
LayerCount: 2
Fore
SplineSet
78 28.5 m 128,-1,1
 36 63 36 63 31 118 c 1,2,-1
 112 118 l 1,3,4
 117 93 117 93 137 77 c 128,-1,5
 157 61 157 61 186 61 c 256,6,7
 215 61 215 61 234.5 77.5 c 128,-1,8
 254 94 254 94 254 119 c 0,9,10
 254 146 254 146 232 161 c 128,-1,11
 210 176 210 176 172 176 c 2,12,-1
 139 176 l 1,13,-1
 139 243 l 1,14,-1
 167 243 l 2,15,16
 203 243 203 243 221.5 256.5 c 128,-1,17
 240 270 240 270 240 295 c 0,18,19
 240 319 240 319 224 333.5 c 128,-1,20
 208 348 208 348 184 348 c 0,21,22
 156 348 156 348 140 332.5 c 128,-1,23
 124 317 124 317 121 293 c 1,24,-1
 43 293 l 1,25,26
 45 321 45 321 60 349 c 128,-1,27
 75 377 75 377 106.5 396 c 128,-1,28
 138 415 138 415 184 415 c 0,29,30
 243 415 243 415 279.5 384.5 c 128,-1,31
 316 354 316 354 316 305 c 0,32,33
 316 269 316 269 296 244.5 c 128,-1,34
 276 220 276 220 251 212 c 1,35,-1
 251 211 l 1,36,37
 283 204 283 204 306.5 178 c 128,-1,38
 330 152 330 152 330 110 c 0,39,40
 330 58 330 58 288.5 26 c 128,-1,41
 247 -6 247 -6 186 -6 c 0,42,0
 120 -6 120 -6 78 28.5 c 128,-1,1
EndSplineSet
EndChar

StartChar: four.dnom
Encoding: 65719 -1 501
Width: 385
GlyphClass: 1
Flags: W
LayerCount: 2
Fore
SplineSet
299 147 m 1,0,-1
 358 147 l 1,1,-1
 358 79 l 1,2,-1
 299 79 l 1,3,-1
 299 0 l 1,4,-1
 222 0 l 1,5,-1
 222 79 l 1,6,-1
 21 79 l 1,7,-1
 21 139 l 1,8,-1
 203 409 l 1,9,-1
 299 409 l 1,10,-1
 299 147 l 1,0,-1
99 147 m 1,11,-1
 222 147 l 1,12,-1
 222 328 l 1,13,-1
 221 328 l 1,14,15
 220 324 220 324 216.5 318.5 c 128,-1,16
 213 313 213 313 212 312 c 2,17,-1
 121 177 l 2,18,19
 105 154 105 154 99 148 c 1,20,-1
 99 147 l 1,11,-1
EndSplineSet
EndChar

StartChar: five.dnom
Encoding: 65720 -1 502
Width: 368
GlyphClass: 1
Flags: W
LayerCount: 2
Fore
SplineSet
303 236.5 m 128,-1,1
 341 202 341 202 341 139 c 0,2,3
 341 72 341 72 299 33 c 128,-1,4
 257 -6 257 -6 189 -6 c 0,5,6
 128 -6 128 -6 87 26.5 c 128,-1,7
 46 59 46 59 38 115 c 1,8,-1
 119 115 l 1,9,10
 124 92 124 92 144.5 77 c 128,-1,11
 165 62 165 62 192 62 c 0,12,13
 222 62 222 62 242 81.5 c 128,-1,14
 262 101 262 101 262 134 c 0,15,16
 262 168 262 168 242.5 187 c 128,-1,17
 223 206 223 206 193 206 c 0,18,19
 154 206 154 206 125 175 c 1,20,-1
 48 175 l 1,21,-1
 86 409 l 1,22,-1
 317 409 l 1,23,-1
 317 337 l 1,24,-1
 147 337 l 1,25,-1
 132 248 l 1,26,-1
 133 248 l 1,27,28
 171 271 171 271 212 271 c 0,29,0
 265 271 265 271 303 236.5 c 128,-1,1
EndSplineSet
EndChar

StartChar: six.dnom
Encoding: 65721 -1 503
Width: 338
GlyphClass: 1
Flags: W
LayerCount: 2
Fore
SplineSet
68 32.5 m 128,-1,1
 28 71 28 71 28 129 c 0,2,3
 28 157 28 157 37 183.5 c 128,-1,4
 46 210 46 210 69 248 c 2,5,-1
 167 409 l 1,6,-1
 255 409 l 1,7,-1
 148 251 l 1,8,-1
 149 250 l 1,9,10
 165 259 165 259 188 259 c 0,11,12
 219 259 219 259 247 243.5 c 128,-1,13
 275 228 275 228 292.5 198.5 c 128,-1,14
 310 169 310 169 310 131 c 0,15,16
 310 72 310 72 270 33 c 128,-1,17
 230 -6 230 -6 169 -6 c 256,18,0
 108 -6 108 -6 68 32.5 c 128,-1,1
217 80.5 m 128,-1,20
 236 100 236 100 236 129 c 256,21,22
 236 158 236 158 217 177.5 c 128,-1,23
 198 197 198 197 169 197 c 256,24,25
 140 197 140 197 121 177.5 c 128,-1,26
 102 158 102 158 102 129 c 0,27,28
 102 99 102 99 121 80 c 128,-1,29
 140 61 140 61 169 61 c 256,30,19
 198 61 198 61 217 80.5 c 128,-1,20
EndSplineSet
EndChar

StartChar: seven.dnom
Encoding: 65722 -1 504
Width: 314
GlyphClass: 1
Flags: W
LayerCount: 2
Fore
SplineSet
202 319 m 2,0,1
 204 321 204 321 205 324 c 128,-1,2
 206 327 206 327 213 337 c 1,3,-1
 20 337 l 1,4,-1
 20 409 l 1,5,-1
 294 409 l 1,6,-1
 294 344 l 1,7,-1
 127 0 l 1,8,-1
 46 0 l 1,9,-1
 202 319 l 2,0,1
EndSplineSet
EndChar

StartChar: eight.dnom
Encoding: 65723 -1 505
Width: 364
GlyphClass: 1
Flags: W
LayerCount: 2
Fore
SplineSet
78 28.5 m 128,-1,1
 35 63 35 63 35 116 c 0,2,3
 35 155 35 155 59.5 183 c 128,-1,4
 84 211 84 211 114 220 c 1,5,-1
 114 221 l 1,6,7
 92 230 92 230 73.5 253 c 128,-1,8
 55 276 55 276 55 307 c 0,9,10
 55 353 55 353 89.5 384 c 128,-1,11
 124 415 124 415 182 415 c 256,12,13
 240 415 240 415 274.5 384 c 128,-1,14
 309 353 309 353 309 307 c 0,15,16
 309 276 309 276 290.5 253 c 128,-1,17
 272 230 272 230 250 221 c 1,18,-1
 250 220 l 1,19,20
 280 211 280 211 304.5 183 c 128,-1,21
 329 155 329 155 329 116 c 0,22,23
 329 63 329 63 286.5 28.5 c 128,-1,24
 244 -6 244 -6 182 -6 c 0,25,0
 121 -6 121 -6 78 28.5 c 128,-1,1
219.5 266 m 128,-1,27
 235 281 235 281 235 302 c 256,28,29
 235 323 235 323 220 337.5 c 128,-1,30
 205 352 205 352 182 352 c 256,31,32
 159 352 159 352 144 337.5 c 128,-1,33
 129 323 129 323 129 302 c 256,34,35
 129 281 129 281 144.5 266 c 128,-1,36
 160 251 160 251 182 251 c 256,37,26
 204 251 204 251 219.5 266 c 128,-1,27
232 76.5 m 128,-1,39
 253 94 253 94 253 122 c 0,40,41
 253 148 253 148 232.5 166.5 c 128,-1,42
 212 185 212 185 182 185 c 256,43,44
 152 185 152 185 132 167 c 128,-1,45
 112 149 112 149 112 122 c 0,46,47
 112 94 112 94 132.5 76.5 c 128,-1,48
 153 59 153 59 182 59 c 256,49,38
 211 59 211 59 232 76.5 c 128,-1,39
EndSplineSet
EndChar

StartChar: nine.dnom
Encoding: 65724 -1 506
Width: 338
GlyphClass: 1
Flags: W
LayerCount: 2
Fore
SplineSet
79 0 m 1,0,-1
 189 158 l 1,1,-1
 188 159 l 1,2,3
 174 149 174 149 150 149 c 0,4,5
 119 149 119 149 91 165 c 128,-1,6
 63 181 63 181 45.5 210.5 c 128,-1,7
 28 240 28 240 28 278 c 0,8,9
 28 337 28 337 68 376 c 128,-1,10
 108 415 108 415 169 415 c 256,11,12
 230 415 230 415 270 376.5 c 128,-1,13
 310 338 310 338 310 279 c 0,14,15
 310 250 310 250 300 221.5 c 128,-1,16
 290 193 290 193 265 153 c 2,17,-1
 168 0 l 1,18,-1
 79 0 l 1,0,-1
217 231.5 m 128,-1,20
 236 251 236 251 236 280 c 256,21,22
 236 309 236 309 217 328.5 c 128,-1,23
 198 348 198 348 169 348 c 256,24,25
 140 348 140 348 121 329 c 128,-1,26
 102 310 102 310 102 280 c 256,27,28
 102 250 102 250 121 231 c 128,-1,29
 140 212 140 212 169 212 c 256,30,19
 198 212 198 212 217 231.5 c 128,-1,20
EndSplineSet
EndChar

StartChar: fraction
Encoding: 8260 8260 517
Width: 586
GlyphClass: 1
Flags: W
LayerCount: 2
Fore
SplineSet
79 0 m 1,0,-1
 12 0 l 1,1,-1
 507 680 l 1,2,-1
 574 680 l 1,3,-1
 79 0 l 1,0,-1
EndSplineSet
EndChar

StartChar: period
Encoding: 46 46 527
Width: 200
GlyphClass: 1
Flags: W
LayerCount: 2
Fore
SplineSet
56 7.5 m 128,-1,1
 38 25 38 25 38 51 c 256,2,3
 38 77 38 77 56 95 c 128,-1,4
 74 113 74 113 100 113 c 256,5,6
 126 113 126 113 144 95 c 128,-1,7
 162 77 162 77 162 51 c 256,8,9
 162 25 162 25 144 7.5 c 128,-1,10
 126 -10 126 -10 100 -10 c 256,11,0
 74 -10 74 -10 56 7.5 c 128,-1,1
EndSplineSet
EndChar

StartChar: comma
Encoding: 44 44 528
Width: 176
GlyphClass: 1
Flags: W
LayerCount: 2
Fore
SplineSet
75 -116 m 1,0,-1
 20 -116 l 1,1,-1
 52 87 l 1,2,-1
 166 87 l 1,3,-1
 75 -116 l 1,0,-1
EndSplineSet
EndChar

StartChar: exclam
Encoding: 33 33 532
Width: 200
GlyphClass: 1
Flags: W
LayerCount: 2
Fore
SplineSet
146 183 m 1,0,-1
 54 183 l 1,1,-1
 54 680 l 1,2,-1
 146 680 l 1,3,-1
 146 183 l 1,0,-1
56 7.5 m 128,-1,5
 38 25 38 25 38 51 c 256,6,7
 38 77 38 77 56 95 c 128,-1,8
 74 113 74 113 100 113 c 256,9,10
 126 113 126 113 144 95 c 128,-1,11
 162 77 162 77 162 51 c 256,12,13
 162 25 162 25 144 7.5 c 128,-1,14
 126 -10 126 -10 100 -10 c 256,15,4
 74 -10 74 -10 56 7.5 c 128,-1,5
EndSplineSet
EndChar

StartChar: exclamdown
Encoding: 161 161 533
Width: 200
GlyphClass: 1
Flags: W
LayerCount: 2
Fore
SplineSet
56 373 m 128,-1,1
 38 391 38 391 38 417 c 256,2,3
 38 443 38 443 56 460.5 c 128,-1,4
 74 478 74 478 100 478 c 256,5,6
 126 478 126 478 144 460.5 c 128,-1,7
 162 443 162 443 162 417 c 256,8,9
 162 391 162 391 144 373 c 128,-1,10
 126 355 126 355 100 355 c 256,11,0
 74 355 74 355 56 373 c 128,-1,1
146 -212 m 1,12,-1
 54 -212 l 1,13,-1
 54 285 l 1,14,-1
 146 285 l 1,15,-1
 146 -212 l 1,12,-1
EndSplineSet
EndChar

StartChar: question
Encoding: 63 63 534
Width: 462
GlyphClass: 1
Flags: W
LayerCount: 2
Fore
SplineSet
182 185 m 1,0,1
 182 237 182 237 196 276.5 c 128,-1,2
 210 316 210 316 229 342.5 c 128,-1,3
 248 369 248 369 278 401 c 0,4,5
 309 435 309 435 323.5 458 c 128,-1,6
 338 481 338 481 338 510 c 0,7,8
 338 549 338 549 309.5 575.5 c 128,-1,9
 281 602 281 602 240 602 c 0,10,11
 188 602 188 602 157 568.5 c 128,-1,12
 126 535 126 535 123 482 c 1,13,-1
 28 482 l 1,14,15
 32 576 32 576 87.5 633 c 128,-1,16
 143 690 143 690 240 690 c 0,17,18
 324 690 324 690 379 642 c 128,-1,19
 434 594 434 594 434 510 c 0,20,21
 434 476 434 476 424 450 c 128,-1,22
 414 424 414 424 399 406 c 128,-1,23
 384 388 384 388 358 362 c 0,24,25
 330 334 330 334 313 313 c 128,-1,26
 296 292 296 292 284 260 c 128,-1,27
 272 228 272 228 272 185 c 1,28,-1
 182 185 l 1,0,1
189 7.5 m 128,-1,30
 171 25 171 25 171 51 c 256,31,32
 171 77 171 77 189 95 c 128,-1,33
 207 113 207 113 233 113 c 256,34,35
 259 113 259 113 277 95 c 128,-1,36
 295 77 295 77 295 51 c 256,37,38
 295 25 295 25 277 7.5 c 128,-1,39
 259 -10 259 -10 233 -10 c 256,40,29
 207 -10 207 -10 189 7.5 c 128,-1,30
EndSplineSet
Substitution2: "'ss03' Style Set 3 in Latin lookup 21 subtable" question.ss03
Substitution2: "'aalt' Access All Alternates in Latin lookup 0 subtable" question.ss03
EndChar

StartChar: question.ss03
Encoding: 65725 -1 535
Width: 480
GlyphClass: 1
Flags: W
LayerCount: 2
Fore
SplineSet
148 194 m 128,-1,1
 109 215 109 215 89 248 c 128,-1,2
 69 281 69 281 69 318 c 0,3,4
 69 363 69 363 92 391 c 128,-1,5
 115 419 115 419 146.5 433.5 c 128,-1,6
 178 448 178 448 230 465 c 0,7,8
 287 484 287 484 313.5 499.5 c 128,-1,9
 340 515 340 515 340 545 c 0,10,11
 340 573 340 573 315 592.5 c 128,-1,12
 290 612 290 612 249 612 c 0,13,14
 204 612 204 612 175 589 c 128,-1,15
 146 566 146 566 142 526 c 1,16,-1
 48 526 l 1,17,18
 52 601 52 601 107 645.5 c 128,-1,19
 162 690 162 690 249 690 c 0,20,21
 301 690 301 690 342.5 672 c 128,-1,22
 384 654 384 654 408 621 c 128,-1,23
 432 588 432 588 432 545 c 0,24,25
 432 497 432 497 408.5 468 c 128,-1,26
 385 439 385 439 353 424 c 128,-1,27
 321 409 321 409 268 393 c 0,28,29
 213 377 213 377 187 362 c 128,-1,30
 161 347 161 347 161 318 c 0,31,32
 161 288 161 288 183.5 269.5 c 128,-1,33
 206 251 206 251 241 251 c 0,34,35
 275 251 275 251 297 271.5 c 128,-1,36
 319 292 319 292 325 330 c 1,37,-1
 418 330 l 1,38,39
 411 256 411 256 362.5 214.5 c 128,-1,40
 314 173 314 173 241 173 c 0,41,0
 187 173 187 173 148 194 c 128,-1,1
201 7.5 m 128,-1,43
 183 25 183 25 183 51 c 256,44,45
 183 77 183 77 201 95 c 128,-1,46
 219 113 219 113 245 113 c 256,47,48
 271 113 271 113 289 95 c 128,-1,49
 307 77 307 77 307 51 c 256,50,51
 307 25 307 25 289 7.5 c 128,-1,52
 271 -10 271 -10 245 -10 c 256,53,42
 219 -10 219 -10 201 7.5 c 128,-1,43
EndSplineSet
EndChar

StartChar: questiondown
Encoding: 191 191 536
Width: 462
GlyphClass: 1
Flags: W
LayerCount: 2
Fore
SplineSet
273 460.5 m 128,-1,1
 291 443 291 443 291 417 c 256,2,3
 291 391 291 391 273 373 c 128,-1,4
 255 355 255 355 229 355 c 256,5,6
 203 355 203 355 185 373 c 128,-1,7
 167 391 167 391 167 417 c 256,8,9
 167 443 167 443 185 460.5 c 128,-1,10
 203 478 203 478 229 478 c 256,11,0
 255 478 255 478 273 460.5 c 128,-1,1
280 283 m 1,12,13
 280 231 280 231 266 191.5 c 128,-1,14
 252 152 252 152 233 125.5 c 128,-1,15
 214 99 214 99 184 67 c 0,16,17
 153 33 153 33 138.5 10 c 128,-1,18
 124 -13 124 -13 124 -42 c 0,19,20
 124 -81 124 -81 152.5 -107.5 c 128,-1,21
 181 -134 181 -134 222 -134 c 0,22,23
 274 -134 274 -134 305 -100.5 c 128,-1,24
 336 -67 336 -67 339 -14 c 1,25,-1
 434 -14 l 1,26,27
 430 -108 430 -108 374.5 -165 c 128,-1,28
 319 -222 319 -222 222 -222 c 0,29,30
 138 -222 138 -222 83 -174 c 128,-1,31
 28 -126 28 -126 28 -42 c 0,32,33
 28 -8 28 -8 38 18 c 128,-1,34
 48 44 48 44 63 62 c 128,-1,35
 78 80 78 80 104 106 c 0,36,37
 132 134 132 134 149 155 c 128,-1,38
 166 176 166 176 178 208 c 128,-1,39
 190 240 190 240 190 283 c 1,40,-1
 280 283 l 1,12,13
EndSplineSet
Substitution2: "'ss03' Style Set 3 in Latin lookup 21 subtable" questiondown.ss03
Substitution2: "'aalt' Access All Alternates in Latin lookup 0 subtable" questiondown.ss03
EndChar

StartChar: questiondown.ss03
Encoding: 65726 -1 537
Width: 480
GlyphClass: 1
Flags: W
LayerCount: 2
Fore
SplineSet
201 372.5 m 128,-1,1
 183 390 183 390 183 416 c 256,2,3
 183 442 183 442 201 460 c 128,-1,4
 219 478 219 478 245 478 c 256,5,6
 271 478 271 478 289 460 c 128,-1,7
 307 442 307 442 307 416 c 256,8,9
 307 390 307 390 289 372.5 c 128,-1,10
 271 355 271 355 245 355 c 256,11,0
 219 355 219 355 201 372.5 c 128,-1,1
107 -177.5 m 128,-1,13
 52 -133 52 -133 48 -58 c 1,14,-1
 142 -58 l 1,15,16
 146 -98 146 -98 175 -121 c 128,-1,17
 204 -144 204 -144 249 -144 c 0,18,19
 290 -144 290 -144 315 -124.5 c 128,-1,20
 340 -105 340 -105 340 -77 c 0,21,22
 340 -47 340 -47 313.5 -31.5 c 128,-1,23
 287 -16 287 -16 230 3 c 0,24,25
 178 20 178 20 146.5 34.5 c 128,-1,26
 115 49 115 49 92 77 c 128,-1,27
 69 105 69 105 69 150 c 0,28,29
 69 187 69 187 89 220 c 128,-1,30
 109 253 109 253 148 274 c 128,-1,31
 187 295 187 295 241 295 c 0,32,33
 314 295 314 295 362.5 253.5 c 128,-1,34
 411 212 411 212 418 138 c 1,35,-1
 325 138 l 1,36,37
 319 176 319 176 297 196.5 c 128,-1,38
 275 217 275 217 241 217 c 0,39,40
 206 217 206 217 183.5 198.5 c 128,-1,41
 161 180 161 180 161 150 c 0,42,43
 161 121 161 121 187 106 c 128,-1,44
 213 91 213 91 268 75 c 0,45,46
 321 59 321 59 353 44 c 128,-1,47
 385 29 385 29 408.5 0 c 128,-1,48
 432 -29 432 -29 432 -77 c 0,49,50
 432 -120 432 -120 408 -153 c 128,-1,51
 384 -186 384 -186 342.5 -204 c 128,-1,52
 301 -222 301 -222 249 -222 c 0,53,12
 162 -222 162 -222 107 -177.5 c 128,-1,13
EndSplineSet
EndChar

StartChar: bullet
Encoding: 8226 8226 540
Width: 258
GlyphClass: 1
Flags: W
LayerCount: 2
Fore
SplineSet
65.5 184 m 128,-1,1
 40 209 40 209 40 246 c 0,2,3
 40 284 40 284 66 309.5 c 128,-1,4
 92 335 92 335 129 335 c 0,5,6
 167 335 167 335 192.5 309.5 c 128,-1,7
 218 284 218 284 218 246 c 0,8,9
 218 209 218 209 192.5 184 c 128,-1,10
 167 159 167 159 129 159 c 256,11,0
 91 159 91 159 65.5 184 c 128,-1,1
EndSplineSet
Substitution2: "'case' Case-Sensitive Forms in Latin lookup 13 subtable" bullet.case
Substitution2: "'aalt' Access All Alternates in Latin lookup 0 subtable" bullet.case
EndChar

StartChar: asterisk
Encoding: 42 42 542
Width: 256
GlyphClass: 1
Flags: W
LayerCount: 2
Fore
SplineSet
205 651 m 1,0,-1
 232 609 l 1,1,-1
 171 574 l 1,2,-1
 232 539 l 1,3,-1
 205 497 l 1,4,-1
 152 529 l 1,5,-1
 152 468 l 1,6,-1
 104 468 l 1,7,-1
 104 529 l 1,8,-1
 51 497 l 1,9,-1
 24 539 l 1,10,-1
 85 574 l 1,11,-1
 24 609 l 1,12,-1
 51 651 l 1,13,-1
 104 619 l 1,14,-1
 104 680 l 1,15,-1
 152 680 l 1,16,-1
 152 619 l 1,17,-1
 205 651 l 1,0,-1
EndSplineSet
EndChar

StartChar: numbersign
Encoding: 35 35 543
Width: 640
GlyphClass: 1
Flags: W
LayerCount: 2
Fore
SplineSet
628 489 m 1,0,-1
 628 417 l 1,1,-1
 496 417 l 1,2,-1
 469 271 l 1,3,-1
 595 271 l 1,4,-1
 595 199 l 1,5,-1
 456 199 l 1,6,-1
 419 0 l 1,7,-1
 344 0 l 1,8,-1
 381 199 l 1,9,-1
 225 199 l 1,10,-1
 188 0 l 1,11,-1
 113 0 l 1,12,-1
 150 199 l 1,13,-1
 20 199 l 1,14,-1
 20 271 l 1,15,-1
 163 271 l 1,16,-1
 190 417 l 1,17,-1
 57 417 l 1,18,-1
 57 489 l 1,19,-1
 203 489 l 1,20,-1
 238 680 l 1,21,-1
 313 680 l 1,22,-1
 278 489 l 1,23,-1
 434 489 l 1,24,-1
 469 680 l 1,25,-1
 544 680 l 1,26,-1
 509 489 l 1,27,-1
 628 489 l 1,0,-1
238 271 m 1,28,-1
 394 271 l 1,29,-1
 421 417 l 1,30,-1
 265 417 l 1,31,-1
 238 271 l 1,28,-1
EndSplineSet
EndChar

StartChar: slash
Encoding: 47 47 544
Width: 392
GlyphClass: 1
Flags: W
LayerCount: 2
Fore
SplineSet
92 0 m 1,0,-1
 12 0 l 1,1,-1
 300 680 l 1,2,-1
 380 680 l 1,3,-1
 92 0 l 1,0,-1
EndSplineSet
EndChar

StartChar: backslash
Encoding: 92 92 545
Width: 392
GlyphClass: 1
Flags: W
LayerCount: 2
Fore
SplineSet
380 0 m 1,0,-1
 300 0 l 1,1,-1
 12 680 l 1,2,-1
 92 680 l 1,3,-1
 380 0 l 1,0,-1
EndSplineSet
EndChar

StartChar: parenleft
Encoding: 40 40 546
Width: 270
GlyphClass: 1
Flags: W
LayerCount: 2
Fore
SplineSet
157 -30 m 1,0,1
 109 53 109 53 80.5 155 c 128,-1,2
 52 257 52 257 52 354 c 256,3,4
 52 451 52 451 80.5 553 c 128,-1,5
 109 655 109 655 157 738 c 1,6,-1
 240 738 l 1,7,8
 198 658 198 658 173 555.5 c 128,-1,9
 148 453 148 453 148 354 c 256,10,11
 148 255 148 255 173 152.5 c 128,-1,12
 198 50 198 50 240 -30 c 1,13,-1
 157 -30 l 1,0,1
EndSplineSet
EndChar

StartChar: parenright
Encoding: 41 41 547
Width: 270
GlyphClass: 1
Flags: W
LayerCount: 2
Fore
SplineSet
113 738 m 1,0,1
 161 655 161 655 189.5 553 c 128,-1,2
 218 451 218 451 218 354 c 256,3,4
 218 257 218 257 189.5 155 c 128,-1,5
 161 53 161 53 113 -30 c 1,6,-1
 30 -30 l 1,7,8
 72 50 72 50 97 152.5 c 128,-1,9
 122 255 122 255 122 354 c 256,10,11
 122 453 122 453 97 555.5 c 128,-1,12
 72 658 72 658 30 738 c 1,13,-1
 113 738 l 1,0,1
EndSplineSet
EndChar

StartChar: braceleft
Encoding: 123 123 548
Width: 285
GlyphClass: 1
Flags: W
LayerCount: 2
Fore
SplineSet
209 -102 m 2,0,1
 156 -102 156 -102 127 -68.5 c 128,-1,2
 98 -35 98 -35 98 23 c 2,3,-1
 98 167 l 2,4,5
 98 289 98 289 22 307 c 1,6,-1
 22 381 l 1,7,8
 98 399 98 399 98 521 c 2,9,-1
 98 665 l 2,10,11
 98 723 98 723 127 756.5 c 128,-1,12
 156 790 156 790 209 790 c 2,13,-1
 255 790 l 1,14,-1
 255 705 l 1,15,-1
 235 705 l 2,16,17
 207 705 207 705 195 692 c 128,-1,18
 183 679 183 679 183 647 c 2,19,-1
 183 485 l 2,20,21
 183 441 183 441 169 409 c 128,-1,22
 155 377 155 377 134.5 361 c 128,-1,23
 114 345 114 345 94 345 c 2,24,-1
 92 345 l 1,25,-1
 92 343 l 1,26,-1
 94 343 l 2,27,28
 114 343 114 343 134.5 327 c 128,-1,29
 155 311 155 311 169 279 c 128,-1,30
 183 247 183 247 183 203 c 2,31,-1
 183 41 l 2,32,33
 183 9 183 9 195 -4 c 128,-1,34
 207 -17 207 -17 235 -17 c 2,35,-1
 255 -17 l 1,36,-1
 255 -102 l 1,37,-1
 209 -102 l 2,0,1
EndSplineSet
EndChar

StartChar: braceright
Encoding: 125 125 549
Width: 285
GlyphClass: 1
Flags: W
LayerCount: 2
Fore
SplineSet
76 790 m 2,0,1
 129 790 129 790 158 756.5 c 128,-1,2
 187 723 187 723 187 665 c 2,3,-1
 187 521 l 2,4,5
 187 399 187 399 263 381 c 1,6,-1
 263 307 l 1,7,8
 187 289 187 289 187 167 c 2,9,-1
 187 23 l 2,10,11
 187 -35 187 -35 158 -68.5 c 128,-1,12
 129 -102 129 -102 76 -102 c 2,13,-1
 30 -102 l 1,14,-1
 30 -17 l 1,15,-1
 50 -17 l 2,16,17
 78 -17 78 -17 90 -4 c 128,-1,18
 102 9 102 9 102 41 c 2,19,-1
 102 203 l 2,20,21
 102 247 102 247 116 279 c 128,-1,22
 130 311 130 311 150.5 327 c 128,-1,23
 171 343 171 343 191 343 c 2,24,-1
 193 343 l 1,25,-1
 193 345 l 1,26,-1
 191 345 l 2,27,28
 171 345 171 345 150.5 361 c 128,-1,29
 130 377 130 377 116 409 c 128,-1,30
 102 441 102 441 102 485 c 2,31,-1
 102 647 l 2,32,33
 102 679 102 679 90 692 c 128,-1,34
 78 705 78 705 50 705 c 2,35,-1
 30 705 l 1,36,-1
 30 790 l 1,37,-1
 76 790 l 2,0,1
EndSplineSet
EndChar

StartChar: bracketleft
Encoding: 91 91 550
Width: 283
GlyphClass: 1
Flags: W
LayerCount: 2
Fore
SplineSet
265 790 m 1,0,-1
 265 704 l 1,1,-1
 169 704 l 1,2,-1
 169 -16 l 1,3,-1
 265 -16 l 1,4,-1
 265 -102 l 1,5,-1
 75 -102 l 1,6,-1
 75 790 l 1,7,-1
 265 790 l 1,0,-1
EndSplineSet
EndChar

StartChar: bracketright
Encoding: 93 93 551
Width: 283
GlyphClass: 1
Flags: W
LayerCount: 2
Fore
SplineSet
208 790 m 1,0,-1
 208 -102 l 1,1,-1
 18 -102 l 1,2,-1
 18 -16 l 1,3,-1
 114 -16 l 1,4,-1
 114 704 l 1,5,-1
 18 704 l 1,6,-1
 18 790 l 1,7,-1
 208 790 l 1,0,-1
EndSplineSet
EndChar

StartChar: hyphen
Encoding: 45 45 552
Width: 311
GlyphClass: 1
Flags: W
LayerCount: 2
Fore
SplineSet
265 197 m 1,0,-1
 46 197 l 1,1,-1
 46 283 l 1,2,-1
 265 283 l 1,3,-1
 265 197 l 1,0,-1
EndSplineSet
Substitution2: "'case' Case-Sensitive Forms in Latin lookup 13 subtable" hyphen.case
Substitution2: "'aalt' Access All Alternates in Latin lookup 0 subtable" hyphen.case
EndChar

StartChar: endash
Encoding: 8211 8211 556
Width: 546
GlyphClass: 1
Flags: W
LayerCount: 2
Fore
SplineSet
500 221 m 1,0,-1
 46 221 l 1,1,-1
 46 296 l 1,2,-1
 500 296 l 1,3,-1
 500 221 l 1,0,-1
EndSplineSet
Substitution2: "'case' Case-Sensitive Forms in Latin lookup 13 subtable" endash.case
Substitution2: "'aalt' Access All Alternates in Latin lookup 0 subtable" endash.case
EndChar

StartChar: emdash
Encoding: 8212 8212 558
Width: 890
GlyphClass: 1
Flags: W
LayerCount: 2
Fore
SplineSet
890 222 m 1,0,-1
 0 222 l 1,1,-1
 0 295 l 1,2,-1
 890 295 l 1,3,-1
 890 222 l 1,0,-1
EndSplineSet
Substitution2: "'case' Case-Sensitive Forms in Latin lookup 13 subtable" emdash.case
Substitution2: "'aalt' Access All Alternates in Latin lookup 0 subtable" emdash.case
EndChar

StartChar: underscore
Encoding: 95 95 560
Width: 440
GlyphClass: 1
Flags: W
LayerCount: 2
Fore
SplineSet
438 -84 m 1,0,-1
 2 -84 l 1,1,-1
 2 0 l 1,2,-1
 438 0 l 1,3,-1
 438 -84 l 1,0,-1
EndSplineSet
EndChar

StartChar: quotedblleft
Encoding: 8220 8220 563
Width: 318
GlyphClass: 1
Flags: W
LayerCount: 2
Fore
SplineSet
79 680 m 1,0,-1
 130 680 l 1,1,-1
 112 493 l 1,2,-1
 10 493 l 1,3,-1
 79 680 l 1,0,-1
249 680 m 1,4,-1
 300 680 l 1,5,-1
 282 493 l 1,6,-1
 180 493 l 1,7,-1
 249 680 l 1,4,-1
EndSplineSet
EndChar

StartChar: quoteleft
Encoding: 8216 8216 565
Width: 148
GlyphClass: 1
Flags: W
LayerCount: 2
Fore
SplineSet
79 680 m 1,0,-1
 130 680 l 1,1,-1
 112 493 l 1,2,-1
 10 493 l 1,3,-1
 79 680 l 1,0,-1
EndSplineSet
EndChar

StartChar: guillemotleft
Encoding: 171 171 567
Width: 471
GlyphClass: 1
Flags: W
LayerCount: 2
Fore
SplineSet
257 74 m 1,0,-1
 178 74 l 1,1,-1
 11 239 l 1,2,-1
 178 404 l 1,3,-1
 257 404 l 1,4,-1
 121 239 l 1,5,-1
 257 74 l 1,0,-1
448 74 m 1,6,-1
 370 74 l 1,7,-1
 202 239 l 1,8,-1
 370 404 l 1,9,-1
 448 404 l 1,10,-1
 311 239 l 1,11,-1
 448 74 l 1,6,-1
EndSplineSet
Substitution2: "'case' Case-Sensitive Forms in Latin lookup 13 subtable" guillemotleft.case
Substitution2: "'aalt' Access All Alternates in Latin lookup 0 subtable" guillemotleft.case
EndChar

StartChar: guillemotright
Encoding: 187 187 569
Width: 471
GlyphClass: 1
Flags: W
LayerCount: 2
Fore
SplineSet
23 404 m 1,0,-1
 101 404 l 1,1,-1
 269 239 l 1,2,-1
 101 74 l 1,3,-1
 23 74 l 1,4,-1
 160 239 l 1,5,-1
 23 404 l 1,0,-1
214 404 m 1,6,-1
 293 404 l 1,7,-1
 460 239 l 1,8,-1
 293 74 l 1,9,-1
 214 74 l 1,10,-1
 350 239 l 1,11,-1
 214 404 l 1,6,-1
EndSplineSet
Substitution2: "'case' Case-Sensitive Forms in Latin lookup 13 subtable" guillemotright.case
Substitution2: "'aalt' Access All Alternates in Latin lookup 0 subtable" guillemotright.case
EndChar

StartChar: guillemotright.case
Encoding: 65734 -1 570
Width: 471
GlyphClass: 1
Flags: W
LayerCount: 2
Fore
SplineSet
23 513 m 1,0,-1
 101 513 l 1,1,-1
 269 348 l 1,2,-1
 101 183 l 1,3,-1
 23 183 l 1,4,-1
 160 348 l 1,5,-1
 23 513 l 1,0,-1
214 513 m 1,6,-1
 293 513 l 1,7,-1
 460 348 l 1,8,-1
 293 183 l 1,9,-1
 214 183 l 1,10,-1
 350 348 l 1,11,-1
 214 513 l 1,6,-1
EndSplineSet
EndChar

StartChar: guilsinglleft
Encoding: 8249 8249 571
Width: 322
GlyphClass: 1
Flags: W
LayerCount: 2
Fore
SplineSet
206 478 m 1,0,-1
 276 431 l 1,1,-1
 127 234 l 1,2,-1
 276 37 l 1,3,-1
 206 -10 l 1,4,-1
 24 234 l 1,5,-1
 206 478 l 1,0,-1
EndSplineSet
EndChar

StartChar: guilsinglright
Encoding: 8250 8250 572
Width: 322
GlyphClass: 1
Flags: W
LayerCount: 2
Fore
SplineSet
46 441 m 1,0,-1
 116 488 l 1,1,-1
 298 244 l 1,2,-1
 116 0 l 1,3,-1
 46 47 l 1,4,-1
 195 244 l 1,5,-1
 46 441 l 1,0,-1
EndSplineSet
EndChar

StartChar: quotedbl
Encoding: 34 34 573
Width: 347
GlyphClass: 1
Flags: W
LayerCount: 2
Fore
SplineSet
124 460 m 1,0,-1
 62 460 l 1,1,-1
 44 682 l 1,2,-1
 142 682 l 1,3,-1
 124 460 l 1,0,-1
285 460 m 1,4,-1
 223 460 l 1,5,-1
 205 682 l 1,6,-1
 303 682 l 1,7,-1
 285 460 l 1,4,-1
EndSplineSet
EndChar

